<?xml version="1.0" standalone="no"?>
<!DOCTYPE svg PUBLIC "-//W3C//DTD SVG 1.1//EN" "http://www.w3.org/Graphics/SVG/1.1/DTD/svg11.dtd" >
<svg>
<metadata>
Created by FontForge 20090622 at Sun Jul 15 14:42:44 2018
 By deploy user
Copyright (c) 2012 by Jos Buivenga. All rights reserved.
</metadata>
<defs>
<font id="MuseoSansCyrl-700" horiz-adv-x="392" >
  <font-face 
    font-family="Museo Sans Cyrl 700"
    font-weight="600"
    font-stretch="normal"
    units-per-em="1000"
    panose-1="2 0 0 0 0 0 0 0 0 0"
    ascent="750"
    descent="-250"
    x-height="510"
    cap-height="710"
    bbox="-124 -215 1134 902"
    underline-thickness="50"
    underline-position="-50"
    unicode-range="U+0020-U+FB04"
  />
<missing-glyph horiz-adv-x="510" 
d="M5 0v700h500v-700h-500zM255 395l170 255h-340zM285 350l170 -255v510zM55 95l170 255l-170 255v-510zM85 50h340l-170 255z" />
    <glyph glyph-name="f_f" unicode="ff" horiz-adv-x="710" 
d="M96 0v409h-63v101h63v15q0 48 15 83.5t37 55t52.5 31.5t54.5 15.5t49 3.5q28 0 43 -3v-108q-8 2 -26 2q-99 0 -99 -83v-12h230v15q0 48 15 83.5t37 55t52.5 31.5t54.5 15.5t49 3.5q28 0 43 -3v-108q-8 2 -26 2q-99 0 -99 -83v-12h110v-101h-110v-409h-126v409h-230v-409
h-126z" />
    <glyph glyph-name="fi" unicode="fi" horiz-adv-x="618" 
d="M96 0v409h-63v101h63v15q0 48 15 83.5t37 55t52.5 31.5t54.5 15.5t49 3.5q28 0 43 -3v-108q-8 2 -26 2q-99 0 -99 -83v-12h328v-510h-126v409h-202v-409h-126zM423 597v113h127v-113h-127z" />
    <glyph glyph-name="fl" unicode="fl" horiz-adv-x="640" 
d="M419 159v551h126v-532q0 -40 12.5 -55t39.5 -15q12 0 19 1v-111q-27 -3 -40 -3q-31 0 -55 5.5t-49 21t-39 50.5t-14 87zM97 0v402h-63v101h63v22q0 48 15.5 83.5t37.5 55t52.5 31.5t54.5 15.5t49 3.5q28 0 43 -3v-108q-8 2 -26 2q-99 0 -99 -83v-19h110v-101h-110v-402
h-127z" />
    <glyph glyph-name="f_f_i" unicode="ffi" horiz-adv-x="974" 
d="M96 0v409h-63v101h63v15q0 48 15 83.5t37 55t52.5 31.5t54.5 15.5t49 3.5q28 0 43 -3v-108q-8 2 -26 2q-99 0 -99 -83v-12h230v15q0 48 15 83.5t37 55t52.5 31.5t54.5 15.5t49 3.5q28 0 43 -3v-108q-8 2 -26 2q-99 0 -99 -83v-12h328v-510h-126v409h-202v-409h-126v409
h-230v-409h-126zM780 597v113h127v-113h-127z" />
    <glyph glyph-name="f_f_l" unicode="ffl" horiz-adv-x="994" 
d="M96 0v409h-63v101h63v15q0 48 15 83.5t37 55t52.5 31.5t54.5 15.5t49 3.5q28 0 43 -3v-108q-8 2 -26 2q-99 0 -99 -83v-12h230v15q0 48 15 83.5t37 55t52.5 31.5t54.5 15.5t49 3.5q28 0 43 -3v-108q-8 2 -26 2q-99 0 -99 -83v-12h110v-101h-110v-409h-126v409h-230v-409
h-126zM773 159v551h127v-532q0 -40 12.5 -55t39.5 -15q12 0 19 1v-111q-27 -3 -40 -3q-24 0 -43.5 3t-42 13t-37.5 27t-25 48t-10 73z" />
    <glyph glyph-name="f_j" unicode="fj" horiz-adv-x="618" 
d="M96 0v409h-63v101h63v15q0 48 15 83.5t37 55t52.5 31.5t54.5 15.5t49 3.5q28 0 43 -3v-108q-8 2 -26 2q-99 0 -99 -83v-12h328v-525q0 -49 -16 -85.5t-38.5 -56t-53.5 -31.5t-55 -15.5t-49 -3.5q-20 0 -39 3v107q12 -2 22 -2q17 0 32 3.5t32.5 12t28 29t10.5 49.5v414
h-202v-409h-126zM423 597v113h127v-113h-127z" />
    <glyph glyph-name=".notdef" horiz-adv-x="510" 
d="M5 0v700h500v-700h-500zM255 395l170 255h-340zM285 350l170 -255v510zM55 95l170 255l-170 255v-510zM85 50h340l-170 255z" />
    <glyph glyph-name=".null" horiz-adv-x="0" 
 />
    <glyph glyph-name="nonmarkingreturn" horiz-adv-x="333" 
 />
    <glyph glyph-name="space" unicode=" " horiz-adv-x="250" 
 />
    <glyph glyph-name="exclam" unicode="!" horiz-adv-x="288" 
d="M88 205l-10 505h131l-10 -505h-111zM82 0v119h123v-119h-123z" />
    <glyph glyph-name="quotedbl" unicode="&#x22;" horiz-adv-x="393" 
d="M230 514v209h94v-209h-94zM69 514v209h95v-209h-95z" />
    <glyph glyph-name="numbersign" unicode="#" horiz-adv-x="715" 
d="M126 0l32 187h-119l16 91h119l25 140h-118l15 92h118l35 200h102l-35 -200h136l35 200h102l-35 -200h121l-16 -92h-120l-25 -140h119l-15 -91h-119l-33 -187h-102l33 187h-137l-32 -187h-102zM276 278h136l25 140h-137z" />
    <glyph glyph-name="dollar" unicode="$" horiz-adv-x="586" 
d="M53 85l69 97q34 -32 82.5 -53.5t94.5 -21.5q44 0 74 22.5t30 63.5q0 33 -35 58.5t-84.5 46t-99 45.5t-84.5 69t-35 104q0 77 52 132t136 69v94h85v-92q104 -8 176 -73l-56 -105q-31 27 -73.5 44.5t-82.5 17.5q-46 0 -77 -24t-31 -61q0 -27 25 -49.5t62.5 -37t81.5 -35.5
t81.5 -43.5t62.5 -63t25 -93.5q0 -79 -52 -136t-142 -69v-92h-85v92q-124 14 -200 94z" />
    <glyph glyph-name="percent" unicode="%" horiz-adv-x="800" 
d="M206 406q-68 0 -115.5 46t-47.5 112q0 65 47.5 111.5t115.5 46.5q67 0 115.5 -46.5t48.5 -111.5q0 -66 -48 -112t-116 -46zM68 0l545 710h117l-545 -710h-117zM206 498q28 0 47.5 19t19.5 47q0 27 -19.5 46.5t-47.5 19.5t-47 -19.5t-19 -46.5q0 -28 19 -47t47 -19z
M431 145q0 65 47.5 111.5t115.5 46.5q67 0 115 -46.5t48 -111.5t-47.5 -111t-115.5 -46t-115.5 46t-47.5 111zM528 146q0 -28 19 -47t47 -19t47.5 19t19.5 47q0 27 -19.5 46.5t-47.5 19.5t-47 -19.5t-19 -46.5z" />
    <glyph glyph-name="ampersand" unicode="&#x26;" horiz-adv-x="684" 
d="M51 201q0 59 32.5 108.5t87.5 68.5v2q-41 19 -65.5 60t-24.5 95q0 90 63.5 138.5t161.5 48.5q40 0 93 -12l-31 -102q-21 6 -47 6q-48 0 -78.5 -25t-30.5 -70q0 -37 25 -65.5t82 -28.5h114v92h127v-92h92v-112h-92v-84q0 -110 -68 -175.5t-188 -65.5q-113 0 -183 60.5
t-70 152.5zM183 209q0 -44 33.5 -73.5t87.5 -29.5q62 0 95.5 33t33.5 97v77h-120q-61 0 -95.5 -26.5t-34.5 -77.5z" />
    <glyph glyph-name="quotesingle" unicode="'" horiz-adv-x="235" 
d="M69 514v209h96v-209h-96z" />
    <glyph glyph-name="parenleft" unicode="(" horiz-adv-x="308" 
d="M167 -95q-119 195 -119 438q0 210 119 398h107q-113 -190 -113 -399q0 -226 113 -437h-107z" />
    <glyph glyph-name="parenright" unicode=")" horiz-adv-x="308" 
d="M34 -95q113 211 113 437q0 209 -113 399h107q119 -188 119 -398q0 -243 -119 -438h-107z" />
    <glyph glyph-name="asterisk" unicode="*" horiz-adv-x="495" 
d="M178 321l-92 66l84 100v2l-126 31l34 108l121 -49l-9 131h115l-10 -131l122 49l35 -107l-127 -32v-2l84 -99l-92 -67l-69 110h-2z" />
    <glyph glyph-name="plus" unicode="+" horiz-adv-x="586" 
d="M25 236v99h217v237h103v-237h216v-99h-216v-236h-103v236h-217z" />
    <glyph glyph-name="comma" unicode="," horiz-adv-x="282" 
d="M25 -105l68 234h126l-97 -234h-97z" />
    <glyph glyph-name="hyphen" unicode="-" horiz-adv-x="432" 
d="M66 230v111h300v-111h-300z" />
    <glyph glyph-name="period" unicode="." horiz-adv-x="259" 
d="M66 0v128h127v-128h-127z" />
    <glyph glyph-name="slash" unicode="/" horiz-adv-x="430" 
d="M33 -42l255 788h109l-255 -788h-109z" />
    <glyph glyph-name="zero" unicode="0" horiz-adv-x="628" 
d="M314 -12q-70 0 -121.5 28t-80.5 80t-42.5 116t-13.5 144t13.5 144t42.5 115t80 79t122 28q257 0 257 -366q0 -80 -13.5 -144t-42 -116t-80 -80t-121.5 -28zM314 106q125 0 125 250q0 247 -125 247t-125 -247q0 -250 125 -250z" />
    <glyph glyph-name="one" unicode="1" horiz-adv-x="517" 
d="M56 0v111h155v394l1 48h-2q-9 -17 -32 -40l-57 -54l-76 80l178 171h113v-599h154v-111h-434z" />
    <glyph glyph-name="two" unicode="2" horiz-adv-x="583" 
d="M58 0q-6 34 -6 63q0 52 18.5 97t47.5 77.5t64.5 60.5t71 52t64.5 47t47.5 49.5t18.5 54.5q0 45 -31 72t-77 27q-39 0 -73 -24t-55 -60l-96 64q34 62 94 102t141 40q97 0 164 -56.5t67 -153.5q0 -46 -17.5 -86.5t-45.5 -69.5t-62.5 -55t-68.5 -48t-63 -43.5t-47.5 -46.5
t-19.5 -52h335v-111h-471z" />
    <glyph glyph-name="three" unicode="3" horiz-adv-x="573" 
d="M38 83l66 99q30 -31 73.5 -51.5t88.5 -20.5q55 0 91 30t36 76q0 54 -42.5 82t-109.5 28h-49l-28 66l130 154q12 15 24.5 28.5t19.5 19.5l7 6v2q-22 -3 -63 -3h-212v111h433v-81l-173 -201q80 -11 136.5 -65.5t56.5 -141.5q0 -96 -68 -164.5t-182 -68.5q-65 0 -127.5 24.5
t-107.5 70.5z" />
    <glyph glyph-name="four" unicode="4" horiz-adv-x="619" 
d="M30 183v79l307 448h152v-420h92v-107h-92v-183h-127v183h-332zM166 290h196v220l5 74h-2q-16 -38 -35 -65l-164 -227v-2z" />
    <glyph glyph-name="five" unicode="5" horiz-adv-x="570" 
d="M44 84l67 97q65 -71 151 -71q54 0 93.5 33.5t39.5 87.5q0 55 -40 89t-102 34q-59 0 -110 -30l-72 26l33 360h374v-111h-262l-11 -117l-5 -33h2q30 16 76 16q114 0 182 -67t68 -166q0 -105 -73 -174.5t-183 -69.5q-65 0 -125 25t-103 71z" />
    <glyph glyph-name="six" unicode="6" horiz-adv-x="604" 
d="M52 324q0 57 12.5 113t39.5 107.5t64.5 91t92 63t118.5 23.5q83 0 146 -30l-38 -111q-40 22 -101 22q-78 0 -126 -55t-62 -135h2q18 22 56 36t77 14q102 0 164.5 -69t62.5 -169t-65 -168.5t-168 -68.5q-116 0 -195.5 91t-79.5 245zM328 106q47 0 76 34t29 85
q0 57 -34.5 94.5t-95.5 37.5q-49 0 -83 -21.5t-34 -58.5q0 -62 42 -116.5t100 -54.5z" />
    <glyph glyph-name="seven" unicode="7" horiz-adv-x="547" 
d="M81 0l266 534q10 20 20.5 36t15.5 22l5 7v2q-11 -2 -47 -2h-303v111h488v-90l-311 -620h-134z" />
    <glyph glyph-name="eight" unicode="8" horiz-adv-x="610" 
d="M50 205q0 35 12 67t32 55.5t34.5 37t29.5 24.5q-74 57 -74 138t59 138t169 57q101 0 165.5 -53t64.5 -143t-79 -177q91 -58 91 -150q0 -86 -68.5 -148.5t-182.5 -62.5q-112 0 -182.5 62.5t-70.5 154.5zM367 397q49 60 49 119q0 42 -29.5 66.5t-77.5 24.5q-46 0 -72 -23
t-26 -59q0 -11 2.5 -20.5t9 -19l11 -16t17 -14.5t19 -12.5t23 -12.5t23 -10.5t26.5 -11.5t25 -11zM182 215q0 -48 36 -80.5t85 -32.5q51 0 85.5 28.5t34.5 73.5q0 19 -8.5 34t-30 29.5t-36.5 22.5t-50 23t-49 22q-67 -57 -67 -120z" />
    <glyph glyph-name="nine" unicode="9" horiz-adv-x="604" 
d="M79 18l38 111q48 -23 100 -23q78 0 126 54.5t63 135.5h-2q-18 -22 -56 -36t-77 -14q-102 0 -165 69.5t-63 168.5q0 100 65 169t169 69q116 0 195 -91t79 -246q0 -57 -12.5 -113t-39.5 -107.5t-64.5 -90.5t-92 -62.5t-118.5 -23.5q-84 0 -145 30zM301 352q48 0 82.5 22.5
t34.5 54.5q0 67 -42.5 120.5t-97.5 53.5q-49 0 -78 -33.5t-29 -85.5q0 -57 34.5 -94.5t95.5 -37.5z" />
    <glyph glyph-name="colon" unicode=":" horiz-adv-x="258" 
d="M66 383v127h126v-127h-126zM66 0v127h126v-127h-126z" />
    <glyph glyph-name="semicolon" unicode=";" horiz-adv-x="295" 
d="M100 383v127h123v-127h-123zM39 -105l58 234h126l-87 -234h-97z" />
    <glyph glyph-name="less" unicode="&#x3c;" horiz-adv-x="586" 
d="M39 245v82l481 214v-111l-347 -143v-2l347 -143v-111z" />
    <glyph glyph-name="equal" unicode="=" horiz-adv-x="586" 
d="M49 339v98h488v-98h-488zM49 134v98h488v-98h-488z" />
    <glyph glyph-name="greater" unicode="&#x3e;" horiz-adv-x="586" 
d="M65 31v111l347 143v2l-347 143v111l481 -214v-82z" />
    <glyph glyph-name="question" unicode="?" horiz-adv-x="483" 
d="M145 205v48q0 40 17 73t41 55l48 42.5t41 46t17 54.5q0 35 -28 59t-69 24q-55 0 -106 -42l-71 87q76 72 188 72q89 0 154 -51.5t65 -136.5q0 -46 -18 -83t-44 -61l-51.5 -45.5t-43.5 -47.5t-18 -55v-39h-122zM144 0v119h123v-119h-123z" />
    <glyph glyph-name="at" unicode="@" horiz-adv-x="815" 
d="M52 240q0 156 108.5 264.5t267.5 108.5q143 0 209 -61t66 -157v-250h73v-91h-277q-97 0 -156 55t-59 131q0 75 58.5 129t156.5 54h85q-1 39 -43.5 63.5t-108.5 24.5q-107 0 -181 -81t-74 -190q0 -113 74.5 -190.5t197.5 -77.5v-99q-176 0 -286.5 105t-110.5 262zM411 243
q0 -41 26.5 -69.5t69.5 -28.5h77v196h-75q-44 0 -71 -28.5t-27 -69.5z" />
    <glyph glyph-name="A" unicode="A" horiz-adv-x="650" 
d="M8 0l249 710h136l249 -710h-132l-61 182h-249l-60 -182h-132zM232 287h185l-63 190l-28 110h-2q-16 -70 -28 -110z" />
    <glyph glyph-name="B" unicode="B" horiz-adv-x="633" 
d="M86 0v710h253q99 0 159.5 -48.5t60.5 -134.5q0 -50 -23 -90t-63 -62v-2q56 -16 85.5 -63t29.5 -104q0 -101 -70 -153.5t-175 -52.5h-257zM215 420h125q41 0 64.5 25.5t23.5 65.5q0 39 -23.5 63.5t-66.5 24.5h-123v-179zM215 111h138q48 0 75.5 28.5t27.5 74.5
q0 45 -27.5 73.5t-75.5 28.5h-138v-205z" />
    <glyph glyph-name="C" unicode="C" horiz-adv-x="716" 
d="M45 358q0 156 103 260t262 104q162 0 262 -97l-62 -96q-39 33 -91.5 54t-102.5 21q-112 0 -175 -70t-63 -174q0 -105 64 -179.5t175 -74.5q114 0 206 90l68 -93q-113 -115 -279 -115q-165 0 -266 105t-101 265z" />
    <glyph glyph-name="D" unicode="D" horiz-adv-x="737" 
d="M86 0v710h242q166 0 264 -94t98 -260t-98 -261t-264 -95h-242zM215 111h106q110 0 173 63.5t63 181.5q0 116 -63.5 179.5t-172.5 63.5h-106v-488z" />
    <glyph glyph-name="E" unicode="E" horiz-adv-x="568" 
d="M86 0v710h425v-111h-296v-186h239v-111h-239v-191h312v-111h-441z" />
    <glyph glyph-name="F" unicode="F" horiz-adv-x="523" 
d="M86 0v710h408v-111h-279v-201h235v-111h-235v-287h-129z" />
    <glyph glyph-name="G" unicode="G" horiz-adv-x="766" 
d="M45 356q0 155 104.5 260.5t261.5 105.5q160 0 264 -90l-64 -96q-33 30 -86 49t-103 19q-115 0 -179.5 -70t-64.5 -174q0 -113 68 -183.5t170 -70.5q101 0 178 74v83h-109v111h225v-374h-110v34l1 30h-2q-35 -34 -90.5 -55t-115.5 -21q-145 0 -246.5 102.5t-101.5 265.5z
" />
    <glyph glyph-name="H" unicode="H" horiz-adv-x="754" 
d="M86 0v710h129v-301h325v301h128v-710h-128v298h-325v-298h-129z" />
    <glyph glyph-name="I" unicode="I" horiz-adv-x="301" 
d="M86 0v710h129v-710h-129z" />
    <glyph glyph-name="J" unicode="J" horiz-adv-x="546" 
d="M24 210v41h128v-33q0 -48 23 -80t70 -32q41 0 67 26t26 80v387h-184v111h312v-500q0 -109 -65.5 -165.5t-155.5 -56.5q-91 0 -156 57t-65 165z" />
    <glyph glyph-name="K" unicode="K" horiz-adv-x="638" 
d="M86 0v710h129v-289h92l167 289h140l-201 -338v-2l213 -370h-146l-173 310h-92v-310h-129z" />
    <glyph glyph-name="L" unicode="L" horiz-adv-x="536" 
d="M86 0v710h129v-599h307v-111h-436z" />
    <glyph glyph-name="M" unicode="M" horiz-adv-x="860" 
d="M59 0l58 710h137l140 -351l35 -104h2q19 62 35 104l140 351h137l58 -710h-129l-29 397q-2 21 -2 48.5t1 44.5v17h-2q-23 -69 -39 -110l-115 -275h-112l-115 275l-39 111h-2q3 -64 -1 -111l-29 -397h-129z" />
    <glyph glyph-name="N" unicode="N" horiz-adv-x="753" 
d="M86 0v710h129l269 -410q12 -19 26.5 -46.5l23.5 -45.5l9 -18h2q-7 68 -7 110v410h128v-710h-128l-269 409q-12 19 -26.5 46.5l-23.5 45.5l-9 18h-2q7 -68 7 -110v-409h-129z" />
    <glyph glyph-name="O" unicode="O" horiz-adv-x="822" 
d="M44 360q0 154 103.5 258t263.5 104t263.5 -104t103.5 -258q0 -158 -103.5 -265t-263.5 -107t-263.5 107t-103.5 265zM177 360q0 -109 66.5 -181.5t167.5 -72.5t167.5 72.5t66.5 181.5q0 104 -66.5 174t-167.5 70t-167.5 -70t-66.5 -174z" />
    <glyph glyph-name="P" unicode="P" horiz-adv-x="615" 
d="M86 0v710h274q100 0 163 -64t63 -167t-63 -168.5t-163 -65.5h-145v-245h-129zM215 357h121q56 0 87.5 33t31.5 89q0 55 -31.5 87.5t-85.5 32.5h-123v-242z" />
    <glyph glyph-name="Q" unicode="Q" horiz-adv-x="822" 
d="M44 359q0 154 104 258.5t263 104.5q160 0 263.5 -104t103.5 -259q0 -124 -78 -225l80 -72l-74 -82l-78 78q-93 -70 -217 -70q-159 0 -263 107t-104 264zM177 359q0 -108 67 -180.5t167 -72.5q72 0 124 38l-79 74l73 81l77 -77q39 61 39 137q0 105 -67 175t-167 70
t-167 -70t-67 -175z" />
    <glyph glyph-name="R" unicode="R" horiz-adv-x="640" 
d="M86 0v710h234q90 0 134 -19q56 -23 88 -73t32 -121q0 -65 -32 -118.5t-87 -75.5v-2q9 -11 23 -37l146 -264h-145l-140 265h-124v-265h-129zM215 377h116q52 0 82 30.5t30 82.5q0 74 -56 97q-27 12 -78 12h-94v-222z" />
    <glyph glyph-name="S" unicode="S" horiz-adv-x="557" 
d="M35 85l70 97q35 -31 82.5 -53t93.5 -22q48 0 76 22.5t28 58.5q0 37 -34 64t-82.5 47t-97.5 44t-83 68t-34 105q0 92 68.5 149t173.5 57q125 0 208 -76l-57 -105q-30 27 -72.5 44.5t-83.5 17.5q-49 0 -78.5 -22t-29.5 -59q0 -36 34 -62t82.5 -45t97.5 -42.5t83 -67.5
t34 -107q0 -90 -63 -150t-173 -60q-68 0 -132 25t-111 72z" />
    <glyph glyph-name="T" unicode="T" horiz-adv-x="622" 
d="M247 0v599h-233v111h594v-111h-233v-599h-128z" />
    <glyph glyph-name="U" unicode="U" horiz-adv-x="728" 
d="M78 255v455h129v-454q0 -71 42.5 -110.5t114.5 -39.5t114.5 39.5t42.5 110.5v454h129v-455q0 -119 -78.5 -193t-206.5 -74q-129 0 -208 74t-79 193z" />
    <glyph glyph-name="V" unicode="V" horiz-adv-x="656" 
d="M261 0l-256 710h139l156 -463l27 -104h2q14 63 27 104l158 463h137l-256 -710h-134z" />
    <glyph glyph-name="W" unicode="W" horiz-adv-x="956" 
d="M200 0l-177 710h135l110 -491l12 -75h2q4 34 15 75l127 491h108l126 -491l15 -75h2q2 35 11 75l118 491h133l-184 -710h-145l-111 420l-18 93h-3q-7 -47 -19 -93l-110 -420h-147z" />
    <glyph glyph-name="X" unicode="X" horiz-adv-x="622" 
d="M13 0l220 360l-212 350h147l98 -174l44 -87h2q20 45 44 87l99 174h147l-213 -350l221 -360h-144l-111 191l-44 84h-2q-20 -43 -43 -84l-110 -191h-143z" />
    <glyph glyph-name="Y" unicode="Y" horiz-adv-x="606" 
d="M239 0v297l-237 413h146l111 -209l43 -95h2q21 51 43 95l110 209h146l-236 -413v-297h-128z" />
    <glyph glyph-name="Z" unicode="Z" horiz-adv-x="610" 
d="M36 0v83l315 452q12 18 25 34t20 23l7 7v2q-20 -2 -53 -2h-298v111h513v-82l-315 -453q-12 -18 -25 -34t-20 -23l-7 -7v-2q20 2 53 2h319v-111h-534z" />
    <glyph glyph-name="bracketleft" unicode="[" horiz-adv-x="321" 
d="M80 -95v836h197v-92h-89v-652h89v-92h-197z" />
    <glyph glyph-name="backslash" unicode="\" horiz-adv-x="430" 
d="M288 -42l-255 788h109l255 -788h-109z" />
    <glyph glyph-name="bracketright" unicode="]" horiz-adv-x="321" 
d="M44 -3h89v652h-89v92h197v-836h-197v92z" />
    <glyph glyph-name="asciicircum" unicode="^" horiz-adv-x="619" 
d="M65 245l201 465h80l201 -465h-110l-131 331l-131 -331h-110z" />
    <glyph glyph-name="underscore" unicode="_" horiz-adv-x="605" 
d="M22 0h561v-98h-561v98z" />
    <glyph glyph-name="grave" unicode="`" horiz-adv-x="493" 
d="M247 757l-104 136h131l76 -136h-103z" />
    <glyph glyph-name="a" unicode="a" horiz-adv-x="537" 
d="M29 141q0 54 29.5 92t78 55.5t94 24.5t95.5 7h22v7q0 90 -96 90q-70 0 -142 -49l-47 91q33 26 89 44.5t111 18.5q100 0 156 -53.5t56 -149.5v-319h-118v43l3 37h-2q-24 -41 -67 -66.5t-94 -25.5q-71 0 -119.5 42.5t-48.5 110.5zM155 152q0 -27 20.5 -47t56.5 -20
q51 0 84 42t33 92v14h-22q-172 0 -172 -81z" />
    <glyph glyph-name="b" unicode="b" horiz-adv-x="614" 
d="M68 0v710h127v-221l-3 -43h2q22 34 64.5 55t89.5 21q103 0 164.5 -74t61.5 -193q0 -120 -65.5 -193.5t-168.5 -73.5q-46 0 -88 21t-66 58h-2q2 -14 2 -34v-33h-118zM191 252q0 -64 33.5 -110.5t93.5 -46.5q55 0 91.5 42.5t36.5 115.5q0 72 -35 116t-91 44
q-55 0 -92 -40.5t-37 -120.5z" />
    <glyph glyph-name="c" unicode="c" horiz-adv-x="548" 
d="M37 255q0 112 76.5 189.5t200.5 77.5q55 0 108 -19t88 -57l-57 -87q-55 55 -132 55q-69 0 -112 -45.5t-43 -112.5t44 -113.5t115 -46.5q83 0 150 65l49 -90q-36 -38 -92.5 -60.5t-117.5 -22.5q-124 0 -200.5 76.5t-76.5 190.5z" />
    <glyph glyph-name="d" unicode="d" horiz-adv-x="614" 
d="M39 255q0 120 64.5 193.5t166.5 73.5q101 0 149 -67h2q-2 13 -2 30v225h126v-710h-119v44l2 32h-2q-23 -40 -65.5 -64t-95.5 -24q-102 0 -164 74t-62 193zM167 255q0 -72 35 -116t92 -44q54 0 91 40.5t37 120.5q0 64 -33 110.5t-94 46.5q-54 0 -91 -42.5t-37 -115.5z" />
    <glyph glyph-name="e" unicode="e" horiz-adv-x="561" 
d="M37 255q0 118 72.5 192.5t187.5 74.5q106 0 166 -68.5t60 -173.5q0 -17 -4 -49h-351q6 -64 49 -99.5t104 -35.5q76 0 146 56l50 -91q-38 -34 -93.5 -53.5t-111.5 -19.5q-123 0 -199 77.5t-76 189.5zM171 318h225q-1 50 -29.5 79t-72.5 29q-48 0 -81 -29.5t-42 -78.5z" />
    <glyph glyph-name="f" unicode="f" horiz-adv-x="356" 
d="M97 0v402h-63v101h63v22q0 48 15.5 83.5t37.5 55t52.5 31.5t54.5 15.5t49 3.5q28 0 43 -3v-108q-8 2 -26 2q-99 0 -99 -83v-19h110v-101h-110v-402h-127z" />
    <glyph glyph-name="g" unicode="g" horiz-adv-x="606" 
d="M126 -69q68 -33 141 -33q64 0 104 30t40 94v32l2 27h-2q-47 -71 -143 -71q-106 0 -167 74t-61 184t59.5 182t165.5 72q104 0 152 -67h3q-2 6 -2 14v41h120v-479q0 -63 -23 -111t-62 -75.5t-85.5 -41t-98.5 -13.5q-97 0 -182 44zM168 272q0 -69 33.5 -112t94.5 -43
q51 0 84.5 35t33.5 115q0 147 -126 147q-57 0 -88.5 -38.5t-31.5 -103.5z" />
    <glyph glyph-name="h" unicode="h" horiz-adv-x="612" 
d="M68 0v710h127v-248l-3 -43h2q21 41 68.5 72t108.5 31q178 0 178 -194v-328h-127v302q0 51 -17.5 77.5t-62.5 26.5q-66 0 -106.5 -47.5t-40.5 -121.5v-237h-127z" />
    <glyph glyph-name="i" unicode="i" horiz-adv-x="263" 
d="M68 597v113h127v-113h-127zM68 0v510h127v-510h-127z" />
    <glyph glyph-name="j" unicode="j" horiz-adv-x="263" 
d="M68 597v113h127v-113h-127zM68 -5v515h127v-525q0 -49 -16 -85.5t-38.5 -56t-53.5 -31.5t-55.5 -15.5t-49.5 -3.5q-18 0 -38 3v107q12 -2 22 -2q17 0 32 3.5t32 12t27.5 29t10.5 49.5z" />
    <glyph glyph-name="k" unicode="k" horiz-adv-x="549" 
d="M68 0v710h127v-380h63l123 180h141l-161 -228v-2l181 -280h-146l-135 223h-66v-223h-127z" />
    <glyph glyph-name="l" unicode="l" horiz-adv-x="289" 
d="M68 159v551h126v-532q0 -40 12.5 -55t39.5 -15q12 0 19 1v-111q-27 -3 -40 -3q-31 0 -55 5.5t-49 21t-39 50.5t-14 87z" />
    <glyph glyph-name="m" unicode="m" horiz-adv-x="912" 
d="M68 0v510h122v-60l-2 -36h2q20 42 65.5 75t101.5 33q116 0 148 -105h2q23 43 70 74t104 31q167 0 167 -194v-328h-126v304q0 49 -15 75.5t-55 26.5q-62 0 -96 -52.5t-34 -124.5v-229h-127v304q0 49 -14 75.5t-55 26.5q-62 0 -96.5 -53.5t-34.5 -123.5v-229h-127z" />
    <glyph glyph-name="n" unicode="n" horiz-adv-x="612" 
d="M68 0v510h122v-60l-2 -36h2q20 41 66 74.5t115 33.5q178 0 178 -194v-328h-127v302q0 51 -17.5 77.5t-62.5 26.5q-66 0 -106.5 -48t-40.5 -119v-239h-127z" />
    <glyph glyph-name="o" unicode="o" horiz-adv-x="634" 
d="M37 255q0 116 81 191.5t198 75.5q118 0 199.5 -75.5t81.5 -191.5t-81 -191.5t-199 -75.5t-199 75.5t-81 191.5zM166 255q0 -70 43.5 -114.5t107.5 -44.5t108 44.5t44 114.5q0 69 -44.5 114t-107.5 45t-107 -45t-44 -114z" />
    <glyph glyph-name="p" unicode="p" horiz-adv-x="614" 
d="M68 -200v710h116v-38l-2 -36h2q25 41 68.5 63.5t95.5 22.5q103 0 164.5 -74t61.5 -193q0 -120 -65.5 -193.5t-167.5 -73.5q-91 0 -147 72h-2q3 -18 3 -44v-216h-127zM191 252q0 -64 34 -110.5t93 -46.5q55 0 91.5 42.5t36.5 115.5q0 72 -35 116t-91 44q-55 0 -92 -40.5
t-37 -120.5z" />
    <glyph glyph-name="q" unicode="q" horiz-adv-x="614" 
d="M39 255q0 120 64.5 193.5t166.5 73.5q47 0 89 -19.5t67 -55.5h2q-2 13 -2 32v31h119v-710h-126v221l2 44h-2q-23 -34 -64 -55.5t-90 -21.5q-102 0 -164 74t-62 193zM167 255q0 -72 35 -116t92 -44q54 0 91 40.5t37 120.5q0 64 -33 110.5t-94 46.5q-54 0 -91 -42.5
t-37 -115.5z" />
    <glyph glyph-name="r" unicode="r" horiz-adv-x="396" 
d="M68 0v510h122v-90l-2 -35h2q18 56 62 94t100 38q8 0 24 -2v-125q-10 2 -31 2q-74 0 -112 -54t-38 -132v-206h-127z" />
    <glyph glyph-name="s" unicode="s" horiz-adv-x="457" 
d="M27 63l57 84q61 -56 145 -56q34 0 52.5 13.5t18.5 37.5q0 22 -26 38t-63 29t-74.5 30.5t-63.5 50.5t-26 79q0 72 55.5 112.5t139.5 40.5q106 0 172 -58l-47 -89q-22 19 -58.5 31.5t-70.5 12.5q-71 0 -71 -49q0 -22 26 -38t63.5 -29t74.5 -29.5t63 -49.5t26 -79
q0 -68 -53 -112.5t-140 -44.5q-122 0 -200 75z" />
    <glyph glyph-name="t" unicode="t" horiz-adv-x="373" 
d="M93 187v215h-66v101h69v146h124v-146h116v-101h-116v-199q0 -55 31.5 -75.5t69.5 -20.5q13 0 23 2v-111q-30 -3 -39 -3q-26 0 -50 3.5t-55 15.5t-53.5 31.5t-38 56t-15.5 85.5z" />
    <glyph glyph-name="u" unicode="u" horiz-adv-x="607" 
d="M63 182v328h127v-302q0 -51 17.5 -77.5t61.5 -26.5q66 0 104.5 50t38.5 122v234h126v-510h-122v60l3 35h-2q-20 -43 -68 -75t-109 -32q-177 0 -177 194z" />
    <glyph glyph-name="v" unicode="v" horiz-adv-x="545" 
d="M198 0l-185 510h134l106 -316l18 -77h2q9 47 18 77l106 316h134l-183 -510h-150z" />
    <glyph glyph-name="w" unicode="w" horiz-adv-x="831" 
d="M174 0l-155 510h134l89 -335l10 -54h2q5 27 12 54l94 334h113l94 -334l11 -54h2q3 27 11 54l89 335h132l-155 -510h-141l-86 291l-13 55h-2q-5 -28 -12 -55l-87 -291h-142z" />
    <glyph glyph-name="x" unicode="x" horiz-adv-x="519" 
d="M15 0l168 258l-164 252h144l79 -139l16 -32h2l17 32l79 139h144l-164 -252l169 -258h-142l-88 148l-15 27h-2q-7 -16 -14 -27l-88 -148h-141z" />
    <glyph glyph-name="y" unicode="y" horiz-adv-x="545" 
d="M55 -82q28 -21 56 -21q61 0 89 66l19 45l-215 502h143l107 -294l19 -69h2q9 40 17 67l100 296h138l-227 -587q-25 -67 -74.5 -100t-109.5 -33q-27 0 -53.5 8t-39.5 16l-13 9z" />
    <glyph glyph-name="z" unicode="z" horiz-adv-x="524" 
d="M35 0v68l230 287q10 13 21 24.5l16 16.5l6 6v2q-15 -2 -48 -2h-215v108h434v-69l-229 -287q-10 -13 -21 -24.5l-17 -17.5l-6 -5v-2q15 3 48 3h232v-108h-451z" />
    <glyph glyph-name="braceleft" unicode="{" horiz-adv-x="371" 
d="M122 71v97q0 43 -21.5 70.5t-63.5 33.5v111q40 6 62.5 33.5t22.5 72.5v86q0 43 13.5 75.5t32 50t45 27.5t46 13t40.5 3l31 -1v-94q-8 1 -18 1q-13 0 -24.5 -3t-25.5 -11t-22.5 -26t-8.5 -45v-109q0 -45 -22.5 -79t-60.5 -48v-2q83 -31 83 -126v-120q0 -85 81 -85l18 1
v-94q-13 -2 -31 -2q-21 0 -40.5 3t-46 13t-45 27.5t-32 50t-13.5 76.5z" />
    <glyph glyph-name="bar" unicode="|" horiz-adv-x="264" 
d="M78 -161v957h108v-957h-108z" />
    <glyph glyph-name="braceright" unicode="}" horiz-adv-x="371" 
d="M41 -3q7 -1 18 -1q81 0 81 85v120q0 44 21.5 79t60.5 47v2q-34 12 -58 46.5t-24 80.5v109q0 27 -8.5 45t-22.5 26t-25.5 11t-24.5 3l-18 -1v94q12 1 31 1q27 0 52 -5.5t56 -21.5t49.5 -52.5t18.5 -89.5v-86q0 -42 22 -71.5t63 -34.5v-111q-39 -4 -62 -33t-23 -71v-97
q0 -44 -13.5 -76.5t-32 -49.5t-44.5 -27.5t-45.5 -13.5t-40.5 -3l-31 2v94z" />
    <glyph glyph-name="asciitilde" unicode="~" horiz-adv-x="621" 
d="M62 199q0 182 153 182q34 0 62 -14t43.5 -31.5t36 -31.5t42.5 -14q32 0 47 25t15 62h101q0 -91 -39.5 -136.5t-113.5 -45.5q-34 0 -61.5 14t-43 31t-37 31t-43.5 14q-30 0 -45.5 -24.5t-15.5 -61.5h-101z" />
    <glyph glyph-name="uni00A0" unicode="&#xa0;" horiz-adv-x="250" 
 />
    <glyph glyph-name="exclamdown" unicode="&#xa1;" horiz-adv-x="268" 
d="M189 304l10 -505h-131l10 505h111zM195 509v-119h-123v119h123z" />
    <glyph glyph-name="cent" unicode="&#xa2;" horiz-adv-x="586" 
d="M261 -12v86q-95 16 -153.5 94t-58.5 187t58.5 187.5t153.5 94.5v84h86v-84q66 -12 116 -55t74 -107l-114 -44q-36 89 -116 89q-58 0 -94 -46.5t-36 -118.5q0 -75 35 -120t95 -45q80 0 116 89l114 -44q-25 -61 -73.5 -107t-116.5 -54v-86h-86z" />
    <glyph glyph-name="sterling" unicode="&#xa3;" horiz-adv-x="586" 
d="M47 0v111h58v200h-43v87h43v121q0 88 64.5 145.5t163.5 57.5q101 0 178 -72l-73 -88q-45 43 -102 43q-44 0 -72 -25.5t-28 -64.5v-117h177v-87h-177v-200h312v-111h-501z" />
    <glyph glyph-name="currency" unicode="&#xa4;" horiz-adv-x="624" 
d="M119 0v159h-68v86h68v65h-68v101h68v299h252q108 0 166 -55t58 -151q0 -91 -64 -143t-166 -52h-117v-64h248v-86h-248v-159h-129zM248 411h99q56 0 86 28t30 72t-29.5 70.5t-84.5 26.5h-101v-197z" />
    <glyph glyph-name="yen" unicode="&#xa5;" horiz-adv-x="586" 
d="M64 186v77h163v33l-25 48h-138v76h99l-154 290h147l93 -190l43 -114h2q20 59 43 114l93 190h147l-154 -290h98v-76h-137l-26 -48v-33h163v-77h-163v-186h-131v186h-163z" />
    <glyph glyph-name="section" unicode="&#xa7;" horiz-adv-x="479" 
d="M143 138l-73 344q-7 27 -7 57q0 81 54.5 132t150.5 51q100 0 167 -62l-57 -81q-47 39 -109 39q-46 0 -74.5 -23t-28.5 -71q0 -23 7 -50l69 -336h-99zM44 -1l54 86q50 -44 113 -44q45 0 74 25.5t29 75.5q0 24 -9 57l-67 323h100l71 -344q7 -28 7 -57q0 -81 -54.5 -132
t-150.5 -51q-100 0 -167 61z" />
    <glyph glyph-name="dieresis" unicode="&#xa8;" horiz-adv-x="493" 
d="M290 777v116h97v-116h-97zM106 777v116h98v-116h-98z" />
    <glyph glyph-name="copyright" unicode="&#xa9;" horiz-adv-x="817" 
d="M50 355q0 152 104.5 259t252.5 107q151 0 255.5 -107t104.5 -259q0 -153 -105 -260t-255 -107q-148 0 -252.5 107.5t-104.5 259.5zM139 355q0 -120 77.5 -203t190.5 -83q115 0 193.5 83t78.5 203t-78.5 202.5t-193.5 82.5q-113 0 -190.5 -82.5t-77.5 -202.5zM225 353
q0 81 53.5 138t133.5 57q54 0 97.5 -28.5t65.5 -76.5l-77 -36q-10 24 -33 41t-50 17q-43 0 -70.5 -32.5t-27.5 -79.5q0 -49 26.5 -80.5t71.5 -31.5q27 0 49 16.5t34 41.5l77 -35q-18 -44 -62 -75t-101 -31q-81 0 -134 57t-53 138z" />
    <glyph glyph-name="ordfeminine" unicode="&#xaa;" horiz-adv-x="428" 
d="M175 383q-43 0 -75 26.5t-32 71.5q0 110 185 110h9v7q0 52 -58 52q-39 0 -82 -27l-32 59q50 38 128 38q65 0 99.5 -34.5t34.5 -95.5v-201h-84v44h-2q-11 -22 -35.5 -36t-55.5 -14zM198 453q27 0 45 22t18 50v7h-11q-92 0 -92 -45q0 -15 11 -24.5t29 -9.5zM69 266v68h286
v-68h-286z" />
    <glyph glyph-name="guillemotleft" unicode="&#xab;" horiz-adv-x="598" 
d="M265 282l164 206h121l-164 -206l164 -205h-121zM204 77l-164 205l164 206h121l-164 -206l164 -205h-121z" />
    <glyph glyph-name="logicalnot" unicode="&#xac;" horiz-adv-x="624" 
d="M62 339v98h489v-294h-103v196h-386z" />
    <glyph glyph-name="uni00AD" unicode="&#xad;" horiz-adv-x="432" 
d="M66 230v111h300v-111h-300z" />
    <glyph glyph-name="registered" unicode="&#xae;" horiz-adv-x="817" 
d="M50 355q0 152 104.5 259t252.5 107q151 0 255.5 -107t104.5 -259q0 -153 -105 -260t-255 -107q-148 0 -252.5 107.5t-104.5 259.5zM139 355q0 -120 77.5 -203t190.5 -83q115 0 193.5 83t78.5 203t-78.5 202.5t-193.5 82.5q-113 0 -190.5 -82.5t-77.5 -202.5zM282 174v366
h152q55 0 87.5 -31.5t32.5 -84.5q0 -39 -20.5 -64t-44.5 -31v-2q4 -4 13 -21l69 -132h-94l-61 135h-49v-135h-85zM367 369h47q25 0 39 14.5t14 40.5t-13.5 40t-37.5 14h-49v-109z" />
    <glyph glyph-name="macron" unicode="&#xaf;" horiz-adv-x="493" 
d="M116 783v87h262v-87h-262z" />
    <glyph glyph-name="degree" unicode="&#xb0;" horiz-adv-x="420" 
d="M210 408q-68 0 -115.5 45.5t-47.5 111.5q0 65 47.5 111.5t115.5 46.5q67 0 115.5 -46.5t48.5 -111.5q0 -66 -48 -111.5t-116 -45.5zM210 499q28 0 47.5 19t19.5 47q0 27 -19.5 46.5t-47.5 19.5t-47 -19.5t-19 -46.5q0 -28 19 -47t47 -19z" />
    <glyph glyph-name="plusminus" unicode="&#xb1;" horiz-adv-x="586" 
d="M25 236v99h217v237h103v-237h216v-99h-216v-236h-103v236h-217zM39 -85h508v-98h-508v98z" />
    <glyph glyph-name="twosuperior" unicode="&#xb2;" 
d="M43 423q-4 28 -4 41q0 41 15.5 74t38.5 53t49.5 39t49.5 32.5t38.5 31.5t15.5 38q0 23 -17.5 37.5t-43.5 14.5q-40 0 -80 -46l-62 55q22 35 62 57t85 22q63 0 107.5 -36.5t44.5 -99.5q0 -40 -19.5 -71.5t-48 -51t-57 -35.5t-50 -34t-23.5 -38h204v-83h-305z" />
    <glyph glyph-name="threesuperior" unicode="&#xb3;" 
d="M184 413q-43 0 -84.5 17.5t-67.5 49.5l49 67q16 -20 42.5 -33.5t55.5 -13.5q30 0 51 18t21 45t-23 42t-55 15h-35l-20 45l78 90l25 24v2q-20 -3 -36 -3h-129v84h280v-61l-98 -112q49 -9 79 -42t30 -85q0 -61 -45 -105t-118 -44z" />
    <glyph glyph-name="acute" unicode="&#xb4;" horiz-adv-x="493" 
d="M143 757l76 136h131l-105 -136h-102z" />
    <glyph glyph-name="mu" unicode="&#xb5;" horiz-adv-x="613" 
d="M180 9q8 -49 8 -83v-126h-110v710h127v-302q0 -51 17 -77.5t61 -26.5q67 0 105 50t38 122v234h127v-510h-122v62l2 32h-3l-5.5 -11.5t-18.5 -25.5t-33 -32t-50 -25.5t-69 -11.5q-47 0 -72 21h-2z" />
    <glyph glyph-name="mu" unicode="&#x3bc;" horiz-adv-x="613" 
d="M180 9q8 -49 8 -83v-126h-110v710h127v-302q0 -51 17 -77.5t61 -26.5q67 0 105 50t38 122v234h127v-510h-122v62l2 32h-3l-5.5 -11.5t-18.5 -25.5t-33 -32t-50 -25.5t-69 -11.5q-47 0 -72 21h-2z" />
    <glyph glyph-name="paragraph" unicode="&#xb6;" horiz-adv-x="626" 
d="M271 -50v291q-97 0 -166 68.5t-69 166.5t69 166t166 68h305v-111h-213v-649h-92zM425 -50v594h93v-594h-93z" />
    <glyph glyph-name="periodcentered" unicode="&#xb7;" horiz-adv-x="255" 
d="M66 228v128h123v-128h-123z" />
    <glyph glyph-name="cedilla" unicode="&#xb8;" horiz-adv-x="493" 
d="M180 -86l31 111l58 -13v-7l-11 -49q33 -4 53 -23t20 -53q0 -46 -31 -67t-77 -21q-33 0 -61 7v70q16 -8 43 -8q44 0 44 28q0 27 -48 27z" />
    <glyph glyph-name="onesuperior" unicode="&#xb9;" 
d="M66 423v83h92v207l2 28h-2q-4 -9 -15 -19l-31 -29l-56 60l113 109h84v-356h91v-83h-278z" />
    <glyph glyph-name="ordmasculine" unicode="&#xba;" horiz-adv-x="480" 
d="M240 384q-74 0 -125 48t-51 121q0 72 51 119.5t124 47.5q75 0 126 -47t51 -120t-51 -121t-125 -48zM240 464q35 0 59.5 25t24.5 64q0 38 -24.5 63t-59.5 25q-36 0 -60.5 -25t-24.5 -63q0 -39 24.5 -64t60.5 -25zM79 266v68h323v-68h-323z" />
    <glyph glyph-name="guillemotright" unicode="&#xbb;" horiz-adv-x="598" 
d="M272 77l164 205l-164 206h121l164 -206l-164 -205h-121zM48 77l164 205l-164 206h121l164 -206l-164 -205h-121z" />
    <glyph glyph-name="onequarter" unicode="&#xbc;" horiz-adv-x="977" 
d="M787 0v99h-203v64l189 276h108v-258h58v-82h-58v-99h-94zM680 181h107v110l4 55h-2q-12 -27 -26 -47l-83 -116v-2zM359 0h-93l336 710h92zM57 272v83h92v207l2 28h-2q-4 -9 -15 -19l-31 -29l-56 60l113 109h84v-356h91v-83h-278z" />
    <glyph glyph-name="onehalf" unicode="&#xbd;" horiz-adv-x="967" 
d="M617 0q-4 28 -4 41q0 41 15.5 74t38.5 53t49.5 39t49.5 32.5t38.5 31.5t15.5 38q0 23 -17.5 37.5t-43.5 14.5q-40 0 -80 -46l-62 55q22 35 62 57t85 22q63 0 107.5 -36.5t44.5 -99.5q0 -40 -19.5 -71.5t-48 -51t-57 -35.5t-50 -34t-23.5 -38h204v-83h-305zM360 0h-93
l336 710h92zM56 272v83h92v207l2 28h-2q-4 -9 -15 -19l-31 -29l-56 60l113 109h84v-356h91v-83h-278z" />
    <glyph glyph-name="threequarters" unicode="&#xbe;" horiz-adv-x="990" 
d="M798 0v99h-203v64l189 276h108v-258h58v-82h-58v-99h-94zM691 181h107v110l4 55h-2q-12 -27 -26 -47l-83 -116v-2zM191 262q-43 0 -84.5 17.5t-67.5 49.5l49 67q16 -20 42.5 -33.5t55.5 -13.5q30 0 51 18t21 45t-23 42t-55 15h-35l-20 45l78 90l25 24v2q-20 -3 -36 -3
h-129v84h280v-61l-98 -112q49 -9 79 -42t30 -85q0 -61 -45 -105t-118 -44zM370 0h-93l336 710h92z" />
    <glyph glyph-name="questiondown" unicode="&#xbf;" horiz-adv-x="475" 
d="M333 304v-48q0 -40 -17 -73t-41 -55l-48 -42.5t-41 -46t-17 -54.5q0 -35 28 -59t69 -24q55 0 106 42l71 -87q-76 -72 -188 -72q-89 0 -154 51.5t-65 136.5q0 46 18 83t43.5 61t51.5 45.5t44 47.5t18 55v39h122zM334 509v-119h-123v119h123z" />
    <glyph glyph-name="Agrave" unicode="&#xc0;" horiz-adv-x="650" 
d="M8 0l249 710h136l249 -710h-132l-61 182h-249l-60 -182h-132zM232 287h185l-63 190l-28 110h-2q-16 -70 -28 -110zM276 757l-104 136h131l76 -136h-103z" />
    <glyph glyph-name="Aacute" unicode="&#xc1;" horiz-adv-x="650" 
d="M8 0l249 710h136l249 -710h-132l-61 182h-249l-60 -182h-132zM232 287h185l-63 190l-28 110h-2q-16 -70 -28 -110zM270 757l76 136h131l-105 -136h-102z" />
    <glyph glyph-name="Acircumflex" unicode="&#xc2;" horiz-adv-x="650" 
d="M8 0l249 710h136l249 -710h-132l-61 182h-249l-60 -182h-132zM232 287h185l-63 190l-28 110h-2q-16 -70 -28 -110zM169 757l92 136h127l93 -136h-105l-50 81h-2l-50 -81h-105z" />
    <glyph glyph-name="Atilde" unicode="&#xc3;" horiz-adv-x="650" 
d="M8 0l249 710h136l249 -710h-132l-61 182h-249l-60 -182h-132zM232 287h185l-63 190l-28 110h-2q-16 -70 -28 -110zM143 758q0 137 112 137q29 0 51.5 -16.5t40.5 -32.5t34 -16q39 0 39 62h86q0 -137 -112 -137q-29 0 -51.5 16.5t-40.5 32.5t-34 16q-38 0 -38 -62h-87z
" />
    <glyph glyph-name="Adieresis" unicode="&#xc4;" horiz-adv-x="650" 
d="M8 0l249 710h136l249 -710h-132l-61 182h-249l-60 -182h-132zM232 287h185l-63 190l-28 110h-2q-16 -70 -28 -110zM368 777v116h97v-116h-97zM184 777v116h98v-116h-98z" />
    <glyph glyph-name="Aring" unicode="&#xc5;" horiz-adv-x="650" 
d="M8 0l249 710h136l249 -710h-132l-61 182h-249l-60 -182h-132zM232 287h185l-63 190l-28 110h-2q-16 -70 -28 -110zM325 745q-39 0 -67 21t-28 57q0 37 28 58t67 21q38 0 66 -21t28 -58q0 -36 -28 -57t-66 -21zM325 789q15 0 24.5 9.5t9.5 24.5q0 16 -9.5 25.5t-24.5 9.5
t-24.5 -9.5t-9.5 -25.5q0 -15 9 -24.5t25 -9.5z" />
    <glyph glyph-name="AE" unicode="&#xc6;" horiz-adv-x="905" 
d="M2 0l294 710h554v-111h-297v-186h239v-111h-239v-191h312v-111h-440v304h-170l-119 -304h-134zM296 409h129v190h-53z" />
    <glyph glyph-name="Ccedilla" unicode="&#xc7;" horiz-adv-x="716" 
d="M345 -86l21 76q-146 15 -233.5 117.5t-87.5 250.5q0 156 103 260t262 104q162 0 262 -97l-62 -96q-39 33 -91.5 54t-102.5 21q-112 0 -175 -70t-63 -174q0 -105 64 -179.5t175 -74.5q114 0 206 90l68 -93q-106 -107 -261 -114l-7 -33q33 -4 53 -23t20 -53q0 -46 -31 -67
t-77 -21q-33 0 -61 7v70q16 -8 43 -8q44 0 44 28q0 27 -48 27z" />
    <glyph glyph-name="Egrave" unicode="&#xc8;" horiz-adv-x="568" 
d="M86 0v710h425v-111h-296v-186h239v-111h-239v-191h312v-111h-441zM260 757l-104 136h131l76 -136h-103z" />
    <glyph glyph-name="Eacute" unicode="&#xc9;" horiz-adv-x="568" 
d="M253 757l76 136h131l-105 -136h-102zM86 0v710h425v-111h-296v-186h239v-111h-239v-191h312v-111h-441z" />
    <glyph glyph-name="Ecircumflex" unicode="&#xca;" horiz-adv-x="568" 
d="M152 757l92 136h127l93 -136h-105l-50 81h-2l-50 -81h-105zM86 0v710h425v-111h-296v-186h239v-111h-239v-191h312v-111h-441z" />
    <glyph glyph-name="Edieresis" unicode="&#xcb;" horiz-adv-x="568" 
d="M352 777v116h97v-116h-97zM168 777v116h98v-116h-98zM86 0v710h425v-111h-296v-186h239v-111h-239v-191h312v-111h-441z" />
    <glyph glyph-name="Igrave" unicode="&#xcc;" horiz-adv-x="301" 
d="M86 0v710h129v-710h-129zM103 757l-104 136h131l76 -136h-103z" />
    <glyph glyph-name="Iacute" unicode="&#xcd;" horiz-adv-x="301" 
d="M86 0v710h129v-710h-129zM97 757l76 136h131l-105 -136h-102z" />
    <glyph glyph-name="Icircumflex" unicode="&#xce;" horiz-adv-x="301" 
d="M86 0v710h129v-710h-129zM-4 757l92 136h127l93 -136h-105l-50 81h-2l-50 -81h-105z" />
    <glyph glyph-name="Idieresis" unicode="&#xcf;" horiz-adv-x="301" 
d="M86 0v710h129v-710h-129zM195 777v116h97v-116h-97zM11 777v116h98v-116h-98z" />
    <glyph glyph-name="Eth" unicode="&#xd0;" horiz-adv-x="743" 
d="M92 0v301h-58v105h58v304h242q166 0 264 -94t98 -260t-98 -261t-264 -95h-242zM220 111h107q110 0 173 63.5t63 181.5q0 116 -63.5 179.5t-172.5 63.5h-107v-193h132v-105h-132v-190z" />
    <glyph glyph-name="Ntilde" unicode="&#xd1;" horiz-adv-x="753" 
d="M86 0v710h129l269 -410q12 -19 26.5 -46.5l23.5 -45.5l9 -18h2q-7 68 -7 110v410h128v-710h-128l-269 409q-12 19 -26.5 46.5l-23.5 45.5l-9 18h-2q7 -68 7 -110v-409h-129zM195 758q0 137 112 137q29 0 51.5 -16.5t40.5 -32.5t34 -16q39 0 39 62h86q0 -137 -112 -137
q-29 0 -51.5 16.5t-40.5 32.5t-34 16q-38 0 -38 -62h-87z" />
    <glyph glyph-name="Ograve" unicode="&#xd2;" horiz-adv-x="822" 
d="M44 360q0 154 103.5 258t263.5 104t263.5 -104t103.5 -258q0 -158 -103.5 -265t-263.5 -107t-263.5 107t-103.5 265zM177 360q0 -109 66.5 -181.5t167.5 -72.5t167.5 72.5t66.5 181.5q0 104 -66.5 174t-167.5 70t-167.5 -70t-66.5 -174zM362 757l-104 136h131l76 -136
h-103z" />
    <glyph glyph-name="Oacute" unicode="&#xd3;" horiz-adv-x="822" 
d="M356 757l76 136h131l-105 -136h-102zM44 360q0 154 103.5 258t263.5 104t263.5 -104t103.5 -258q0 -158 -103.5 -265t-263.5 -107t-263.5 107t-103.5 265zM177 360q0 -109 66.5 -181.5t167.5 -72.5t167.5 72.5t66.5 181.5q0 104 -66.5 174t-167.5 70t-167.5 -70
t-66.5 -174z" />
    <glyph glyph-name="Ocircumflex" unicode="&#xd4;" horiz-adv-x="822" 
d="M255 757l92 136h127l93 -136h-105l-50 81h-2l-50 -81h-105zM44 360q0 154 103.5 258t263.5 104t263.5 -104t103.5 -258q0 -158 -103.5 -265t-263.5 -107t-263.5 107t-103.5 265zM177 360q0 -109 66.5 -181.5t167.5 -72.5t167.5 72.5t66.5 181.5q0 104 -66.5 174
t-167.5 70t-167.5 -70t-66.5 -174z" />
    <glyph glyph-name="Otilde" unicode="&#xd5;" horiz-adv-x="822" 
d="M44 360q0 154 103.5 258t263.5 104t263.5 -104t103.5 -258q0 -158 -103.5 -265t-263.5 -107t-263.5 107t-103.5 265zM177 360q0 -109 66.5 -181.5t167.5 -72.5t167.5 72.5t66.5 181.5q0 104 -66.5 174t-167.5 70t-167.5 -70t-66.5 -174zM229 758q0 137 112 137
q29 0 51.5 -16.5t40.5 -32.5t34 -16q39 0 39 62h86q0 -137 -112 -137q-29 0 -51.5 16.5t-40.5 32.5t-34 16q-38 0 -38 -62h-87z" />
    <glyph glyph-name="Odieresis" unicode="&#xd6;" horiz-adv-x="822" 
d="M454 777v116h97v-116h-97zM270 777v116h98v-116h-98zM44 360q0 154 103.5 258t263.5 104t263.5 -104t103.5 -258q0 -158 -103.5 -265t-263.5 -107t-263.5 107t-103.5 265zM177 360q0 -109 66.5 -181.5t167.5 -72.5t167.5 72.5t66.5 181.5q0 104 -66.5 174t-167.5 70
t-167.5 -70t-66.5 -174z" />
    <glyph glyph-name="multiply" unicode="&#xd7;" horiz-adv-x="586" 
d="M28 69l197 217l-197 216l70 70l194 -213l195 213l70 -70l-198 -216l198 -217l-70 -69l-195 213l-194 -213z" />
    <glyph glyph-name="Oslash" unicode="&#xd8;" horiz-adv-x="821" 
d="M116 13l48 68q-120 109 -120 278q0 153 105.5 258t261.5 105q98 0 182 -46l44 60l57 -39l-43 -60q60 -51 93.5 -122.5t33.5 -155.5q0 -157 -105.5 -264t-261.5 -107q-105 0 -191 52l-47 -66zM240 186l280 389q-52 29 -109 29q-98 0 -166 -70t-68 -175q0 -102 63 -173z
M292 140q54 -34 119 -34q98 0 166 72.5t68 180.5q0 105 -69 174z" />
    <glyph glyph-name="Ugrave" unicode="&#xd9;" horiz-adv-x="728" 
d="M78 255v455h129v-454q0 -71 42.5 -110.5t114.5 -39.5t114.5 39.5t42.5 110.5v454h129v-455q0 -119 -78.5 -193t-206.5 -74q-129 0 -208 74t-79 193zM315 757l-104 136h131l76 -136h-103z" />
    <glyph glyph-name="Uacute" unicode="&#xda;" horiz-adv-x="728" 
d="M309 757l76 136h131l-105 -136h-102zM78 255v455h129v-454q0 -71 42.5 -110.5t114.5 -39.5t114.5 39.5t42.5 110.5v454h129v-455q0 -119 -78.5 -193t-206.5 -74q-129 0 -208 74t-79 193z" />
    <glyph glyph-name="Ucircumflex" unicode="&#xdb;" horiz-adv-x="728" 
d="M208 757l92 136h127l93 -136h-105l-50 81h-2l-50 -81h-105zM78 255v455h129v-454q0 -71 42.5 -110.5t114.5 -39.5t114.5 39.5t42.5 110.5v454h129v-455q0 -119 -78.5 -193t-206.5 -74q-129 0 -208 74t-79 193z" />
    <glyph glyph-name="Udieresis" unicode="&#xdc;" horiz-adv-x="728" 
d="M407 777v116h97v-116h-97zM223 777v116h98v-116h-98zM78 255v455h129v-454q0 -71 42.5 -110.5t114.5 -39.5t114.5 39.5t42.5 110.5v454h129v-455q0 -119 -78.5 -193t-206.5 -74q-129 0 -208 74t-79 193z" />
    <glyph glyph-name="Yacute" unicode="&#xdd;" horiz-adv-x="606" 
d="M239 0v297l-237 413h146l111 -209l43 -95h2q21 51 43 95l110 209h146l-236 -413v-297h-128zM248 757l76 136h131l-105 -136h-102z" />
    <glyph glyph-name="Thorn" unicode="&#xde;" horiz-adv-x="616" 
d="M86 0v710h129v-115h145q100 0 163 -64t63 -167t-63 -168t-164 -65h-144v-131h-129zM215 242h121q56 0 87.5 33t31.5 89t-31 88t-86 32h-123v-242z" />
    <glyph glyph-name="germandbls" unicode="&#xdf;" horiz-adv-x="602" 
d="M68 0v529q0 90 69 141.5t163 51.5q87 0 146.5 -49.5t59.5 -124.5q0 -31 -14 -58t-30.5 -42.5t-30.5 -36t-14 -39.5t25 -41t55.5 -42t55.5 -56t25 -79q0 -77 -52 -119t-128 -42q-83 0 -135 26v108q55 -26 116 -26q31 0 51 14.5t20 45.5q0 22 -25.5 45.5t-55.5 42.5
t-55.5 51t-25.5 69q0 26 14 51.5t31 42t31 39t14 44.5q0 28 -22 48t-60 20q-43 0 -72 -23.5t-29 -70.5v-520h-127z" />
    <glyph glyph-name="agrave" unicode="&#xe0;" horiz-adv-x="537" 
d="M29 141q0 54 29.5 92t78 55.5t94 24.5t95.5 7h22v7q0 90 -96 90q-70 0 -142 -49l-47 91q33 26 89 44.5t111 18.5q100 0 156 -53.5t56 -149.5v-319h-118v43l3 37h-2q-24 -41 -67 -66.5t-94 -25.5q-71 0 -119.5 42.5t-48.5 110.5zM155 152q0 -27 20.5 -47t56.5 -20
q51 0 84 42t33 92v14h-22q-172 0 -172 -81zM219 574l-104 136h131l76 -136h-103z" />
    <glyph glyph-name="aacute" unicode="&#xe1;" horiz-adv-x="537" 
d="M29 141q0 54 29.5 92t78 55.5t94 24.5t95.5 7h22v7q0 90 -96 90q-70 0 -142 -49l-47 91q33 26 89 44.5t111 18.5q100 0 156 -53.5t56 -149.5v-319h-118v43l3 37h-2q-24 -41 -67 -66.5t-94 -25.5q-71 0 -119.5 42.5t-48.5 110.5zM155 152q0 -27 20.5 -47t56.5 -20
q51 0 84 42t33 92v14h-22q-172 0 -172 -81zM211 574l76 136h131l-105 -136h-102z" />
    <glyph glyph-name="acircumflex" unicode="&#xe2;" horiz-adv-x="537" 
d="M29 141q0 54 29.5 92t78 55.5t94 24.5t95.5 7h22v7q0 90 -96 90q-70 0 -142 -49l-47 91q33 26 89 44.5t111 18.5q100 0 156 -53.5t56 -149.5v-319h-118v43l3 37h-2q-24 -41 -67 -66.5t-94 -25.5q-71 0 -119.5 42.5t-48.5 110.5zM155 152q0 -27 20.5 -47t56.5 -20
q51 0 84 42t33 92v14h-22q-172 0 -172 -81zM110 574l92 136h127l93 -136h-105l-50 81h-2l-50 -81h-105z" />
    <glyph glyph-name="atilde" unicode="&#xe3;" horiz-adv-x="537" 
d="M29 141q0 54 29.5 92t78 55.5t94 24.5t95.5 7h22v7q0 90 -96 90q-70 0 -142 -49l-47 91q33 26 89 44.5t111 18.5q100 0 156 -53.5t56 -149.5v-319h-118v43l3 37h-2q-24 -41 -67 -66.5t-94 -25.5q-71 0 -119.5 42.5t-48.5 110.5zM155 152q0 -27 20.5 -47t56.5 -20
q51 0 84 42t33 92v14h-22q-172 0 -172 -81zM85 575q0 137 112 137q23 0 42.5 -10t30.5 -22.5t25.5 -22.5t27.5 -10q39 0 39 62h86q0 -137 -112 -137q-23 0 -42.5 10t-30.5 22.5t-25.5 22.5t-27.5 10q-38 0 -38 -62h-87z" />
    <glyph glyph-name="adieresis" unicode="&#xe4;" horiz-adv-x="537" 
d="M29 141q0 54 29.5 92t78 55.5t94 24.5t95.5 7h22v7q0 90 -96 90q-70 0 -142 -49l-47 91q33 26 89 44.5t111 18.5q100 0 156 -53.5t56 -149.5v-319h-118v43l3 37h-2q-24 -41 -67 -66.5t-94 -25.5q-71 0 -119.5 42.5t-48.5 110.5zM155 152q0 -27 20.5 -47t56.5 -20
q51 0 84 42t33 92v14h-22q-172 0 -172 -81zM310 594v116h97v-116h-97zM126 594v116h98v-116h-98z" />
    <glyph glyph-name="aring" unicode="&#xe5;" horiz-adv-x="537" 
d="M29 141q0 54 29.5 92t78 55.5t94 24.5t95.5 7h22v7q0 90 -96 90q-70 0 -142 -49l-47 91q33 26 89 44.5t111 18.5q100 0 156 -53.5t56 -149.5v-319h-118v43l3 37h-2q-24 -41 -67 -66.5t-94 -25.5q-71 0 -119.5 42.5t-48.5 110.5zM155 152q0 -27 20.5 -47t56.5 -20
q51 0 84 42t33 92v14h-22q-172 0 -172 -81zM266 562q-39 0 -67 21t-28 57q0 37 28 58t67 21q38 0 66 -21t28 -58q0 -36 -28 -57t-66 -21zM266 606q15 0 24.5 9.5t9.5 24.5q0 16 -9.5 25.5t-24.5 9.5t-24.5 -9.5t-9.5 -25.5q0 -15 9 -24.5t25 -9.5z" />
    <glyph glyph-name="ae" unicode="&#xe6;" horiz-adv-x="859" 
d="M29 147q0 173 302 173h17v7q0 90 -99 90q-70 0 -140 -49l-47 90q33 28 87.5 46t108.5 18q119 0 166 -75h2q61 75 170 75q104 0 164.5 -69t60.5 -174q0 -9 -1.5 -26t-1.5 -21h-349q6 -66 47.5 -101t102.5 -35q80 0 147 55l49 -90q-36 -33 -93 -53t-112 -20
q-146 0 -213 112h-2q-6 -13 -17.5 -28t-34 -35.5t-59.5 -34t-81 -13.5q-73 0 -123.5 43t-50.5 115zM473 320h220q-1 47 -29.5 75t-68.5 28q-49 0 -80.5 -27t-41.5 -76zM157 153q0 -28 20 -47t58 -19q49 0 82 42.5t33 92.5v10h-36q-40 0 -72 -5.5t-58.5 -24.5t-26.5 -49z" />
    <glyph glyph-name="ccedilla" unicode="&#xe7;" horiz-adv-x="548" 
d="M245 -86l21 78q-104 14 -166.5 87.5t-62.5 175.5q0 112 76.5 189.5t200.5 77.5q55 0 108 -19t88 -57l-57 -87q-55 55 -132 55q-69 0 -112 -45.5t-43 -112.5t44 -113.5t115 -46.5q83 0 150 65l49 -90q-34 -36 -85.5 -57.5t-108.5 -24.5l-7 -33q33 -4 53 -23t20 -53
q0 -46 -31 -67t-77 -21q-33 0 -61 7v70q16 -8 43 -8q44 0 44 28q0 27 -48 27z" />
    <glyph glyph-name="egrave" unicode="&#xe8;" horiz-adv-x="561" 
d="M37 255q0 118 72.5 192.5t187.5 74.5q106 0 166 -68.5t60 -173.5q0 -17 -4 -49h-351q6 -64 49 -99.5t104 -35.5q76 0 146 56l50 -91q-38 -34 -93.5 -53.5t-111.5 -19.5q-123 0 -199 77.5t-76 189.5zM171 318h225q-1 50 -29.5 79t-72.5 29q-48 0 -81 -29.5t-42 -78.5z
M247 574l-104 136h131l76 -136h-103z" />
    <glyph glyph-name="eacute" unicode="&#xe9;" horiz-adv-x="561" 
d="M239 574l76 136h131l-105 -136h-102zM37 255q0 118 72.5 192.5t187.5 74.5q106 0 166 -68.5t60 -173.5q0 -17 -4 -49h-351q6 -64 49 -99.5t104 -35.5q76 0 146 56l50 -91q-38 -34 -93.5 -53.5t-111.5 -19.5q-123 0 -199 77.5t-76 189.5zM171 318h225q-1 50 -29.5 79
t-72.5 29q-48 0 -81 -29.5t-42 -78.5z" />
    <glyph glyph-name="ecircumflex" unicode="&#xea;" horiz-adv-x="561" 
d="M138 574l92 136h127l93 -136h-105l-50 81h-2l-50 -81h-105zM37 255q0 118 72.5 192.5t187.5 74.5q106 0 166 -68.5t60 -173.5q0 -17 -4 -49h-351q6 -64 49 -99.5t104 -35.5q76 0 146 56l50 -91q-38 -34 -93.5 -53.5t-111.5 -19.5q-123 0 -199 77.5t-76 189.5zM171 318
h225q-1 50 -29.5 79t-72.5 29q-48 0 -81 -29.5t-42 -78.5z" />
    <glyph glyph-name="edieresis" unicode="&#xeb;" horiz-adv-x="561" 
d="M338 594v116h97v-116h-97zM154 594v116h98v-116h-98zM37 255q0 118 72.5 192.5t187.5 74.5q106 0 166 -68.5t60 -173.5q0 -17 -4 -49h-351q6 -64 49 -99.5t104 -35.5q76 0 146 56l50 -91q-38 -34 -93.5 -53.5t-111.5 -19.5q-123 0 -199 77.5t-76 189.5zM171 318h225
q-1 50 -29.5 79t-72.5 29q-48 0 -81 -29.5t-42 -78.5z" />
    <glyph glyph-name="igrave" unicode="&#xec;" horiz-adv-x="263" 
d="M68 0v510h127v-510h-127zM84 574l-104 136h131l76 -136h-103z" />
    <glyph glyph-name="iacute" unicode="&#xed;" horiz-adv-x="263" 
d="M77 574l76 136h131l-105 -136h-102zM68 0v510h127v-510h-127z" />
    <glyph glyph-name="icircumflex" unicode="&#xee;" horiz-adv-x="263" 
d="M-24 574l92 136h127l93 -136h-105l-50 81h-2l-50 -81h-105zM68 0v510h127v-510h-127z" />
    <glyph glyph-name="idieresis" unicode="&#xef;" horiz-adv-x="263" 
d="M176 594v116h97v-116h-97zM-8 594v116h98v-116h-98zM68 0v510h127v-510h-127z" />
    <glyph glyph-name="eth" unicode="&#xf0;" horiz-adv-x="583" 
d="M38 237q0 94 63.5 161t171.5 67q28 0 53.5 -7.5t37.5 -14.5l11 -7h2q-27 63 -94 106l-185 -80l-6 75l111 49q-49 24 -115 40l35 100q124 -27 217 -83l147 63l6 -74l-88 -39q137 -120 137 -315q0 -54 -14.5 -103.5t-44 -92.5t-81.5 -68.5t-120 -25.5q-111 0 -177.5 74
t-66.5 175zM167 234q0 -57 30.5 -98t87.5 -41q64 0 96.5 48t32.5 112q0 49 -32 80t-86 31q-62 0 -95.5 -38.5t-33.5 -93.5z" />
    <glyph glyph-name="ntilde" unicode="&#xf1;" horiz-adv-x="612" 
d="M68 0v510h122v-60l-2 -36h2q20 41 66 74.5t115 33.5q178 0 178 -194v-328h-127v302q0 51 -17.5 77.5t-62.5 26.5q-66 0 -106.5 -48t-40.5 -119v-239h-127zM133 575q0 137 112 137q23 0 42.5 -10t30.5 -22.5t25.5 -22.5t27.5 -10q39 0 39 62h86q0 -137 -112 -137
q-23 0 -42.5 10t-30.5 22.5t-25.5 22.5t-27.5 10q-38 0 -38 -62h-87z" />
    <glyph glyph-name="ograve" unicode="&#xf2;" horiz-adv-x="634" 
d="M37 255q0 116 81 191.5t198 75.5q118 0 199.5 -75.5t81.5 -191.5t-81 -191.5t-199 -75.5t-199 75.5t-81 191.5zM166 255q0 -70 43.5 -114.5t107.5 -44.5t108 44.5t44 114.5q0 69 -44.5 114t-107.5 45t-107 -45t-44 -114zM268 574l-104 136h131l76 -136h-103z" />
    <glyph glyph-name="oacute" unicode="&#xf3;" horiz-adv-x="634" 
d="M262 574l76 136h131l-105 -136h-102zM37 255q0 116 81 191.5t198 75.5q118 0 199.5 -75.5t81.5 -191.5t-81 -191.5t-199 -75.5t-199 75.5t-81 191.5zM166 255q0 -70 43.5 -114.5t107.5 -44.5t108 44.5t44 114.5q0 69 -44.5 114t-107.5 45t-107 -45t-44 -114z" />
    <glyph glyph-name="ocircumflex" unicode="&#xf4;" horiz-adv-x="634" 
d="M161 574l92 136h127l93 -136h-105l-50 81h-2l-50 -81h-105zM37 255q0 116 81 191.5t198 75.5q118 0 199.5 -75.5t81.5 -191.5t-81 -191.5t-199 -75.5t-199 75.5t-81 191.5zM166 255q0 -70 43.5 -114.5t107.5 -44.5t108 44.5t44 114.5q0 69 -44.5 114t-107.5 45t-107 -45
t-44 -114z" />
    <glyph glyph-name="otilde" unicode="&#xf5;" horiz-adv-x="634" 
d="M37 255q0 116 81 191.5t198 75.5q118 0 199.5 -75.5t81.5 -191.5t-81 -191.5t-199 -75.5t-199 75.5t-81 191.5zM166 255q0 -70 43.5 -114.5t107.5 -44.5t108 44.5t44 114.5q0 69 -44.5 114t-107.5 45t-107 -45t-44 -114zM135 575q0 137 112 137q23 0 42.5 -10t30.5 -22.5
t25.5 -22.5t27.5 -10q39 0 39 62h86q0 -137 -112 -137q-23 0 -42.5 10t-30.5 22.5t-25.5 22.5t-27.5 10q-38 0 -38 -62h-87z" />
    <glyph glyph-name="odieresis" unicode="&#xf6;" horiz-adv-x="634" 
d="M360 594v116h97v-116h-97zM176 594v116h98v-116h-98zM37 255q0 116 81 191.5t198 75.5q118 0 199.5 -75.5t81.5 -191.5t-81 -191.5t-199 -75.5t-199 75.5t-81 191.5zM166 255q0 -70 43.5 -114.5t107.5 -44.5t108 44.5t44 114.5q0 69 -44.5 114t-107.5 45t-107 -45
t-44 -114z" />
    <glyph glyph-name="divide" unicode="&#xf7;" horiz-adv-x="586" 
d="M235 437v108h115v-108h-115zM32 236v99h522v-99h-522zM235 27v108h115v-108h-115z" />
    <glyph glyph-name="oslash" unicode="&#xf8;" horiz-adv-x="635" 
d="M95 -4l38 54q-96 76 -96 205q0 116 81 191.5t199 75.5q71 0 133 -31l41 56l55 -38l-40 -54q92 -77 92 -200q0 -116 -81 -191.5t-200 -75.5q-69 0 -126 27l-41 -58zM204 149l180 249q-32 16 -67 16q-63 0 -107 -45t-44 -114q0 -63 38 -106zM258 108q27 -12 59 -12
q64 0 108 44.5t44 114.5q0 57 -34 99z" />
    <glyph glyph-name="ugrave" unicode="&#xf9;" horiz-adv-x="607" 
d="M63 182v328h127v-302q0 -51 17.5 -77.5t61.5 -26.5q66 0 104.5 50t38.5 122v234h126v-510h-122v60l3 35h-2q-20 -43 -68 -75t-109 -32q-177 0 -177 194zM252 574l-104 136h131l76 -136h-103z" />
    <glyph glyph-name="uacute" unicode="&#xfa;" horiz-adv-x="607" 
d="M245 574l76 136h131l-105 -136h-102zM63 182v328h127v-302q0 -51 17.5 -77.5t61.5 -26.5q66 0 104.5 50t38.5 122v234h126v-510h-122v60l3 35h-2q-20 -43 -68 -75t-109 -32q-177 0 -177 194z" />
    <glyph glyph-name="ucircumflex" unicode="&#xfb;" horiz-adv-x="607" 
d="M144 574l92 136h127l93 -136h-105l-50 81h-2l-50 -81h-105zM63 182v328h127v-302q0 -51 17.5 -77.5t61.5 -26.5q66 0 104.5 50t38.5 122v234h126v-510h-122v60l3 35h-2q-20 -43 -68 -75t-109 -32q-177 0 -177 194z" />
    <glyph glyph-name="udieresis" unicode="&#xfc;" horiz-adv-x="607" 
d="M344 594v116h97v-116h-97zM160 594v116h98v-116h-98zM63 182v328h127v-302q0 -51 17.5 -77.5t61.5 -26.5q66 0 104.5 50t38.5 122v234h126v-510h-122v60l3 35h-2q-20 -43 -68 -75t-109 -32q-177 0 -177 194z" />
    <glyph glyph-name="yacute" unicode="&#xfd;" horiz-adv-x="545" 
d="M55 -82q28 -21 56 -21q61 0 89 66l19 45l-215 502h143l107 -294l19 -69h2q9 40 17 67l100 296h138l-227 -587q-25 -67 -74.5 -100t-109.5 -33q-27 0 -53.5 8t-39.5 16l-13 9zM219 573l76 136h131l-105 -136h-102z" />
    <glyph glyph-name="thorn" unicode="&#xfe;" horiz-adv-x="612" 
d="M68 -200v910h127v-218l-2 -42h2q50 72 150 72q103 0 166 -75.5t63 -191.5t-64.5 -191.5t-166.5 -75.5q-44 0 -84.5 17.5t-63.5 51.5h-2q2 -18 2 -44v-213h-127zM191 254q0 -74 35 -116.5t94 -42.5q55 0 90.5 45t35.5 115t-34.5 114.5t-89.5 44.5q-58 0 -94.5 -39
t-36.5 -121z" />
    <glyph glyph-name="ydieresis" unicode="&#xff;" horiz-adv-x="545" 
d="M55 -82q28 -21 56 -21q61 0 89 66l19 45l-215 502h143l107 -294l19 -69h2q9 40 17 67l100 296h138l-227 -587q-25 -67 -74.5 -100t-109.5 -33q-27 0 -53.5 8t-39.5 16l-13 9zM317 593v116h97v-116h-97zM133 593v116h98v-116h-98z" />
    <glyph glyph-name="Amacron" unicode="&#x100;" horiz-adv-x="650" 
d="M8 0l249 710h136l249 -710h-132l-61 182h-249l-60 -182h-132zM232 287h185l-63 190l-28 110h-2q-16 -70 -28 -110zM194 783v87h262v-87h-262z" />
    <glyph glyph-name="amacron" unicode="&#x101;" horiz-adv-x="537" 
d="M29 141q0 54 29.5 92t78 55.5t94 24.5t95.5 7h22v7q0 90 -96 90q-70 0 -142 -49l-47 91q33 26 89 44.5t111 18.5q100 0 156 -53.5t56 -149.5v-319h-118v43l3 37h-2q-24 -41 -67 -66.5t-94 -25.5q-71 0 -119.5 42.5t-48.5 110.5zM155 152q0 -27 20.5 -47t56.5 -20
q51 0 84 42t33 92v14h-22q-172 0 -172 -81zM136 600v87h262v-87h-262z" />
    <glyph glyph-name="Abreve" unicode="&#x102;" horiz-adv-x="650" 
d="M8 0l249 710h136l249 -710h-132l-61 182h-249l-60 -182h-132zM232 287h185l-63 190l-28 110h-2q-16 -70 -28 -110zM325 753q-63 0 -106 34t-43 94v12h90v-12q0 -29 17 -44t42 -15q23 0 40.5 15.5t17.5 44.5v11h90v-12q0 -60 -43 -94t-105 -34z" />
    <glyph glyph-name="abreve" unicode="&#x103;" horiz-adv-x="537" 
d="M29 141q0 54 29.5 92t78 55.5t94 24.5t95.5 7h22v7q0 90 -96 90q-70 0 -142 -49l-47 91q33 26 89 44.5t111 18.5q100 0 156 -53.5t56 -149.5v-319h-118v43l3 37h-2q-24 -41 -67 -66.5t-94 -25.5q-71 0 -119.5 42.5t-48.5 110.5zM155 152q0 -27 20.5 -47t56.5 -20
q51 0 84 42t33 92v14h-22q-172 0 -172 -81zM266 570q-63 0 -106 34t-43 94v12h90v-12q0 -29 17 -44t42 -15q23 0 40.5 15.5t17.5 44.5v11h90v-12q0 -60 -43 -94t-105 -34z" />
    <glyph glyph-name="Aogonek" unicode="&#x104;" horiz-adv-x="650" 
d="M8 0l249 710h136l249 -710q-56 -47 -56 -78q0 -14 12 -23t24 -11l13 -2l-31 -94q-5 0 -13 1.5t-29 8t-37.5 16t-29.5 28t-13 42.5q0 60 65 112h-37l-61 182h-249l-60 -182h-132zM232 287h185l-63 190l-28 110h-2q-16 -70 -28 -110z" />
    <glyph glyph-name="aogonek" unicode="&#x105;" horiz-adv-x="537" 
d="M29 141q0 54 29.5 92t78 55.5t94 24.5t95.5 7h22v7q0 90 -96 90q-70 0 -142 -49l-47 91q33 26 89 44.5t111 18.5q100 0 156 -53.5t56 -149.5v-319q-57 -46 -57 -78q0 -14 12 -23t24 -11l13 -2l-30 -94q-5 0 -13.5 1.5t-29.5 8t-37 16t-29.5 28t-13.5 42.5q0 59 67 112
h-24v43l3 37h-2q-24 -41 -67 -66.5t-94 -25.5q-71 0 -119.5 42.5t-48.5 110.5zM155 152q0 -27 20.5 -47t56.5 -20q51 0 84 42t33 92v14h-22q-172 0 -172 -81z" />
    <glyph glyph-name="Cacute" unicode="&#x106;" horiz-adv-x="716" 
d="M347 757l76 136h131l-105 -136h-102zM45 358q0 156 103 260t262 104q162 0 262 -97l-62 -96q-39 33 -91.5 54t-102.5 21q-112 0 -175 -70t-63 -174q0 -105 64 -179.5t175 -74.5q114 0 206 90l68 -93q-113 -115 -279 -115q-165 0 -266 105t-101 265z" />
    <glyph glyph-name="cacute" unicode="&#x107;" horiz-adv-x="548" 
d="M239 574l76 136h131l-105 -136h-102zM37 255q0 112 76.5 189.5t200.5 77.5q55 0 108 -19t88 -57l-57 -87q-55 55 -132 55q-69 0 -112 -45.5t-43 -112.5t44 -113.5t115 -46.5q83 0 150 65l49 -90q-36 -38 -92.5 -60.5t-117.5 -22.5q-124 0 -200.5 76.5t-76.5 190.5z" />
    <glyph glyph-name="Ccircumflex" unicode="&#x108;" horiz-adv-x="716" 
d="M246 757l92 136h127l93 -136h-105l-50 81h-2l-50 -81h-105zM45 358q0 156 103 260t262 104q162 0 262 -97l-62 -96q-39 33 -91.5 54t-102.5 21q-112 0 -175 -70t-63 -174q0 -105 64 -179.5t175 -74.5q114 0 206 90l68 -93q-113 -115 -279 -115q-165 0 -266 105t-101 265z
" />
    <glyph glyph-name="ccircumflex" unicode="&#x109;" horiz-adv-x="548" 
d="M138 574l92 136h127l93 -136h-105l-50 81h-2l-50 -81h-105zM37 255q0 112 76.5 189.5t200.5 77.5q55 0 108 -19t88 -57l-57 -87q-55 55 -132 55q-69 0 -112 -45.5t-43 -112.5t44 -113.5t115 -46.5q83 0 150 65l49 -90q-36 -38 -92.5 -60.5t-117.5 -22.5
q-124 0 -200.5 76.5t-76.5 190.5z" />
    <glyph glyph-name="Cdotaccent" unicode="&#x10a;" horiz-adv-x="716" 
d="M45 358q0 156 103 260t262 104q162 0 262 -97l-62 -96q-39 33 -91.5 54t-102.5 21q-112 0 -175 -70t-63 -174q0 -105 64 -179.5t175 -74.5q114 0 206 90l68 -93q-113 -115 -279 -115q-165 0 -266 105t-101 265zM348 782v111h108v-111h-108z" />
    <glyph glyph-name="cdotaccent" unicode="&#x10b;" horiz-adv-x="548" 
d="M37 255q0 112 76.5 189.5t200.5 77.5q55 0 108 -19t88 -57l-57 -87q-55 55 -132 55q-69 0 -112 -45.5t-43 -112.5t44 -113.5t115 -46.5q83 0 150 65l49 -90q-36 -38 -92.5 -60.5t-117.5 -22.5q-124 0 -200.5 76.5t-76.5 190.5zM241 599v111h108v-111h-108z" />
    <glyph glyph-name="Ccaron" unicode="&#x10c;" horiz-adv-x="716" 
d="M338 757l-92 136h105l50 -81h2l50 81h105l-93 -136h-127zM45 358q0 156 103 260t262 104q162 0 262 -97l-62 -96q-39 33 -91.5 54t-102.5 21q-112 0 -175 -70t-63 -174q0 -105 64 -179.5t175 -74.5q114 0 206 90l68 -93q-113 -115 -279 -115q-165 0 -266 105t-101 265z
" />
    <glyph glyph-name="ccaron" unicode="&#x10d;" horiz-adv-x="548" 
d="M230 574l-92 136h105l50 -81h2l50 81h105l-93 -136h-127zM37 255q0 112 76.5 189.5t200.5 77.5q55 0 108 -19t88 -57l-57 -87q-55 55 -132 55q-69 0 -112 -45.5t-43 -112.5t44 -113.5t115 -46.5q83 0 150 65l49 -90q-36 -38 -92.5 -60.5t-117.5 -22.5q-124 0 -200.5 76.5
t-76.5 190.5z" />
    <glyph glyph-name="Dcaron" unicode="&#x10e;" horiz-adv-x="737" 
d="M278 757l-92 136h105l50 -81h2l50 81h105l-93 -136h-127zM86 0v710h242q166 0 264 -94t98 -260t-98 -261t-264 -95h-242zM215 111h106q110 0 173 63.5t63 181.5q0 116 -63.5 179.5t-172.5 63.5h-106v-488z" />
    <glyph glyph-name="dcaron" unicode="&#x10f;" horiz-adv-x="627" 
d="M598 709h105q7 -28 7 -54q0 -43 -26 -97h-94q20 53 20 87q0 32 -12 64zM39 255q0 120 64.5 193.5t166.5 73.5q101 0 149 -67h2q-2 13 -2 30v225h126v-710h-119v44l2 32h-2q-23 -40 -65.5 -64t-95.5 -24q-102 0 -164 74t-62 193zM167 255q0 -72 35 -116t92 -44
q54 0 91 40.5t37 120.5q0 64 -33 110.5t-94 46.5q-54 0 -91 -42.5t-37 -115.5z" />
    <glyph glyph-name="Dcroat" unicode="&#x110;" horiz-adv-x="743" 
d="M92 0v301h-58v105h58v304h242q166 0 264 -94t98 -260t-98 -261t-264 -95h-242zM220 111h107q110 0 173 63.5t63 181.5q0 116 -63.5 179.5t-172.5 63.5h-107v-193h132v-105h-132v-190z" />
    <glyph glyph-name="dcroat" unicode="&#x111;" horiz-adv-x="614" 
d="M39 255q0 120 64.5 193.5t166.5 73.5q44 0 84.5 -16.5t63.5 -48.5h2q-1 13 -1 29v73h-129v76h129v75h126v-75h72v-76h-72v-559h-119v42l1 33h-2q-52 -87 -160 -87q-102 0 -164 74t-62 193zM167 255q0 -72 35 -116t92 -44q54 0 91 40.5t37 120.5q0 64 -33 110.5t-94 46.5
q-54 0 -91 -42.5t-37 -115.5z" />
    <glyph glyph-name="Emacron" unicode="&#x112;" horiz-adv-x="568" 
d="M86 0v710h425v-111h-296v-186h239v-111h-239v-191h312v-111h-441zM178 783v87h262v-87h-262z" />
    <glyph glyph-name="emacron" unicode="&#x113;" horiz-adv-x="561" 
d="M37 255q0 118 72.5 192.5t187.5 74.5q106 0 166 -68.5t60 -173.5q0 -17 -4 -49h-351q6 -64 49 -99.5t104 -35.5q76 0 146 56l50 -91q-38 -34 -93.5 -53.5t-111.5 -19.5q-123 0 -199 77.5t-76 189.5zM171 318h225q-1 50 -29.5 79t-72.5 29q-48 0 -81 -29.5t-42 -78.5z
M164 600v87h262v-87h-262z" />
    <glyph glyph-name="Ebreve" unicode="&#x114;" horiz-adv-x="568" 
d="M86 0v710h425v-111h-296v-186h239v-111h-239v-191h312v-111h-441zM308 753q-63 0 -106 34t-43 94v12h90v-12q0 -29 17 -44t42 -15q23 0 40.5 15.5t17.5 44.5v11h90v-12q0 -60 -43 -94t-105 -34z" />
    <glyph glyph-name="ebreve" unicode="&#x115;" horiz-adv-x="561" 
d="M37 255q0 118 72.5 192.5t187.5 74.5q106 0 166 -68.5t60 -173.5q0 -17 -4 -49h-351q6 -64 49 -99.5t104 -35.5q76 0 146 56l50 -91q-38 -34 -93.5 -53.5t-111.5 -19.5q-123 0 -199 77.5t-76 189.5zM171 318h225q-1 50 -29.5 79t-72.5 29q-48 0 -81 -29.5t-42 -78.5z
M294 570q-63 0 -106 34t-43 94v12h90v-12q0 -29 17 -44t42 -15q23 0 40.5 15.5t17.5 44.5v11h90v-12q0 -60 -43 -94t-105 -34z" />
    <glyph glyph-name="Edotaccent" unicode="&#x116;" horiz-adv-x="568" 
d="M86 0v710h425v-111h-296v-186h239v-111h-239v-191h312v-111h-441zM254 782v111h108v-111h-108z" />
    <glyph glyph-name="edotaccent" unicode="&#x117;" horiz-adv-x="561" 
d="M37 255q0 118 72.5 192.5t187.5 74.5q106 0 166 -68.5t60 -173.5q0 -17 -4 -49h-351q6 -64 49 -99.5t104 -35.5q76 0 146 56l50 -91q-38 -34 -93.5 -53.5t-111.5 -19.5q-123 0 -199 77.5t-76 189.5zM171 318h225q-1 50 -29.5 79t-72.5 29q-48 0 -81 -29.5t-42 -78.5z
M240 599v111h108v-111h-108z" />
    <glyph glyph-name="Eogonek" unicode="&#x118;" horiz-adv-x="568" 
d="M86 0v710h425v-111h-296v-186h239v-111h-239v-191h312v-111q-56 -47 -56 -78q0 -14 12.5 -23t24.5 -11l12 -2l-31 -94q-5 0 -13 1.5t-29 8t-37.5 16t-29.5 28t-13 42.5q0 60 70 112h-351z" />
    <glyph glyph-name="eogonek" unicode="&#x119;" horiz-adv-x="561" 
d="M37 255q0 118 72.5 192.5t187.5 74.5q106 0 166 -68.5t60 -173.5l-4 -49h-351q6 -64 49 -99.5t104 -35.5q76 0 146 56l49 -90q-9 -9 -44.5 -35.5t-57 -51.5t-21.5 -53q0 -14 12 -23t24 -11l12 -2l-30 -94q-5 0 -13.5 1.5t-29.5 8t-37 16t-29.5 28t-13.5 42.5q0 54 63 104
q-24 -4 -39 -4q-123 0 -199 77.5t-76 189.5zM171 318h225q-1 49 -29 78.5t-73 29.5q-48 0 -81 -30t-42 -78z" />
    <glyph glyph-name="Ecaron" unicode="&#x11a;" horiz-adv-x="568" 
d="M244 757l-92 136h105l50 -81h2l50 81h105l-93 -136h-127zM86 0v710h425v-111h-296v-186h239v-111h-239v-191h312v-111h-441z" />
    <glyph glyph-name="ecaron" unicode="&#x11b;" horiz-adv-x="561" 
d="M230 574l-92 136h105l50 -81h2l50 81h105l-93 -136h-127zM37 255q0 118 72.5 192.5t187.5 74.5q106 0 166 -68.5t60 -173.5q0 -17 -4 -49h-351q6 -64 49 -99.5t104 -35.5q76 0 146 56l50 -91q-38 -34 -93.5 -53.5t-111.5 -19.5q-123 0 -199 77.5t-76 189.5zM171 318h225
q-1 50 -29.5 79t-72.5 29q-48 0 -81 -29.5t-42 -78.5z" />
    <glyph glyph-name="Gcircumflex" unicode="&#x11c;" horiz-adv-x="766" 
d="M244 757l92 136h127l93 -136h-105l-50 81h-2l-50 -81h-105zM45 356q0 155 104.5 260.5t261.5 105.5q160 0 264 -90l-64 -96q-33 30 -86 49t-103 19q-115 0 -179.5 -70t-64.5 -174q0 -113 68 -183.5t170 -70.5q101 0 178 74v83h-109v111h225v-374h-110v34l1 30h-2
q-35 -34 -90.5 -55t-115.5 -21q-145 0 -246.5 102.5t-101.5 265.5z" />
    <glyph glyph-name="gcircumflex" unicode="&#x11d;" horiz-adv-x="606" 
d="M139 574l92 136h127l93 -136h-105l-50 81h-2l-50 -81h-105zM126 -69q68 -33 141 -33q64 0 104 30t40 94v32l2 27h-2q-47 -71 -143 -71q-106 0 -167 74t-61 184t59.5 182t165.5 72q104 0 152 -67h3q-2 6 -2 14v41h120v-479q0 -63 -23 -111t-62 -75.5t-85.5 -41
t-98.5 -13.5q-97 0 -182 44zM168 272q0 -69 33.5 -112t94.5 -43q51 0 84.5 35t33.5 115q0 147 -126 147q-57 0 -88.5 -38.5t-31.5 -103.5z" />
    <glyph glyph-name="Gbreve" unicode="&#x11e;" horiz-adv-x="766" 
d="M45 356q0 155 104.5 260.5t261.5 105.5q160 0 264 -90l-64 -96q-33 30 -86 49t-103 19q-115 0 -179.5 -70t-64.5 -174q0 -113 68 -183.5t170 -70.5q101 0 178 74v83h-109v111h225v-374h-110v34l1 30h-2q-35 -34 -90.5 -55t-115.5 -21q-145 0 -246.5 102.5t-101.5 265.5z
M401 753q-63 0 -106 34t-43 94v12h90v-12q0 -29 17 -44t42 -15q23 0 40.5 15.5t17.5 44.5v11h90v-12q0 -60 -43 -94t-105 -34z" />
    <glyph glyph-name="gbreve" unicode="&#x11f;" horiz-adv-x="606" 
d="M126 -69q68 -33 141 -33q64 0 104 30t40 94v32l2 27h-2q-47 -71 -143 -71q-106 0 -167 74t-61 184t59.5 182t165.5 72q104 0 152 -67h3q-2 6 -2 14v41h120v-479q0 -63 -23 -111t-62 -75.5t-85.5 -41t-98.5 -13.5q-97 0 -182 44zM168 272q0 -69 33.5 -112t94.5 -43
q51 0 84.5 35t33.5 115q0 147 -126 147q-57 0 -88.5 -38.5t-31.5 -103.5zM295 570q-63 0 -106 34t-43 94v12h90v-12q0 -29 17 -44t42 -15q23 0 40.5 15.5t17.5 44.5v11h90v-12q0 -60 -43 -94t-105 -34z" />
    <glyph glyph-name="Gdotaccent" unicode="&#x120;" horiz-adv-x="766" 
d="M45 356q0 155 104.5 260.5t261.5 105.5q160 0 264 -90l-64 -96q-33 30 -86 49t-103 19q-115 0 -179.5 -70t-64.5 -174q0 -113 68 -183.5t170 -70.5q101 0 178 74v83h-109v111h225v-374h-110v34l1 30h-2q-35 -34 -90.5 -55t-115.5 -21q-145 0 -246.5 102.5t-101.5 265.5z
M347 782v111h108v-111h-108z" />
    <glyph glyph-name="gdotaccent" unicode="&#x121;" horiz-adv-x="606" 
d="M126 -69q68 -33 141 -33q64 0 104 30t40 94v32l2 27h-2q-47 -71 -143 -71q-106 0 -167 74t-61 184t59.5 182t165.5 72q104 0 152 -67h3q-2 6 -2 14v41h120v-479q0 -63 -23 -111t-62 -75.5t-85.5 -41t-98.5 -13.5q-97 0 -182 44zM168 272q0 -69 33.5 -112t94.5 -43
q51 0 84.5 35t33.5 115q0 147 -126 147q-57 0 -88.5 -38.5t-31.5 -103.5zM241 599v111h108v-111h-108z" />
    <glyph glyph-name="Gcommaaccent" unicode="&#x122;" horiz-adv-x="766" 
d="M338 -55h105q7 -28 7 -54q0 -43 -26 -97h-94q20 53 20 87q0 32 -12 64zM45 356q0 155 104.5 260.5t261.5 105.5q160 0 264 -90l-64 -96q-33 30 -86 49t-103 19q-115 0 -179.5 -70t-64.5 -174q0 -113 68 -183.5t170 -70.5q101 0 178 74v83h-109v111h225v-374h-110v34l1 30
h-2q-35 -34 -90.5 -55t-115.5 -21q-145 0 -246.5 102.5t-101.5 265.5z" />
    <glyph glyph-name="gcommaaccent" unicode="&#x123;" horiz-adv-x="606" 
d="M350 562h-105q-7 27 -7 52q0 43 26 95h93q-19 -54 -19 -85t12 -62zM126 -69q68 -33 141 -33q64 0 104 30t40 94v32l2 27h-2q-47 -71 -143 -71q-106 0 -167 74t-61 184t59.5 182t165.5 72q104 0 152 -67h3q-2 6 -2 14v41h120v-479q0 -63 -23 -111t-62 -75.5t-85.5 -41
t-98.5 -13.5q-97 0 -182 44zM168 272q0 -69 33.5 -112t94.5 -43q51 0 84.5 35t33.5 115q0 147 -126 147q-57 0 -88.5 -38.5t-31.5 -103.5z" />
    <glyph glyph-name="Hcircumflex" unicode="&#x124;" horiz-adv-x="754" 
d="M221 757l92 136h127l93 -136h-105l-50 81h-2l-50 -81h-105zM86 0v710h129v-301h325v301h128v-710h-128v298h-325v-298h-129z" />
    <glyph glyph-name="hcircumflex" unicode="&#x125;" horiz-adv-x="612" 
d="M-23 757l92 136h127l93 -136h-105l-50 81h-2l-50 -81h-105zM68 0v710h127v-248l-3 -43h2q21 41 68.5 72t108.5 31q178 0 178 -194v-328h-127v302q0 51 -17.5 77.5t-62.5 26.5q-66 0 -106.5 -47.5t-40.5 -121.5v-237h-127z" />
    <glyph glyph-name="Hbar" unicode="&#x126;" horiz-adv-x="761" 
d="M93 0v515h-66v83h66v112h131v-112h313v112h131v-112h65v-83h-65v-515h-131v298h-313v-298h-131zM224 409h313v106h-313v-106z" />
    <glyph glyph-name="hbar" unicode="&#x127;" horiz-adv-x="612" 
d="M68 0v559h-66v76h66v75h127v-75h134v-76h-134v-95l-2 -43h2q21 41 68 71t108 30q178 0 178 -194v-328h-127v302q0 51 -17.5 77.5t-62.5 26.5q-67 0 -107 -48.5t-40 -118.5v-239h-127z" />
    <glyph glyph-name="Itilde" unicode="&#x128;" horiz-adv-x="301" 
d="M86 0v710h129v-710h-129zM-30 758q0 137 112 137q29 0 51.5 -16.5t40.5 -32.5t34 -16q39 0 39 62h86q0 -137 -112 -137q-29 0 -51.5 16.5t-40.5 32.5t-34 16q-38 0 -38 -62h-87z" />
    <glyph glyph-name="itilde" unicode="&#x129;" horiz-adv-x="263" 
d="M68 0v510h127v-510h-127zM-49 575q0 137 112 137q23 0 42.5 -10t30.5 -22.5t25.5 -22.5t27.5 -10q39 0 39 62h86q0 -137 -112 -137q-23 0 -42.5 10t-30.5 22.5t-25.5 22.5t-27.5 10q-38 0 -38 -62h-87z" />
    <glyph glyph-name="Imacron" unicode="&#x12a;" horiz-adv-x="301" 
d="M86 0v710h129v-710h-129zM21 783v87h262v-87h-262z" />
    <glyph glyph-name="imacron" unicode="&#x12b;" horiz-adv-x="263" 
d="M68 0v510h127v-510h-127zM2 600v87h262v-87h-262z" />
    <glyph glyph-name="Ibreve" unicode="&#x12c;" horiz-adv-x="301" 
d="M86 0v710h129v-710h-129zM152 753q-63 0 -106 34t-43 94v12h90v-12q0 -29 17 -44t42 -15q23 0 40.5 15.5t17.5 44.5v11h90v-12q0 -60 -43 -94t-105 -34z" />
    <glyph glyph-name="ibreve" unicode="&#x12d;" horiz-adv-x="263" 
d="M68 0v510h127v-510h-127zM133 570q-63 0 -106 34t-43 94v12h90v-12q0 -29 17 -44t42 -15q23 0 40.5 15.5t17.5 44.5v11h90v-12q0 -60 -43 -94t-105 -34z" />
    <glyph glyph-name="Iogonek" unicode="&#x12e;" horiz-adv-x="301" 
d="M86 0v710h129v-710q-56 -47 -56 -78q0 -14 12 -23t24 -11l12 -2l-30 -94q-5 0 -13.5 1.5t-29.5 8t-37 16t-29.5 28t-13.5 42.5q0 58 67 112h-35z" />
    <glyph glyph-name="iogonek" unicode="&#x12f;" horiz-adv-x="264" 
d="M68 0v510h127v-510q-56 -47 -56 -78q0 -14 12.5 -23t24.5 -11l12 -2l-30 -94q-3 0 -7 0.5t-17 3.5t-24.5 7t-26 11.5t-24.5 17t-17 24.5t-7 33q0 56 67 111h-34zM68 597v113h127v-113h-127z" />
    <glyph glyph-name="Idotaccent" unicode="&#x130;" horiz-adv-x="301" 
d="M86 0v710h129v-710h-129zM98 782v111h108v-111h-108z" />
    <glyph glyph-name="dotlessi" unicode="&#x131;" horiz-adv-x="263" 
d="M68 0v510h127v-510h-127z" />
    <glyph glyph-name="IJ" unicode="&#x132;" horiz-adv-x="637" 
d="M297 -4v117q22 0 42.5 6t41.5 20t33.5 43t12.5 70v458h131v-460q0 -76 -23.5 -129t-64 -78.5t-82 -36t-91.5 -10.5zM86 0v710h129v-710h-129z" />
    <glyph glyph-name="ij" unicode="&#x133;" horiz-adv-x="526" 
d="M68 597v113h127v-113h-127zM68 0v510h127v-510h-127zM331 597v113h127v-113h-127zM331 -5v515h127v-525q0 -49 -16 -85.5t-38.5 -56t-53.5 -31.5t-55.5 -15.5t-49.5 -3.5q-19 0 -38 3v107q12 -2 22 -2q17 0 32 3.5t32 12t27.5 29t10.5 49.5z" />
    <glyph glyph-name="Jcircumflex" unicode="&#x134;" horiz-adv-x="546" 
d="M151 757l92 136h127l93 -136h-105l-50 81h-2l-50 -81h-105zM24 210v41h128v-33q0 -48 23 -80t70 -32q41 0 67 26t26 80v387h-184v111h312v-500q0 -109 -65.5 -165.5t-155.5 -56.5q-91 0 -156 57t-65 165z" />
    <glyph glyph-name="jcircumflex" unicode="&#x135;" horiz-adv-x="263" 
d="M-20 573l92 137h117l92 -137h-99l-50 82h-2l-51 -82h-99zM68 -5v515h127v-525q0 -49 -16 -85.5t-38.5 -56t-53.5 -31.5t-55.5 -15.5t-49.5 -3.5q-18 0 -38 3v107q12 -2 22 -2q17 0 32 3.5t32 12t27.5 29t10.5 49.5z" />
    <glyph glyph-name="Kcommaaccent" unicode="&#x136;" horiz-adv-x="638" 
d="M272 -55h105q7 -28 7 -54q0 -43 -26 -97h-94q20 53 20 87q0 32 -12 64zM86 0v710h129v-289h92l167 289h140l-201 -338v-2l213 -370h-146l-173 310h-92v-310h-129z" />
    <glyph glyph-name="kcommaaccent" unicode="&#x137;" horiz-adv-x="549" 
d="M230 -55h105q7 -28 7 -54q0 -43 -26 -97h-94q20 53 20 87q0 32 -12 64zM68 0v710h127v-380h63l123 180h141l-161 -228v-2l181 -280h-146l-135 223h-66v-223h-127z" />
    <glyph glyph-name="kgreenlandic" unicode="&#x138;" horiz-adv-x="547" 
d="M68 0v510h127v-192h62l129 192h142l-167 -239v-2l174 -269h-149l-126 211h-65v-211h-127z" />
    <glyph glyph-name="Lacute" unicode="&#x139;" horiz-adv-x="536" 
d="M97 757l76 136h131l-105 -136h-102zM86 0v710h129v-599h307v-111h-436z" />
    <glyph glyph-name="lacute" unicode="&#x13a;" horiz-adv-x="288" 
d="M78 757l76 136h131l-105 -136h-102zM68 159v551h126v-532q0 -40 12.5 -55t39.5 -15q12 0 19 1v-111q-27 -3 -40 -3q-31 0 -55 5.5t-49 21t-39 50.5t-14 87z" />
    <glyph glyph-name="Lcommaaccent" unicode="&#x13b;" horiz-adv-x="536" 
d="M254 -55h105q7 -28 7 -54q0 -43 -26 -97h-94q20 53 20 87q0 32 -12 64zM86 0v710h129v-599h307v-111h-436z" />
    <glyph glyph-name="lcommaaccent" unicode="&#x13c;" horiz-adv-x="288" 
d="M114 -55h105q7 -28 7 -54q0 -43 -26 -97h-94q20 53 20 87q0 32 -12 64zM68 159v551h126v-532q0 -40 12.5 -55t39.5 -15q12 0 19 1v-111q-27 -3 -40 -3q-31 0 -55 5.5t-49 21t-39 50.5t-14 87z" />
    <glyph glyph-name="Lcaron" unicode="&#x13d;" horiz-adv-x="537" 
d="M294 709h105q7 -28 7 -54q0 -43 -26 -97h-94q20 53 20 87q0 32 -12 64zM86 0v710h129v-599h307v-111h-436z" />
    <glyph glyph-name="lcaron" unicode="&#x13e;" horiz-adv-x="301" 
d="M248 709h105q7 -28 7 -54q0 -43 -26 -97h-94q20 53 20 87q0 32 -12 64zM68 159v551h126v-532q0 -40 12.5 -55t39.5 -15q12 0 19 1v-111q-27 -3 -40 -3q-31 0 -55 5.5t-49 21t-39 50.5t-14 87z" />
    <glyph glyph-name="Ldot" unicode="&#x13f;" horiz-adv-x="538" 
d="M86 0v710h129v-599h307v-111h-436zM322 321v128h123v-128h-123z" />
    <glyph glyph-name="ldot" unicode="&#x140;" horiz-adv-x="403" 
d="M68 159v551h126v-532q0 -40 12.5 -55t39.5 -15q12 0 19 1v-111q-27 -3 -40 -3q-31 0 -55 5.5t-49 21t-39 50.5t-14 87zM270 321v128h123v-128h-123z" />
    <glyph glyph-name="Lslash" unicode="&#x141;" horiz-adv-x="541" 
d="M91 0v263l-57 -32v124l57 32v323h128v-249l106 61v-124l-106 -61v-226h307v-111h-435z" />
    <glyph glyph-name="lslash" unicode="&#x142;" horiz-adv-x="305" 
d="M17 244v124l64 36v306h126v-233l78 45v-124l-78 -45v-175q0 -40 12.5 -55t39.5 -15l19 1v-111q-18 -3 -40 -3q-31 0 -55 5.5t-49 21t-39 50.5t-14 87v121z" />
    <glyph glyph-name="Nacute" unicode="&#x143;" horiz-adv-x="753" 
d="M321 757l76 136h131l-105 -136h-102zM86 0v710h129l269 -410q12 -19 26.5 -46.5l23.5 -45.5l9 -18h2q-7 68 -7 110v410h128v-710h-128l-269 409q-12 19 -26.5 46.5l-23.5 45.5l-9 18h-2q7 -68 7 -110v-409h-129z" />
    <glyph glyph-name="nacute" unicode="&#x144;" horiz-adv-x="612" 
d="M259 574l76 136h131l-105 -136h-102zM68 0v510h122v-60l-2 -36h2q20 41 66 74.5t115 33.5q178 0 178 -194v-328h-127v302q0 51 -17.5 77.5t-62.5 26.5q-66 0 -106.5 -48t-40.5 -119v-239h-127z" />
    <glyph glyph-name="Ncommaaccent" unicode="&#x145;" horiz-adv-x="753" 
d="M321 -55h105q7 -28 7 -54q0 -43 -26 -97h-94q20 53 20 87q0 32 -12 64zM86 0v710h129l269 -410q12 -19 26.5 -46.5l23.5 -45.5l9 -18h2q-7 68 -7 110v410h128v-710h-128l-269 409q-12 19 -26.5 46.5l-23.5 45.5l-9 18h-2q7 -68 7 -110v-409h-129z" />
    <glyph glyph-name="ncommaaccent" unicode="&#x146;" horiz-adv-x="612" 
d="M251 -55h105q7 -28 7 -54q0 -43 -26 -97h-94q20 53 20 87q0 32 -12 64zM68 0v510h122v-60l-2 -36h2q20 41 66 74.5t115 33.5q178 0 178 -194v-328h-127v302q0 51 -17.5 77.5t-62.5 26.5q-66 0 -106.5 -48t-40.5 -119v-239h-127z" />
    <glyph glyph-name="Ncaron" unicode="&#x147;" horiz-adv-x="753" 
d="M312 757l-92 136h105l50 -81h2l50 81h105l-93 -136h-127zM86 0v710h129l269 -410q12 -19 26.5 -46.5l23.5 -45.5l9 -18h2q-7 68 -7 110v410h128v-710h-128l-269 409q-12 19 -26.5 46.5l-23.5 45.5l-9 18h-2q7 -68 7 -110v-409h-129z" />
    <glyph glyph-name="ncaron" unicode="&#x148;" horiz-adv-x="612" 
d="M250 574l-92 136h105l50 -81h2l50 81h105l-93 -136h-127zM68 0v510h122v-60l-2 -36h2q20 41 66 74.5t115 33.5q178 0 178 -194v-328h-127v302q0 51 -17.5 77.5t-62.5 26.5q-66 0 -106.5 -48t-40.5 -119v-239h-127z" />
    <glyph glyph-name="napostrophe" unicode="&#x149;" horiz-adv-x="612" 
d="M-12 709h105q7 -28 7 -54q0 -43 -26 -97h-94q20 53 20 87q0 32 -12 64zM68 0v510h122v-60l-2 -36h2q20 41 66 74.5t115 33.5q178 0 178 -194v-328h-127v302q0 51 -17.5 77.5t-62.5 26.5q-66 0 -106.5 -48t-40.5 -119v-239h-127z" />
    <glyph glyph-name="Eng" unicode="&#x14a;" horiz-adv-x="752" 
d="M86 0v710h129l269 -410q12 -19 26.5 -46.5l23.5 -45.5l9 -18h2q-7 68 -7 110v410h128v-667q0 -71 -23 -122.5t-62 -77.5t-81 -37t-91 -11v117q40 0 79 24.5t45 71.5l-264 401q-12 19 -26.5 46.5l-23.5 45.5l-9 18h-2q7 -68 7 -110v-409h-129z" />
    <glyph glyph-name="eng" unicode="&#x14b;" horiz-adv-x="612" 
d="M68 0v510h122v-72l-1 -22h2q21 42 66 74t114 32q178 0 178 -194v-345q0 -49 -16 -85.5t-38.5 -56t-53.5 -31.5t-55.5 -15.5t-49.5 -3.5l-39 3v107q9 -1 22 -1q103 0 103 93v309q0 51 -17.5 77.5t-62.5 26.5q-67 0 -107 -48.5t-40 -118.5v-239h-127z" />
    <glyph glyph-name="Omacron" unicode="&#x14c;" horiz-adv-x="822" 
d="M280 783v87h262v-87h-262zM44 360q0 154 103.5 258t263.5 104t263.5 -104t103.5 -258q0 -158 -103.5 -265t-263.5 -107t-263.5 107t-103.5 265zM177 360q0 -109 66.5 -181.5t167.5 -72.5t167.5 72.5t66.5 181.5q0 104 -66.5 174t-167.5 70t-167.5 -70t-66.5 -174z" />
    <glyph glyph-name="omacron" unicode="&#x14d;" horiz-adv-x="634" 
d="M186 600v87h262v-87h-262zM37 255q0 116 81 191.5t198 75.5q118 0 199.5 -75.5t81.5 -191.5t-81 -191.5t-199 -75.5t-199 75.5t-81 191.5zM166 255q0 -70 43.5 -114.5t107.5 -44.5t108 44.5t44 114.5q0 69 -44.5 114t-107.5 45t-107 -45t-44 -114z" />
    <glyph glyph-name="Obreve" unicode="&#x14e;" horiz-adv-x="822" 
d="M44 360q0 154 103.5 258t263.5 104t263.5 -104t103.5 -258q0 -158 -103.5 -265t-263.5 -107t-263.5 107t-103.5 265zM177 360q0 -109 66.5 -181.5t167.5 -72.5t167.5 72.5t66.5 181.5q0 104 -66.5 174t-167.5 70t-167.5 -70t-66.5 -174zM411 753q-63 0 -106 34t-43 94v12
h90v-12q0 -29 17 -44t42 -15q23 0 40.5 15.5t17.5 44.5v11h90v-12q0 -60 -43 -94t-105 -34z" />
    <glyph glyph-name="obreve" unicode="&#x14f;" horiz-adv-x="634" 
d="M37 255q0 116 81 191.5t198 75.5q118 0 199.5 -75.5t81.5 -191.5t-81 -191.5t-199 -75.5t-199 75.5t-81 191.5zM166 255q0 -70 43.5 -114.5t107.5 -44.5t108 44.5t44 114.5q0 69 -44.5 114t-107.5 45t-107 -45t-44 -114zM317 570q-63 0 -106 34t-43 94v12h90v-12
q0 -29 17 -44t42 -15q23 0 40.5 15.5t17.5 44.5v11h90v-12q0 -60 -43 -94t-105 -34z" />
    <glyph glyph-name="Ohungarumlaut" unicode="&#x150;" horiz-adv-x="822" 
d="M434 757l76 136h125l-104 -136h-97zM259 757l71 136h108l-74 -136h-105zM44 360q0 154 103.5 258t263.5 104t263.5 -104t103.5 -258q0 -158 -103.5 -265t-263.5 -107t-263.5 107t-103.5 265zM177 360q0 -109 66.5 -181.5t167.5 -72.5t167.5 72.5t66.5 181.5
q0 104 -66.5 174t-167.5 70t-167.5 -70t-66.5 -174z" />
    <glyph glyph-name="ohungarumlaut" unicode="&#x151;" horiz-adv-x="634" 
d="M340 574l76 136h125l-104 -136h-97zM165 574l71 136h108l-74 -136h-105zM37 255q0 116 81 191.5t198 75.5q118 0 199.5 -75.5t81.5 -191.5t-81 -191.5t-199 -75.5t-199 75.5t-81 191.5zM166 255q0 -70 43.5 -114.5t107.5 -44.5t108 44.5t44 114.5q0 69 -44.5 114
t-107.5 45t-107 -45t-44 -114z" />
    <glyph glyph-name="OE" unicode="&#x152;" horiz-adv-x="969" 
d="M44 356q0 153 107.5 257.5t265.5 104.5q30 0 69.5 -4t56.5 -4h370v-111h-297v-186h240v-111h-240v-191h313v-111h-386q-17 0 -56.5 -4.5t-69.5 -4.5q-157 0 -265 106t-108 259zM177 356q0 -108 68 -181t172 -73q18 0 36 2t27 4l8 2v490q-30 8 -71 8q-104 0 -172 -73
t-68 -179z" />
    <glyph glyph-name="oe" unicode="&#x153;" horiz-adv-x="992" 
d="M37 254q0 118 80 193t196 75q136 0 211 -105h2q66 105 201 105q107 0 166.5 -68.5t59.5 -173.5l-3 -49h-351q7 -64 50 -99.5t102 -35.5q77 0 147 56l49 -91q-39 -34 -94 -53.5t-111 -19.5q-143 0 -213 108h-2q-76 -108 -214 -108q-117 0 -196.5 74t-79.5 192zM602 318
h223q-1 47 -29 76.5t-70 29.5q-49 0 -82 -29t-42 -77zM165 254q0 -71 44 -114.5t107 -43.5q64 0 108 43.5t44 115.5q0 71 -44.5 115t-107.5 44t-107 -44.5t-44 -115.5z" />
    <glyph glyph-name="Racute" unicode="&#x154;" horiz-adv-x="640" 
d="M255 757l76 136h131l-105 -136h-102zM86 0v710h234q90 0 134 -19q56 -23 88 -73t32 -121q0 -65 -32 -118.5t-87 -75.5v-2q9 -11 23 -37l146 -264h-145l-140 265h-124v-265h-129zM215 377h116q52 0 82 30.5t30 82.5q0 74 -56 97q-27 12 -78 12h-94v-222z" />
    <glyph glyph-name="racute" unicode="&#x155;" horiz-adv-x="396" 
d="M179 573l76 136h131l-105 -136h-102zM68 0v510h122v-90l-2 -35h2q18 56 62 94t100 38q8 0 24 -2v-125q-10 2 -31 2q-74 0 -112 -54t-38 -132v-206h-127z" />
    <glyph glyph-name="Rcommaaccent" unicode="&#x156;" horiz-adv-x="640" 
d="M275 -55h105q7 -28 7 -54q0 -43 -26 -97h-94q20 53 20 87q0 32 -12 64zM86 0v710h234q90 0 134 -19q56 -23 88 -73t32 -121q0 -65 -32 -118.5t-87 -75.5v-2q9 -11 23 -37l146 -264h-145l-140 265h-124v-265h-129zM215 377h116q52 0 82 30.5t30 82.5q0 74 -56 97
q-27 12 -78 12h-94v-222z" />
    <glyph glyph-name="rcommaaccent" unicode="&#x157;" horiz-adv-x="396" 
d="M78 -55h105q7 -28 7 -54q0 -43 -26 -97h-94q20 53 20 87q0 32 -12 64zM68 0v510h122v-90l-2 -35h2q18 56 62 94t100 38q8 0 24 -2v-125q-10 2 -31 2q-74 0 -112 -54t-38 -132v-206h-127z" />
    <glyph glyph-name="Rcaron" unicode="&#x158;" horiz-adv-x="640" 
d="M246 757l-92 136h105l50 -81h2l50 81h105l-93 -136h-127zM86 0v710h234q90 0 134 -19q56 -23 88 -73t32 -121q0 -65 -32 -118.5t-87 -75.5v-2q9 -11 23 -37l146 -264h-145l-140 265h-124v-265h-129zM215 377h116q52 0 82 30.5t30 82.5q0 74 -56 97q-27 12 -78 12h-94
v-222z" />
    <glyph glyph-name="rcaron" unicode="&#x159;" horiz-adv-x="396" 
d="M171 573l-92 136h105l50 -81h2l50 81h105l-93 -136h-127zM68 0v510h122v-90l-2 -35h2q18 56 62 94t100 38q8 0 24 -2v-125q-10 2 -31 2q-74 0 -112 -54t-38 -132v-206h-127z" />
    <glyph glyph-name="Sacute" unicode="&#x15a;" horiz-adv-x="557" 
d="M224 757l76 136h131l-105 -136h-102zM35 85l70 97q35 -31 82.5 -53t93.5 -22q48 0 76 22.5t28 58.5q0 37 -34 64t-82.5 47t-97.5 44t-83 68t-34 105q0 92 68.5 149t173.5 57q125 0 208 -76l-57 -105q-30 27 -72.5 44.5t-83.5 17.5q-49 0 -78.5 -22t-29.5 -59
q0 -36 34 -62t82.5 -45t97.5 -42.5t83 -67.5t34 -107q0 -90 -63 -150t-173 -60q-68 0 -132 25t-111 72z" />
    <glyph glyph-name="sacute" unicode="&#x15b;" horiz-adv-x="457" 
d="M170 574l76 136h131l-105 -136h-102zM27 63l57 84q61 -56 145 -56q34 0 52.5 13.5t18.5 37.5q0 22 -26 38t-63 29t-74.5 30.5t-63.5 50.5t-26 79q0 72 55.5 112.5t139.5 40.5q106 0 172 -58l-47 -89q-22 19 -58.5 31.5t-70.5 12.5q-71 0 -71 -49q0 -22 26 -38t63.5 -29
t74.5 -29.5t63 -49.5t26 -79q0 -68 -53 -112.5t-140 -44.5q-122 0 -200 75z" />
    <glyph glyph-name="Scircumflex" unicode="&#x15c;" horiz-adv-x="557" 
d="M124 757l92 136h127l93 -136h-105l-50 81h-2l-50 -81h-105zM35 85l70 97q35 -31 82.5 -53t93.5 -22q48 0 76 22.5t28 58.5q0 37 -34 64t-82.5 47t-97.5 44t-83 68t-34 105q0 92 68.5 149t173.5 57q125 0 208 -76l-57 -105q-30 27 -72.5 44.5t-83.5 17.5q-49 0 -78.5 -22
t-29.5 -59q0 -36 34 -62t82.5 -45t97.5 -42.5t83 -67.5t34 -107q0 -90 -63 -150t-173 -60q-68 0 -132 25t-111 72z" />
    <glyph glyph-name="scircumflex" unicode="&#x15d;" horiz-adv-x="457" 
d="M71 574l92 136h127l93 -136h-105l-50 81h-2l-50 -81h-105zM27 63l57 84q61 -56 145 -56q34 0 52.5 13.5t18.5 37.5q0 22 -26 38t-63 29t-74.5 30.5t-63.5 50.5t-26 79q0 72 55.5 112.5t139.5 40.5q106 0 172 -58l-47 -89q-22 19 -58.5 31.5t-70.5 12.5q-71 0 -71 -49
q0 -22 26 -38t63.5 -29t74.5 -29.5t63 -49.5t26 -79q0 -68 -53 -112.5t-140 -44.5q-122 0 -200 75z" />
    <glyph glyph-name="Scedilla" unicode="&#x15e;" horiz-adv-x="558" 
d="M226 -86l21 76q-130 12 -212 95l70 97q35 -31 82.5 -53t93.5 -22q48 0 76 22.5t28 58.5q0 37 -34 64t-82.5 47t-97.5 44t-83 68t-34 105q0 92 68.5 149t173.5 57q125 0 208 -76l-57 -105q-30 27 -72.5 44.5t-83.5 17.5q-49 0 -78.5 -22t-29.5 -59q0 -36 34 -62t82.5 -45
t97.5 -42.5t83 -67.5t34 -107q0 -82 -54 -140.5t-149 -67.5l-7 -34q33 -4 53 -23t20 -53q0 -46 -31 -67t-77 -21q-33 0 -61 7v70q16 -8 43 -8q44 0 44 28q0 27 -48 27z" />
    <glyph glyph-name="scedilla" unicode="&#x15f;" horiz-adv-x="459" 
d="M169 -86l21 76q-99 12 -162 73l57 84q61 -56 145 -56q34 0 52.5 13.5t18.5 37.5q0 22 -26 38t-63 29t-74.5 30.5t-63.5 50.5t-26 79q0 72 55.5 112.5t139.5 40.5q106 0 172 -58l-47 -89q-22 19 -58.5 31.5t-70.5 12.5q-71 0 -71 -49q0 -22 26 -38t63 -29t74.5 -29.5
t63.5 -49.5t26 -79q0 -63 -45.5 -106t-121.5 -50l-7 -33q33 -4 53 -23t20 -53q0 -46 -31 -67t-77 -21q-33 0 -61 7v70q16 -8 43 -8q44 0 44 28q0 27 -48 27z" />
    <glyph glyph-name="Scaron" unicode="&#x160;" horiz-adv-x="557" 
d="M216 757l-92 136h105l50 -81h2l50 81h105l-93 -136h-127zM35 85l70 97q35 -31 82.5 -53t93.5 -22q48 0 76 22.5t28 58.5q0 37 -34 64t-82.5 47t-97.5 44t-83 68t-34 105q0 92 68.5 149t173.5 57q125 0 208 -76l-57 -105q-30 27 -72.5 44.5t-83.5 17.5q-49 0 -78.5 -22
t-29.5 -59q0 -36 34 -62t82.5 -45t97.5 -42.5t83 -67.5t34 -107q0 -90 -63 -150t-173 -60q-68 0 -132 25t-111 72z" />
    <glyph glyph-name="scaron" unicode="&#x161;" horiz-adv-x="457" 
d="M163 574l-92 136h105l50 -81h2l50 81h105l-93 -136h-127zM27 63l57 84q61 -56 145 -56q34 0 52.5 13.5t18.5 37.5q0 22 -26 38t-63 29t-74.5 30.5t-63.5 50.5t-26 79q0 72 55.5 112.5t139.5 40.5q106 0 172 -58l-47 -89q-22 19 -58.5 31.5t-70.5 12.5q-71 0 -71 -49
q0 -22 26 -38t63.5 -29t74.5 -29.5t63 -49.5t26 -79q0 -68 -53 -112.5t-140 -44.5q-122 0 -200 75z" />
    <glyph glyph-name="Tcommaaccent" unicode="&#x162;" horiz-adv-x="622" 
d="M247 0v599h-233v111h594v-111h-233v-599h-34l-10 -44q33 -4 53 -23t20 -53q0 -46 -31 -67t-77 -21q-33 0 -61 7v70q16 -8 43 -8q44 0 44 28q0 27 -48 27l-21 -2l24 86h-30z" />
    <glyph glyph-name="tcommaaccent" unicode="&#x163;" horiz-adv-x="373" 
d="M155 -86l29 106q-91 46 -91 167v215h-66v101h69v146h124v-146h116v-101h-116v-199q0 -55 31.5 -75.5t69.5 -20.5q13 0 23 2v-111q-30 -3 -39 -3q-27 0 -62 6l-10 -45q33 -4 53 -23t20 -53q0 -46 -31 -67t-77 -21q-33 0 -61 7v70q16 -8 43 -8q44 0 44 28q0 27 -48 27z" />
    <glyph glyph-name="Tcaron" unicode="&#x164;" horiz-adv-x="622" 
d="M246 757l-92 136h105l50 -81h2l50 81h105l-93 -136h-127zM247 0v599h-233v111h594v-111h-233v-599h-128z" />
    <glyph glyph-name="tcaron" unicode="&#x165;" horiz-adv-x="373" 
d="M272 709h105q7 -27 7 -52q0 -41 -26 -93h-94q20 52 20 84q0 30 -12 61zM93 187v215h-66v101h69v146h124v-146h116v-101h-116v-199q0 -55 31.5 -75.5t69.5 -20.5q13 0 23 2v-111q-30 -3 -39 -3q-26 0 -50 3.5t-55 15.5t-53.5 31.5t-38 56t-15.5 85.5z" />
    <glyph glyph-name="Tbar" unicode="&#x166;" horiz-adv-x="632" 
d="M252 0v295h-151v96h151v208h-233v111h594v-111h-233v-208h156v-96h-156v-295h-128z" />
    <glyph glyph-name="tbar" unicode="&#x167;" horiz-adv-x="377" 
d="M22 239v84h74v79h-66v101h69v146h123v-146h116v-101h-116v-79h109v-84h-109v-42q0 -27 10.5 -46.5t27.5 -28t32.5 -12t31.5 -3.5l23 2v-111q-16 -3 -39 -3q-26 0 -50 3.5t-55 15.5t-53.5 31.5t-38 56t-15.5 85.5v52h-74z" />
    <glyph glyph-name="Utilde" unicode="&#x168;" horiz-adv-x="728" 
d="M78 255v455h129v-454q0 -71 42.5 -110.5t114.5 -39.5t114.5 39.5t42.5 110.5v454h129v-455q0 -119 -78.5 -193t-206.5 -74q-129 0 -208 74t-79 193zM182 758q0 137 112 137q29 0 51.5 -16.5t40.5 -32.5t34 -16q39 0 39 62h86q0 -137 -112 -137q-29 0 -51.5 16.5
t-40.5 32.5t-34 16q-38 0 -38 -62h-87z" />
    <glyph glyph-name="utilde" unicode="&#x169;" horiz-adv-x="607" 
d="M63 182v328h127v-302q0 -51 17.5 -77.5t61.5 -26.5q66 0 104.5 50t38.5 122v234h126v-510h-122v60l3 35h-2q-20 -43 -68 -75t-109 -32q-177 0 -177 194zM119 575q0 137 112 137q23 0 42.5 -10t30.5 -22.5t25.5 -22.5t27.5 -10q39 0 39 62h86q0 -137 -112 -137
q-23 0 -42.5 10t-30.5 22.5t-25.5 22.5t-27.5 10q-38 0 -38 -62h-87z" />
    <glyph glyph-name="Umacron" unicode="&#x16a;" horiz-adv-x="728" 
d="M78 255v455h129v-454q0 -71 42.5 -110.5t114.5 -39.5t114.5 39.5t42.5 110.5v454h129v-455q0 -119 -78.5 -193t-206.5 -74q-129 0 -208 74t-79 193zM233 783v87h262v-87h-262z" />
    <glyph glyph-name="umacron" unicode="&#x16b;" horiz-adv-x="607" 
d="M63 182v328h127v-302q0 -51 17.5 -77.5t61.5 -26.5q66 0 104.5 50t38.5 122v234h126v-510h-122v60l3 35h-2q-20 -43 -68 -75t-109 -32q-177 0 -177 194zM170 600v87h262v-87h-262z" />
    <glyph glyph-name="Ubreve" unicode="&#x16c;" horiz-adv-x="728" 
d="M78 255v455h129v-454q0 -71 42.5 -110.5t114.5 -39.5t114.5 39.5t42.5 110.5v454h129v-455q0 -119 -78.5 -193t-206.5 -74q-129 0 -208 74t-79 193zM364 753q-63 0 -106 34t-43 94v12h90v-12q0 -29 17 -44t42 -15q23 0 40.5 15.5t17.5 44.5v11h90v-12q0 -60 -43 -94
t-105 -34z" />
    <glyph glyph-name="ubreve" unicode="&#x16d;" horiz-adv-x="607" 
d="M63 182v328h127v-302q0 -51 17.5 -77.5t61.5 -26.5q66 0 104.5 50t38.5 122v234h126v-510h-122v60l3 35h-2q-20 -43 -68 -75t-109 -32q-177 0 -177 194zM301 570q-63 0 -106 34t-43 94v12h90v-12q0 -29 17 -44t42 -15q23 0 40.5 15.5t17.5 44.5v11h90v-12q0 -60 -43 -94
t-105 -34z" />
    <glyph glyph-name="Uring" unicode="&#x16e;" horiz-adv-x="728" 
d="M364 745q-39 0 -67 21t-28 57q0 37 28 58t67 21q38 0 66 -21t28 -58q0 -36 -28 -57t-66 -21zM364 789q15 0 24.5 9.5t9.5 24.5q0 16 -9.5 25.5t-24.5 9.5t-24.5 -9.5t-9.5 -25.5q0 -15 9 -24.5t25 -9.5zM78 255v455h129v-454q0 -71 42.5 -110.5t114.5 -39.5t114.5 39.5
t42.5 110.5v454h129v-455q0 -119 -78.5 -193t-206.5 -74q-129 0 -208 74t-79 193z" />
    <glyph glyph-name="uring" unicode="&#x16f;" horiz-adv-x="607" 
d="M301 562q-39 0 -67 21t-28 57q0 37 28 58t67 21q38 0 66 -21t28 -58q0 -36 -28 -57t-66 -21zM301 606q15 0 24.5 9.5t9.5 24.5q0 16 -9.5 25.5t-24.5 9.5t-24.5 -9.5t-9.5 -25.5q0 -15 9 -24.5t25 -9.5zM63 182v328h127v-302q0 -51 17.5 -77.5t61.5 -26.5q66 0 104.5 50
t38.5 122v234h126v-510h-122v60l3 35h-2q-20 -43 -68 -75t-109 -32q-177 0 -177 194z" />
    <glyph glyph-name="Uhungarumlaut" unicode="&#x170;" horiz-adv-x="728" 
d="M78 255v455h129v-454q0 -71 42.5 -110.5t114.5 -39.5t114.5 39.5t42.5 110.5v454h129v-455q0 -119 -78.5 -193t-206.5 -74q-129 0 -208 74t-79 193zM387 757l76 136h125l-104 -136h-97zM212 757l71 136h108l-74 -136h-105z" />
    <glyph glyph-name="uhungarumlaut" unicode="&#x171;" horiz-adv-x="607" 
d="M63 182v328h127v-302q0 -51 17.5 -77.5t61.5 -26.5q66 0 104.5 50t38.5 122v234h126v-510h-122v60l3 35h-2q-20 -43 -68 -75t-109 -32q-177 0 -177 194zM324 574l76 136h125l-104 -136h-97zM149 574l71 136h108l-74 -136h-105z" />
    <glyph glyph-name="Uogonek" unicode="&#x172;" horiz-adv-x="729" 
d="M79 255v455h128v-454q0 -71 42.5 -110.5t115.5 -39.5q72 0 114.5 39.5t42.5 110.5v454h128v-455q0 -61 -22 -109.5t-46.5 -72t-63.5 -51.5q-65 -47 -80 -65q-14 -18 -14 -35q0 -14 12 -23t24 -11l13 -2l-31 -94q-5 0 -13.5 1.5t-29.5 8t-37 16t-29.5 28t-13.5 42.5
q0 59 57 101q-11 -1 -19 -1q-113 0 -195.5 70.5t-82.5 196.5z" />
    <glyph glyph-name="uogonek" unicode="&#x173;" horiz-adv-x="607" 
d="M63 182v328h127v-302q0 -51 17.5 -77.5t61.5 -26.5q66 0 104.5 50t38.5 122v234h126v-510q-56 -47 -56 -78q0 -14 12.5 -23t24.5 -11l12 -2l-31 -94q-5 0 -13 1.5t-29 8t-37.5 16t-29.5 28t-13 42.5q0 59 67 112h-29v60l3 35h-2q-20 -43 -68 -75t-109 -32
q-177 0 -177 194z" />
    <glyph glyph-name="Wcircumflex" unicode="&#x174;" horiz-adv-x="956" 
d="M324 757l92 136h127l93 -136h-105l-50 81h-2l-50 -81h-105zM200 0l-177 710h135l110 -491l12 -75h2q4 34 15 75l127 491h108l126 -491l15 -75h2q2 35 11 75l118 491h133l-184 -710h-145l-111 420l-18 93h-3q-7 -47 -19 -93l-110 -420h-147z" />
    <glyph glyph-name="wcircumflex" unicode="&#x175;" horiz-adv-x="831" 
d="M260 574l92 136h127l93 -136h-105l-50 81h-2l-50 -81h-105zM174 0l-155 510h134l89 -335l10 -54h2q5 27 12 54l94 334h113l94 -334l11 -54h2q3 27 11 54l89 335h132l-155 -510h-141l-86 291l-13 55h-2q-5 -28 -12 -55l-87 -291h-142z" />
    <glyph glyph-name="Ycircumflex" unicode="&#x176;" horiz-adv-x="606" 
d="M239 0v297l-237 413h146l111 -209l43 -95h2q21 51 43 95l110 209h146l-236 -413v-297h-128zM147 757l92 136h127l93 -136h-105l-50 81h-2l-50 -81h-105z" />
    <glyph glyph-name="ycircumflex" unicode="&#x177;" horiz-adv-x="545" 
d="M55 -82q28 -21 56 -21q61 0 89 66l19 45l-215 502h143l107 -294l19 -69h2q9 40 17 67l100 296h138l-227 -587q-25 -67 -74.5 -100t-109.5 -33q-27 0 -53.5 8t-39.5 16l-13 9zM118 573l92 136h127l93 -136h-105l-50 81h-2l-50 -81h-105z" />
    <glyph glyph-name="Ydieresis" unicode="&#x178;" horiz-adv-x="606" 
d="M239 0v297l-237 413h146l111 -209l43 -95h2q21 51 43 95l110 209h146l-236 -413v-297h-128zM344 777v116h97v-116h-97zM160 777v116h98v-116h-98z" />
    <glyph glyph-name="Zacute" unicode="&#x179;" horiz-adv-x="610" 
d="M261 757l76 136h131l-105 -136h-102zM36 0v83l315 452q12 18 25 34t20 23l7 7v2q-20 -2 -53 -2h-298v111h513v-82l-315 -453q-12 -18 -25 -34t-20 -23l-7 -7v-2q20 2 53 2h319v-111h-534z" />
    <glyph glyph-name="zacute" unicode="&#x17a;" horiz-adv-x="524" 
d="M202 574l76 136h131l-105 -136h-102zM35 0v68l230 287q10 13 21 24.5l16 16.5l6 6v2q-15 -2 -48 -2h-215v108h434v-69l-229 -287q-10 -13 -21 -24.5l-17 -17.5l-6 -5v-2q15 3 48 3h232v-108h-451z" />
    <glyph glyph-name="Zdotaccent" unicode="&#x17b;" horiz-adv-x="610" 
d="M36 0v83l315 452q12 18 25 34t20 23l7 7v2q-20 -2 -53 -2h-298v111h513v-82l-315 -453q-12 -18 -25 -34t-20 -23l-7 -7v-2q20 2 53 2h319v-111h-534zM262 782v111h108v-111h-108z" />
    <glyph glyph-name="zdotaccent" unicode="&#x17c;" horiz-adv-x="524" 
d="M35 0v68l230 287q10 13 21 24.5l16 16.5l6 6v2q-15 -2 -48 -2h-215v108h434v-69l-229 -287q-10 -13 -21 -24.5l-17 -17.5l-6 -5v-2q15 3 48 3h232v-108h-451zM204 599v111h108v-111h-108z" />
    <glyph glyph-name="Zcaron" unicode="&#x17d;" horiz-adv-x="610" 
d="M252 757l-92 136h105l50 -81h2l50 81h105l-93 -136h-127zM36 0v83l315 452q12 18 25 34t20 23l7 7v2q-20 -2 -53 -2h-298v111h513v-82l-315 -453q-12 -18 -25 -34t-20 -23l-7 -7v-2q20 2 53 2h319v-111h-534z" />
    <glyph glyph-name="zcaron" unicode="&#x17e;" horiz-adv-x="524" 
d="M194 574l-92 136h105l50 -81h2l50 81h105l-93 -136h-127zM35 0v68l230 287q10 13 21 24.5l16 16.5l6 6v2q-15 -2 -48 -2h-215v108h434v-69l-229 -287q-10 -13 -21 -24.5l-17 -17.5l-6 -5v-2q15 3 48 3h232v-108h-451z" />
    <glyph glyph-name="longs" unicode="&#x17f;" horiz-adv-x="312" 
d="M97 0v402h-63v101h63v22q0 48 15.5 83.5t37.5 55t52.5 31.5t54.5 15.5t49 3.5l43 -3v-108q-11 2 -26 2q-99 0 -99 -85v-520h-127z" />
    <glyph glyph-name="florin" unicode="&#x192;" horiz-adv-x="586" 
d="M31 -2q45 -6 68 -6q97 0 105 92l22 250h-74v101h82l10 97q4 48 22.5 84t42 55.5t54.5 31.5t55.5 15.5t50.5 3.5l85 -8v-108q-53 7 -78 7q-38 0 -69.5 -19.5t-36.5 -73.5l-9 -85h109v-101h-117l-23 -262q-5 -59 -30 -99.5t-62 -58.5t-68 -24.5t-64 -6.5l-75 7v108z" />
    <glyph glyph-name="Scommaaccent" unicode="&#x218;" horiz-adv-x="557" 
d="M218 -55h105q7 -28 7 -54q0 -43 -26 -97h-94q20 53 20 87q0 32 -12 64zM35 85l70 97q35 -31 82.5 -53t93.5 -22q48 0 76 22.5t28 58.5q0 37 -34 64t-82.5 47t-97.5 44t-83 68t-34 105q0 92 68.5 149t173.5 57q125 0 208 -76l-57 -105q-30 27 -72.5 44.5t-83.5 17.5
q-49 0 -78.5 -22t-29.5 -59q0 -36 34 -62t82.5 -45t97.5 -42.5t83 -67.5t34 -107q0 -90 -63 -150t-173 -60q-68 0 -132 25t-111 72z" />
    <glyph glyph-name="scommaaccent" unicode="&#x219;" horiz-adv-x="457" 
d="M168 -55h105q7 -28 7 -54q0 -43 -26 -97h-94q20 53 20 87q0 32 -12 64zM27 63l57 84q61 -56 145 -56q34 0 52.5 13.5t18.5 37.5q0 22 -26 38t-63 29t-74.5 30.5t-63.5 50.5t-26 79q0 72 55.5 112.5t139.5 40.5q106 0 172 -58l-47 -89q-22 19 -58.5 31.5t-70.5 12.5
q-71 0 -71 -49q0 -22 26 -38t63.5 -29t74.5 -29.5t63 -49.5t26 -79q0 -68 -53 -112.5t-140 -44.5q-122 0 -200 75z" />
    <glyph glyph-name="uni021A" unicode="&#x21a;" horiz-adv-x="622" 
d="M252 -55h105q7 -28 7 -54q0 -43 -26 -97h-94q20 53 20 87q0 32 -12 64zM247 0v599h-233v111h594v-111h-233v-599h-128z" />
    <glyph glyph-name="uni021B" unicode="&#x21b;" horiz-adv-x="373" 
d="M164 -55h105q7 -28 7 -54q0 -43 -26 -97h-94q20 53 20 87q0 32 -12 64zM93 187v215h-66v101h69v146h124v-146h116v-101h-116v-199q0 -55 31.5 -75.5t69.5 -20.5q13 0 23 2v-111q-30 -3 -39 -3q-26 0 -50 3.5t-55 15.5t-53.5 31.5t-38 56t-15.5 85.5z" />
    <glyph glyph-name="circumflex" unicode="&#x2c6;" horiz-adv-x="494" 
d="M91 757l92 136h127l93 -136h-105l-50 81h-2l-50 -81h-105z" />
    <glyph glyph-name="caron" unicode="&#x2c7;" horiz-adv-x="494" 
d="M183 757l-92 136h105l50 -81h2l50 81h105l-93 -136h-127z" />
    <glyph glyph-name="breve" unicode="&#x2d8;" horiz-adv-x="493" 
d="M247 753q-63 0 -106 34t-43 94v12h90v-12q0 -29 17 -44t42 -15q23 0 40.5 15.5t17.5 44.5v11h90v-12q0 -60 -43 -94t-105 -34z" />
    <glyph glyph-name="dotaccent" unicode="&#x2d9;" horiz-adv-x="494" 
d="M193 782v111h108v-111h-108z" />
    <glyph glyph-name="ring" unicode="&#x2da;" horiz-adv-x="494" 
d="M247 745q-39 0 -67 21t-28 57q0 37 28 58t67 21q38 0 66 -21t28 -58q0 -36 -28 -57t-66 -21zM247 789q15 0 24.5 9.5t9.5 24.5q0 16 -9.5 25.5t-24.5 9.5t-24.5 -9.5t-9.5 -25.5q0 -15 9 -24.5t25 -9.5z" />
    <glyph glyph-name="ogonek" unicode="&#x2db;" horiz-adv-x="494" 
d="M160 -112q0 36 25.5 70t50.5 50l26 17l72 -13q-8 -6 -19.5 -16t-30.5 -34t-19 -40q0 -14 12.5 -23t24.5 -11l12 -2l-31 -94q-5 0 -13.5 1.5t-29.5 8t-37 16t-29.5 28t-13.5 42.5z" />
    <glyph glyph-name="tilde" unicode="&#x2dc;" horiz-adv-x="493" 
d="M65 758q0 137 112 137q29 0 51.5 -16.5t40.5 -32.5t34 -16q39 0 39 62h86q0 -137 -112 -137q-29 0 -51.5 16.5t-40.5 32.5t-34 16q-38 0 -38 -62h-87z" />
    <glyph glyph-name="hungarumlaut" unicode="&#x2dd;" horiz-adv-x="493" 
d="M234 757l76 136h125l-104 -136h-97zM59 757l71 136h108l-74 -136h-105z" />
    <glyph glyph-name="uni0400" unicode="&#x400;" horiz-adv-x="569" 
d="M86 0v710h425v-111h-296v-186h239v-111h-239v-191h312v-111h-441zM277 757l-104 136h131l76 -136h-103z" />
    <glyph glyph-name="uni0401" unicode="&#x401;" horiz-adv-x="569" 
d="M348 777v116h97v-116h-97zM164 777v116h98v-116h-98zM86 0v710h425v-111h-296v-186h239v-111h-239v-191h312v-111h-441z" />
    <glyph glyph-name="uni0402" unicode="&#x402;" horiz-adv-x="746" 
d="M200 0v599h-186v111h541v-111h-226v-164l-2 -31h2q79 38 173 38q100 0 158.5 -60.5t58.5 -156.5q0 -106 -61.5 -171.5t-162.5 -65.5q-24 0 -48 3v107q16 -2 31 -2q43 0 77.5 28.5t34.5 90.5q0 52 -30.5 82.5t-87.5 30.5q-37 0 -72.5 -9t-53.5 -17l-17 -9v-293h-129z" />
    <glyph glyph-name="uni0403" unicode="&#x403;" horiz-adv-x="506" 
d="M216 757l76 136h131l-105 -136h-102zM86 0v710h408v-111h-279v-599h-129z" />
    <glyph glyph-name="uni0404" unicode="&#x404;" horiz-adv-x="716" 
d="M45 358q0 156 101 260t264 104q48 0 93 -10t74.5 -24t52 -28.5t32.5 -24.5l10 -10l-62 -96q-3 3 -9.5 8t-26.5 18.5t-41 23.5t-53 18t-64 8q-95 0 -158 -55.5t-76 -141.5h340v-105h-340q13 -88 75 -143t160 -55q55 0 107.5 21.5t77.5 43.5l25 21l65 -91q-4 -5 -12 -12.5
t-34.5 -26.5t-56.5 -34t-78 -27t-99 -12q-161 0 -264 106t-103 264z" />
    <glyph glyph-name="uni0405" unicode="&#x405;" horiz-adv-x="557" 
d="M35 85l70 97q35 -31 82.5 -53t93.5 -22q48 0 76 22.5t28 58.5q0 37 -34 64t-82.5 47t-97.5 44t-83 68t-34 105q0 92 68.5 149t173.5 57q125 0 208 -76l-57 -105q-30 27 -72.5 44.5t-83.5 17.5q-49 0 -78.5 -22t-29.5 -59q0 -36 34 -62t82.5 -45t97.5 -42.5t83 -67.5
t34 -107q0 -90 -63 -150t-173 -60q-68 0 -132 25t-111 72z" />
    <glyph glyph-name="uni0406" unicode="&#x406;" horiz-adv-x="301" 
d="M86 0v710h129v-710h-129z" />
    <glyph glyph-name="uni0407" unicode="&#x407;" horiz-adv-x="301" 
d="M86 0v710h129v-710h-129zM195 777v116h97v-116h-97zM11 777v116h98v-116h-98z" />
    <glyph glyph-name="uni0408" unicode="&#x408;" horiz-adv-x="546" 
d="M24 210v41h128v-33q0 -48 23 -80t70 -32q41 0 67 26t26 80v387h-184v111h312v-500q0 -109 -65.5 -165.5t-155.5 -56.5q-91 0 -156 57t-65 165z" />
    <glyph glyph-name="uni0409" unicode="&#x409;" horiz-adv-x="970" 
d="M19 -6v118q80 7 114.5 94.5t34.5 280.5v223h421v-279h131q101 0 163.5 -59.5t62.5 -156.5q0 -96 -63 -155.5t-161 -59.5h-261v599h-163v-112q0 -119 -11.5 -202t-41.5 -150.5t-86 -102t-140 -38.5zM589 111h111q53 0 84 28t31 76t-31.5 76.5t-85.5 28.5h-109v-209z" />
    <glyph glyph-name="uni040A" unicode="&#x40a;" horiz-adv-x="1019" 
d="M86 0v710h129v-282h294v282h128v-282h135q99 0 161 -59t62 -155q0 -95 -62.5 -154.5t-160.5 -59.5h-263v317h-294v-317h-129zM637 111h112q53 0 84 27.5t31 75.5q0 47 -31.5 75t-85.5 28h-110v-206z" />
    <glyph glyph-name="uni040B" unicode="&#x40b;" horiz-adv-x="748" 
d="M200 0v599h-186v111h540v-111h-225v-165l-2 -33h2q84 41 175 41q102 0 152 -58.5t50 -160.5v-223h-131v204q0 124 -112 124q-74 0 -134 -38v-290h-129z" />
    <glyph glyph-name="uni040C" unicode="&#x40c;" horiz-adv-x="638" 
d="M277 757l76 136h131l-105 -136h-102zM86 0v710h129v-289h92l167 289h140l-201 -338v-2l213 -370h-146l-173 310h-92v-310h-129z" />
    <glyph glyph-name="uni040D" unicode="&#x40d;" horiz-adv-x="753" 
d="M86 0v710h129v-410l-7 -110h2q34 69 60 111l268 409h128v-710h-128v409l7 110h-2q-33 -68 -59 -110l-270 -409h-128zM336 757l-104 136h131l76 -136h-103z" />
    <glyph glyph-name="uni040E" unicode="&#x40e;" horiz-adv-x="612" 
d="M67 37l57 97q45 -35 80 -35q47 0 71 62l-278 549h142l151 -317l40 -94h2q13 47 29 93l114 318h135l-219 -561q-13 -33 -27 -58t-36 -50t-52 -39t-67 -14q-72 0 -142 49zM310 742q-68 0 -116 37.5t-48 100.5v13h97v-13q0 -30 20 -46.5t47 -16.5t47.5 16.5t20.5 47.5v12h96
v-13q0 -63 -48 -100.5t-116 -37.5z" />
    <glyph glyph-name="uni040F" unicode="&#x40f;" horiz-adv-x="737" 
d="M86 0v710h129v-599h307v599h129v-710h-224v-140h-116v140h-225z" />
    <glyph glyph-name="uni0410" unicode="&#x410;" horiz-adv-x="650" 
d="M8 0l249 710h136l249 -710h-132l-61 182h-249l-60 -182h-132zM232 287h185l-63 190l-28 110h-2q-16 -70 -28 -110z" />
    <glyph glyph-name="uni0411" unicode="&#x411;" horiz-adv-x="616" 
d="M86 0v710h436v-111h-307v-164h142q99 0 160.5 -59.5t61.5 -159.5q0 -96 -61 -156t-158 -60h-274zM215 111h122q53 0 82 28t29 77t-30 78.5t-83 29.5h-120v-213z" />
    <glyph glyph-name="uni0412" unicode="&#x412;" horiz-adv-x="633" 
d="M86 0v710h253q99 0 159.5 -48.5t60.5 -134.5q0 -50 -23 -90t-63 -62v-2q56 -16 85.5 -63t29.5 -104q0 -101 -70 -153.5t-175 -52.5h-257zM215 420h125q41 0 64.5 25.5t23.5 65.5q0 39 -23.5 63.5t-66.5 24.5h-123v-179zM215 111h138q48 0 75.5 28.5t27.5 74.5
q0 45 -27.5 73.5t-75.5 28.5h-138v-205z" />
    <glyph glyph-name="uni0413" unicode="&#x413;" horiz-adv-x="506" 
d="M86 0v710h408v-111h-279v-599h-129z" />
    <glyph glyph-name="uni0414" unicode="&#x414;" horiz-adv-x="740" 
d="M212 111h282v488h-190v-53q0 -286 -92 -435zM7 111h72q103 156 103 444v155h441v-599h79v-251h-115v140h-461v-140h-119v251z" />
    <glyph glyph-name="uni0415" unicode="&#x415;" horiz-adv-x="569" 
d="M86 0v710h425v-111h-296v-186h239v-111h-239v-191h312v-111h-441z" />
    <glyph glyph-name="uni0416" unicode="&#x416;" horiz-adv-x="932" 
d="M13 0l200 370v2l-185 338h139l152 -289h83v289h128v-289h83l152 289h139l-186 -338v-2l201 -370h-145l-161 310h-83v-310h-128v310h-83l-161 -310h-145z" />
    <glyph glyph-name="uni0417" unicode="&#x417;" horiz-adv-x="555" 
d="M22 89l70 86q29 -31 72 -52t88 -21q58 0 92 29t34 80q0 46 -30.5 72.5t-82.5 26.5h-87v104h70q48 0 79 28t31 70q0 43 -28 70.5t-81 27.5q-81 0 -154 -60l-52 94q94 78 228 78q91 0 154.5 -52t63.5 -142q0 -105 -98 -158v-2q55 -17 87 -60t32 -105q0 -98 -70.5 -156.5
t-175.5 -58.5q-68 0 -132.5 26.5t-109.5 74.5z" />
    <glyph glyph-name="uni0418" unicode="&#x418;" horiz-adv-x="753" 
d="M86 0v710h129v-410l-7 -110h2q34 69 60 111l268 409h128v-710h-128v409l7 110h-2q-33 -68 -59 -110l-270 -409h-128z" />
    <glyph glyph-name="uni0419" unicode="&#x419;" horiz-adv-x="753" 
d="M382 742q-68 0 -116 37.5t-48 100.5v13h97v-13q0 -30 20 -46.5t47 -16.5t47.5 16.5t20.5 47.5v12h96v-13q0 -63 -48 -100.5t-116 -37.5zM86 0v710h129v-410l-7 -110h2q34 69 60 111l268 409h128v-710h-128v409l7 110h-2q-33 -68 -59 -110l-270 -409h-128z" />
    <glyph glyph-name="uni041A" unicode="&#x41a;" horiz-adv-x="638" 
d="M86 0v710h129v-289h92l167 289h140l-201 -338v-2l213 -370h-146l-173 310h-92v-310h-129z" />
    <glyph glyph-name="uni041B" unicode="&#x41b;" horiz-adv-x="692" 
d="M14 110q80 11 116.5 106.5t36.5 299.5v194h439v-710h-129v599h-187v-85q0 -262 -65 -389.5t-211 -132.5v118z" />
    <glyph glyph-name="uni041C" unicode="&#x41c;" horiz-adv-x="860" 
d="M59 0l58 710h137l140 -351l35 -104h2q19 62 35 104l140 351h137l58 -710h-129l-29 397q-2 21 -2 48.5t1 44.5v17h-2q-23 -69 -39 -110l-115 -275h-112l-115 275l-39 111h-2q3 -64 -1 -111l-29 -397h-129z" />
    <glyph glyph-name="uni041D" unicode="&#x41d;" horiz-adv-x="754" 
d="M86 0v710h129v-301h325v301h128v-710h-128v298h-325v-298h-129z" />
    <glyph glyph-name="uni041E" unicode="&#x41e;" horiz-adv-x="822" 
d="M44 360q0 153 105.5 257.5t261.5 104.5t261.5 -104.5t105.5 -257.5q0 -157 -105.5 -264.5t-261.5 -107.5t-261.5 107.5t-105.5 264.5zM177 360q0 -108 68 -181t166 -73t166 73t68 181q0 103 -68 173.5t-166 70.5t-166 -70.5t-68 -173.5z" />
    <glyph glyph-name="uni041F" unicode="&#x41f;" horiz-adv-x="747" 
d="M86 0v710h575v-710h-129v599h-317v-599h-129z" />
    <glyph glyph-name="uni0420" unicode="&#x420;" horiz-adv-x="612" 
d="M86 0v710h274q100 0 163 -64t63 -167t-63 -168.5t-163 -65.5h-145v-245h-129zM215 357h121q56 0 87.5 33t31.5 89q0 55 -31.5 87.5t-85.5 32.5h-123v-242z" />
    <glyph glyph-name="uni0421" unicode="&#x421;" horiz-adv-x="716" 
d="M45 358q0 156 103 260t262 104q162 0 262 -97l-62 -96q-39 33 -91.5 54t-102.5 21q-112 0 -175 -70t-63 -174q0 -105 64 -179.5t175 -74.5q114 0 206 90l68 -93q-113 -115 -279 -115q-165 0 -266 105t-101 265z" />
    <glyph glyph-name="uni0422" unicode="&#x422;" horiz-adv-x="623" 
d="M247 0v599h-233v111h594v-111h-233v-599h-128z" />
    <glyph glyph-name="uni0423" unicode="&#x423;" horiz-adv-x="612" 
d="M67 37l57 97q45 -35 80 -35q47 0 71 62l-278 549h142l151 -317l40 -94h2q13 47 29 93l114 318h135l-219 -561q-13 -33 -27 -58t-36 -50t-52 -39t-67 -14q-72 0 -142 49z" />
    <glyph glyph-name="uni0424" unicode="&#x424;" horiz-adv-x="845" 
d="M33 378q0 130 90.5 212t234.5 82v78h129v-78q144 0 234.5 -82t90.5 -212q0 -133 -90 -216.5t-235 -83.5v-90h-129v90q-144 0 -234.5 84t-90.5 216zM487 186q86 0 140 53.5t54 138.5q0 83 -54 134.5t-140 51.5v-378zM165 378q0 -85 53.5 -138.5t139.5 -53.5v378
q-86 0 -139.5 -51.5t-53.5 -134.5z" />
    <glyph glyph-name="uni0425" unicode="&#x425;" horiz-adv-x="622" 
d="M13 0l220 360l-212 350h147l98 -174l44 -86h2q20 44 44 86l99 174h147l-213 -350l221 -360h-144l-111 191l-44 84h-2q-20 -43 -43 -84l-110 -191h-143z" />
    <glyph glyph-name="uni0426" unicode="&#x426;" horiz-adv-x="771" 
d="M86 0v710h129v-599h307v599h129v-599h84v-251h-115v140h-534z" />
    <glyph glyph-name="uni0427" unicode="&#x427;" horiz-adv-x="660" 
d="M263 264q-109 0 -163 55.5t-54 157.5v233h131v-204q0 -125 119 -125q81 0 146 42v287h131v-710h-131v275l2 33h-2q-86 -44 -179 -44z" />
    <glyph glyph-name="uni0428" unicode="&#x428;" horiz-adv-x="1017" 
d="M86 0v710h129v-599h229v599h129v-599h229v599h128v-710h-844z" />
    <glyph glyph-name="uni0429" unicode="&#x429;" horiz-adv-x="1053" 
d="M86 0v710h129v-599h229v599h129v-599h229v599h128v-599h88v-251h-116v140h-816z" />
    <glyph glyph-name="uni042A" unicode="&#x42a;" horiz-adv-x="706" 
d="M189 0v599h-182v111h311v-249h139q98 0 160 -63.5t62 -168.5q0 -102 -61 -165.5t-159 -63.5h-270zM318 111h118q53 0 82.5 31.5t29.5 86.5t-30.5 88t-83.5 33h-116v-239z" />
    <glyph glyph-name="uni042B" unicode="&#x42b;" horiz-adv-x="876" 
d="M661 0v710h128v-710h-128zM86 0v710h129v-249h132q99 0 160.5 -63.5t61.5 -168.5q0 -102 -61 -165.5t-158 -63.5h-264zM215 111h112q53 0 82 31.5t29 86.5t-30 88t-83 33h-110v-239z" />
    <glyph glyph-name="uni042C" unicode="&#x42c;" horiz-adv-x="603" 
d="M86 0v710h129v-249h139q98 0 160 -63.5t62 -168.5q0 -102 -61 -165.5t-159 -63.5h-270zM215 111h118q53 0 82.5 31.5t29.5 86.5t-30.5 88t-83.5 33h-116v-239z" />
    <glyph glyph-name="uni042D" unicode="&#x42d;" horiz-adv-x="716" 
d="M28 97l65 91q39 -37 95 -60t116 -23q94 0 156 56t75 142h-340v105h341q-11 86 -74 141.5t-157 55.5q-110 0 -202 -80l-62 97q48 49 119 74.5t149 25.5q163 0 263 -104t100 -259q0 -159 -104 -265t-264 -106q-162 0 -276 109z" />
    <glyph glyph-name="uni042E" unicode="&#x42e;" horiz-adv-x="1083" 
d="M86 0v710h129v-301h110q16 135 115 224t239 89q153 0 256.5 -104.5t103.5 -257.5q0 -157 -103.5 -264.5t-256.5 -107.5q-137 0 -234.5 87.5t-117.5 222.5h-112v-298h-129zM453 360q0 -108 65.5 -181t160.5 -73t161 73.5t66 180.5q0 103 -66 173t-161 70t-160.5 -70
t-65.5 -173z" />
    <glyph glyph-name="uni042F" unicode="&#x42f;" horiz-adv-x="634" 
d="M17 0l150 250l23 37v2q-63 28 -94.5 82t-31.5 124q0 72 32.5 122.5t86.5 73.5q44 19 135 19h230v-710h-129v265h-104l-154 -265h-144zM307 373h112v226h-91q-60 0 -89 -18q-44 -27 -44 -91q0 -56 30 -86.5t82 -30.5z" />
    <glyph glyph-name="uni0430" unicode="&#x430;" horiz-adv-x="536" 
d="M29 141q0 54 29.5 92t78 55.5t94 24.5t95.5 7h22v7q0 90 -96 90q-70 0 -142 -49l-47 91q33 26 89 44.5t111 18.5q100 0 156 -53.5t56 -149.5v-319h-118v43l3 37h-2q-24 -41 -67 -66.5t-94 -25.5q-71 0 -119.5 42.5t-48.5 110.5zM155 152q0 -27 20.5 -47t56.5 -20
q51 0 84 42t33 92v14h-22q-172 0 -172 -81z" />
    <glyph glyph-name="uni0431" unicode="&#x431;" horiz-adv-x="596" 
d="M46 298q0 146 57 233t194 140l176 69l38 -103l-194 -74q-70 -29 -107.5 -69t-41.5 -102h2q59 74 168 74q98 0 158 -64t60 -170q0 -107 -69 -175.5t-181 -68.5q-128 0 -194 84.5t-66 225.5zM175 231q0 -63 36 -100.5t90 -37.5t90.5 37t36.5 100t-36 100.5t-89 37.5
q-55 0 -91.5 -38.5t-36.5 -98.5z" />
    <glyph glyph-name="uni0432" unicode="&#x432;" horiz-adv-x="538" 
d="M68 0v510h237q79 0 125.5 -34.5t46.5 -97.5q0 -36 -17.5 -66.5t-49.5 -45.5v-1q44 -11 67 -43.5t23 -73.5q0 -73 -52.5 -110.5t-137.5 -37.5h-242zM195 300h83q35 0 53 18.5t18 48.5q0 60 -73 60h-81v-127zM195 84h93q41 0 62.5 18.5t21.5 49.5q0 32 -22 50.5t-62 18.5
h-93v-137z" />
    <glyph glyph-name="uni0433" unicode="&#x433;" horiz-adv-x="422" 
d="M68 0v510h335v-108h-208v-402h-127z" />
    <glyph glyph-name="uni0434" unicode="&#x434;" horiz-adv-x="616" 
d="M203 102h189v306h-127v-24q0 -179 -62 -282zM13 102h63q68 100 68 302v106h375v-408h73v-222h-115v120h-346v-120h-118v222z" />
    <glyph glyph-name="uni0435" unicode="&#x435;" horiz-adv-x="561" 
d="M37 255q0 118 72.5 192.5t187.5 74.5q106 0 166 -68.5t60 -173.5q0 -17 -4 -49h-351q6 -64 49 -99.5t104 -35.5q76 0 146 56l50 -91q-38 -34 -93.5 -53.5t-111.5 -19.5q-123 0 -199 77.5t-76 189.5zM171 318h225q-1 50 -29.5 79t-72.5 29q-48 0 -81 -29.5t-42 -78.5z" />
    <glyph glyph-name="uni0436" unicode="&#x436;" horiz-adv-x="785" 
d="M13 0l156 262v2l-143 246h132l113 -198h62v198h119v-198h62l113 198h132l-142 -246v-2l156 -262h-140l-117 205h-64v-205h-119v205h-64l-117 -205h-139z" />
    <glyph glyph-name="uni0437" unicode="&#x437;" horiz-adv-x="458" 
d="M22 63l54 81q60 -58 129 -58q41 0 64.5 18.5t23.5 50.5q0 63 -85 63h-62v88h52q79 0 79 59q0 61 -76 61q-60 0 -123 -42l-41 81q77 57 188 57q78 0 128.5 -37.5t50.5 -102.5q0 -82 -70 -115v-2q86 -32 86 -117q0 -76 -57 -118t-144 -42q-117 0 -197 75z" />
    <glyph glyph-name="uni0438" unicode="&#x438;" horiz-adv-x="606" 
d="M68 0v510h121v-273q0 -37 -3 -61h2q4 9 38 61l189 273h123v-510h-121v272q0 22 3 61h-2q-3 -7 -38 -61l-189 -272h-123z" />
    <glyph glyph-name="uni0439" unicode="&#x439;" horiz-adv-x="606" 
d="M303 559q-68 0 -116 37.5t-48 100.5v13h97v-13q0 -30 20 -46.5t47 -16.5t47.5 16.5t20.5 47.5v12h96v-13q0 -63 -48 -100.5t-116 -37.5zM68 0v510h121v-273q0 -37 -3 -61h2q4 9 38 61l189 273h123v-510h-121v272q0 22 3 61h-2q-3 -7 -38 -61l-189 -272h-123z" />
    <glyph glyph-name="uni043A" unicode="&#x43a;" horiz-adv-x="549" 
d="M68 0v510h127v-195h62l124 195h141l-162 -243v-2l182 -265h-147l-134 207h-66v-207h-127z" />
    <glyph glyph-name="uni043B" unicode="&#x43b;" horiz-adv-x="567" 
d="M20 -5v112q52 7 79.5 61.5t27.5 181.5v160h372v-510h-127v407h-124v-57q0 -174 -53 -262.5t-175 -92.5z" />
    <glyph glyph-name="uni043C" unicode="&#x43c;" horiz-adv-x="743" 
d="M47 0l46 510h144l108 -263l25 -65h2l25 65l110 263h142l46 -510h-122l-18 276l1 87h-2q-14 -38 -30 -74l-100 -225h-105l-100 224l-31 75h-2l1 -87l-18 -276h-122z" />
    <glyph glyph-name="uni043D" unicode="&#x43d;" horiz-adv-x="608" 
d="M68 0v510h127v-197h218v197h127v-510h-127v206h-218v-206h-127z" />
    <glyph glyph-name="uni043E" unicode="&#x43e;" horiz-adv-x="634" 
d="M37 255q0 116 81 191.5t198 75.5q118 0 199.5 -75.5t81.5 -191.5t-81 -191.5t-199 -75.5t-199 75.5t-81 191.5zM166 255q0 -70 43.5 -114.5t107.5 -44.5t108 44.5t44 114.5q0 69 -44.5 114t-107.5 45t-107 -45t-44 -114z" />
    <glyph glyph-name="uni043F" unicode="&#x43f;" horiz-adv-x="601" 
d="M68 0v510h465v-510h-127v402h-211v-402h-127z" />
    <glyph glyph-name="uni0440" unicode="&#x440;" horiz-adv-x="614" 
d="M68 -200v710h116v-38l-2 -36h2q25 41 68.5 63.5t95.5 22.5q103 0 164.5 -74t61.5 -193q0 -120 -65.5 -193.5t-167.5 -73.5q-91 0 -147 72h-2q3 -18 3 -44v-216h-127zM191 252q0 -64 34 -110.5t93 -46.5q55 0 91.5 42.5t36.5 115.5q0 72 -35 116t-91 44q-55 0 -92 -40.5
t-37 -120.5z" />
    <glyph glyph-name="uni0441" unicode="&#x441;" horiz-adv-x="548" 
d="M37 255q0 112 76.5 189.5t200.5 77.5q55 0 108 -19t88 -57l-57 -87q-55 55 -132 55q-69 0 -112 -45.5t-43 -112.5t44 -113.5t115 -46.5q83 0 150 65l49 -90q-36 -38 -92.5 -60.5t-117.5 -22.5q-124 0 -200.5 76.5t-76.5 190.5z" />
    <glyph glyph-name="uni0442" unicode="&#x442;" horiz-adv-x="500" 
d="M187 0v402h-168v108h463v-108h-169v-402h-126z" />
    <glyph glyph-name="uni0443" unicode="&#x443;" horiz-adv-x="545" 
d="M55 -82q28 -21 56 -21q61 0 89 66l19 45l-215 502h143l107 -294l19 -69h2q9 40 17 67l100 296h138l-227 -587q-25 -67 -74.5 -100t-109.5 -33q-27 0 -53.5 8t-39.5 16l-13 9z" />
    <glyph glyph-name="uni0444" unicode="&#x444;" horiz-adv-x="749" 
d="M38 255q0 115 78.5 188.5t198.5 77.5v179h120v-179q120 -4 198 -77.5t78 -188.5q0 -116 -78 -189t-198 -78v-188h-120v188q-120 5 -198.5 78t-78.5 189zM435 90q68 5 110.5 49.5t42.5 115.5q0 72 -42.5 115.5t-110.5 48.5v-329zM162 255q0 -71 42.5 -115.5t110.5 -49.5
v329q-68 -5 -110.5 -48.5t-42.5 -115.5z" />
    <glyph glyph-name="uni0445" unicode="&#x445;" horiz-adv-x="519" 
d="M15 0l168 258l-164 252h144l79 -139l16 -32h2l17 32l79 139h144l-164 -252l169 -258h-142l-88 148l-15 27h-2q-7 -16 -14 -27l-88 -148h-141z" />
    <glyph glyph-name="uni0446" unicode="&#x446;" horiz-adv-x="624" 
d="M68 0v510h127v-402h204v402h127v-402h73v-228h-115v120h-416z" />
    <glyph glyph-name="uni0447" unicode="&#x447;" horiz-adv-x="544" 
d="M210 169q-78 0 -125 42.5t-47 127.5v171h125v-150q0 -85 87 -85q53 0 99 32v203h126v-510h-126v174l1 28h-2q-60 -33 -138 -33z" />
    <glyph glyph-name="uni0448" unicode="&#x448;" horiz-adv-x="817" 
d="M68 0v510h121v-402h159v402h121v-402h159v402h121v-510h-681z" />
    <glyph glyph-name="uni0449" unicode="&#x449;" horiz-adv-x="847" 
d="M68 0v510h121v-402h159v402h121v-402h159v402h121v-402h72v-228h-114v120h-639z" />
    <glyph glyph-name="uni044A" unicode="&#x44a;" horiz-adv-x="581" 
d="M143 0v402h-134v108h261v-175h95q91 0 141 -43.5t50 -125.5q0 -77 -47.5 -121.5t-144.5 -44.5h-221zM270 87h73q43 0 64.5 22t21.5 58q0 37 -22 59.5t-65 22.5h-72v-162z" />
    <glyph glyph-name="uni044B" unicode="&#x44b;" horiz-adv-x="743" 
d="M548 0v510h127v-510h-127zM68 0v510h127v-175h91q91 0 141.5 -43.5t50.5 -125.5q0 -77 -48 -121.5t-145 -44.5h-217zM195 87h70q42 0 63.5 22t21.5 58q0 37 -22 59.5t-65 22.5h-68v-162z" />
    <glyph glyph-name="uni044C" unicode="&#x44c;" horiz-adv-x="507" 
d="M68 0v510h127v-175h95q91 0 141.5 -43.5t50.5 -125.5q0 -77 -48 -121.5t-145 -44.5h-221zM195 87h74q42 0 63.5 22t21.5 58q0 37 -22 59.5t-65 22.5h-72v-162z" />
    <glyph glyph-name="uni044D" unicode="&#x44d;" horiz-adv-x="546" 
d="M24 63l47 88q65 -62 154 -62q63 0 106.5 34t54.5 89h-223v87h223q-10 55 -53 88.5t-103 33.5q-81 0 -142 -55l-54 85q35 35 89 53t112 18q123 0 198.5 -77.5t75.5 -189.5q0 -114 -76.5 -190.5t-200.5 -76.5t-208 75z" />
    <glyph glyph-name="uni044E" unicode="&#x44e;" horiz-adv-x="851" 
d="M68 0v510h127v-202h84q17 95 90 154.5t173 59.5q115 0 193.5 -75.5t78.5 -191.5t-78 -191.5t-193 -75.5q-102 0 -175 60t-90 157h-83v-205h-127zM400 255q0 -70 41 -114.5t102 -44.5q60 0 101 44.5t41 114.5t-41 114.5t-101 44.5q-61 0 -102 -44.5t-41 -114.5z" />
    <glyph glyph-name="uni044F" unicode="&#x44f;" horiz-adv-x="530" 
d="M18 0l112 163l23 31v1q-45 16 -74 56.5t-29 93.5q0 78 49.5 121.5t133.5 43.5h229v-510h-127v173h-66l-114 -173h-137zM268 261h67v166h-66q-92 0 -92 -81q0 -42 25 -63.5t66 -21.5z" />
    <glyph glyph-name="uni0450" unicode="&#x450;" horiz-adv-x="561" 
d="M37 255q0 118 72.5 192.5t187.5 74.5q106 0 166 -68.5t60 -173.5q0 -17 -4 -49h-351q6 -64 49 -99.5t104 -35.5q76 0 146 56l50 -91q-38 -34 -93.5 -53.5t-111.5 -19.5q-123 0 -199 77.5t-76 189.5zM171 318h225q-1 50 -29.5 79t-72.5 29q-48 0 -81 -29.5t-42 -78.5z
M258 574l-104 136h131l76 -136h-103z" />
    <glyph glyph-name="uni0451" unicode="&#x451;" horiz-adv-x="561" 
d="M335 594v116h97v-116h-97zM151 594v116h98v-116h-98zM37 255q0 118 72.5 192.5t187.5 74.5q106 0 166 -68.5t60 -173.5q0 -17 -4 -49h-351q6 -64 49 -99.5t104 -35.5q76 0 146 56l50 -91q-38 -34 -93.5 -53.5t-111.5 -19.5q-123 0 -199 77.5t-76 189.5zM171 318h225
q-1 50 -29.5 79t-72.5 29q-48 0 -81 -29.5t-42 -78.5z" />
    <glyph glyph-name="uni0452" unicode="&#x452;" horiz-adv-x="613" 
d="M68 0v541h-61v88h61v81h127v-81h189v-88h-189v-138l-2 -43h2q21 41 68 71t108 30q178 0 178 -194v-259q0 -52 -15 -92.5t-36.5 -63.5t-50.5 -37.5t-53 -19t-48 -4.5l-49 3v107q15 -2 32 -2q93 0 93 110v232q0 51 -17.5 77.5t-62.5 26.5q-50 0 -87 -29.5t-51 -76.5
q-9 -26 -9 -66v-173h-127z" />
    <glyph glyph-name="uni0453" unicode="&#x453;" horiz-adv-x="422" 
d="M162 574l76 136h131l-105 -136h-102zM68 0v510h335v-108h-208v-402h-127z" />
    <glyph glyph-name="uni0454" unicode="&#x454;" horiz-adv-x="549" 
d="M37 255q0 112 76.5 189.5t200.5 77.5q60 0 109.5 -18t68.5 -36l20 -17l-55 -87q-6 6 -17.5 15t-47.5 24.5t-73 15.5q-62 0 -105 -31.5t-54 -85.5h223v-88h-223q11 -57 54.5 -91t109.5 -34q41 0 79.5 16.5t56.5 33.5l18 17l48 -89q-3 -3 -9 -8.5t-26 -19t-43 -24
t-59.5 -19t-74.5 -8.5q-124 0 -200.5 76.5t-76.5 190.5z" />
    <glyph glyph-name="uni0455" unicode="&#x455;" horiz-adv-x="457" 
d="M27 63l57 84q61 -56 145 -56q34 0 52.5 13.5t18.5 37.5q0 22 -26 38t-63 29t-74.5 30.5t-63.5 50.5t-26 79q0 72 55.5 112.5t139.5 40.5q106 0 172 -58l-47 -89q-22 19 -58.5 31.5t-70.5 12.5q-71 0 -71 -49q0 -22 26 -38t63.5 -29t74.5 -29.5t63 -49.5t26 -79
q0 -68 -53 -112.5t-140 -44.5q-122 0 -200 75z" />
    <glyph glyph-name="uni0456" unicode="&#x456;" horiz-adv-x="263" 
d="M68 597v113h127v-113h-127zM68 0v510h127v-510h-127z" />
    <glyph glyph-name="uni0457" unicode="&#x457;" horiz-adv-x="263" 
d="M176 594v116h97v-116h-97zM-8 594v116h98v-116h-98zM68 0v510h127v-510h-127z" />
    <glyph glyph-name="uni0458" unicode="&#x458;" horiz-adv-x="263" 
d="M68 597v113h127v-113h-127zM68 -5v515h127v-525q0 -49 -16 -85.5t-38.5 -56t-53.5 -31.5t-55.5 -15.5t-49.5 -3.5q-18 0 -38 3v107q12 -2 22 -2q17 0 32 3.5t32 12t27.5 29t10.5 49.5z" />
    <glyph glyph-name="uni0459" unicode="&#x459;" horiz-adv-x="779" 
d="M24 -5v112q53 7 81 60t28 177v166h339v-185h92q91 0 141.5 -42.5t50.5 -122.5q0 -75 -48 -117.5t-145 -42.5h-218v407h-92v-59q0 -180 -52 -264.5t-177 -88.5zM472 87h76q42 0 63.5 19.5t21.5 53.5q0 35 -21.5 56t-64.5 21h-75v-150z" />
    <glyph glyph-name="uni045A" unicode="&#x45a;" horiz-adv-x="837" 
d="M68 0v510h127v-186h208v186h127v-188h90q91 0 142.5 -41.5t51.5 -119.5q0 -75 -48 -118t-145 -43h-218v224h-208v-224h-127zM530 87h76q86 0 86 74q0 35 -23 54.5t-66 19.5h-73v-148z" />
    <glyph glyph-name="uni045B" unicode="&#x45b;" horiz-adv-x="613" 
d="M68 0v541h-61v88h61v81h127v-81h189v-88h-189v-138l-2 -43h2q21 42 67.5 71.5t108.5 29.5q178 0 178 -193v-268h-127v242q0 50 -17.5 76.5t-62.5 26.5q-50 0 -87 -29t-51 -76q-9 -26 -9 -67v-173h-127z" />
    <glyph glyph-name="uni045C" unicode="&#x45c;" horiz-adv-x="549" 
d="M219 574l76 136h131l-105 -136h-102zM68 0v510h127v-195h62l124 195h141l-162 -243v-2l182 -265h-147l-134 207h-66v-207h-127z" />
    <glyph glyph-name="uni045D" unicode="&#x45d;" horiz-adv-x="606" 
d="M68 0v510h121v-273q0 -37 -3 -61h2q4 9 38 61l189 273h123v-510h-121v272q0 22 3 61h-2q-3 -7 -38 -61l-189 -272h-123zM270 574l-104 136h131l76 -136h-103z" />
    <glyph glyph-name="uni045E" unicode="&#x45e;" horiz-adv-x="545" 
d="M55 -82q28 -21 56 -21q61 0 89 66l19 45l-215 502h143l107 -294l19 -69h2q9 40 17 67l100 296h138l-227 -587q-25 -67 -74.5 -100t-109.5 -33q-27 0 -53.5 8t-39.5 16l-13 9zM274 559q-68 0 -116 37.5t-48 100.5v13h97v-13q0 -30 20 -46.5t47 -16.5t47.5 16.5t20.5 47.5
v12h96v-13q0 -63 -48 -100.5t-116 -37.5z" />
    <glyph glyph-name="uni045F" unicode="&#x45f;" horiz-adv-x="588" 
d="M68 0v510h127v-402h198v402h126v-510h-168v-120h-114v120h-169z" />
    <glyph glyph-name="uni0462" unicode="&#x462;" horiz-adv-x="700" 
d="M181 0v539h-171v99h173v94h126v-94h204v-99h-204v-104h140q99 0 161.5 -60t62.5 -156q0 -97 -62.5 -158t-160.5 -61h-269zM309 111h118q53 0 84 29t31 79q0 48 -31.5 76.5t-85.5 28.5h-116v-213z" />
    <glyph glyph-name="uni0463" unicode="&#x463;" horiz-adv-x="560" 
d="M119 0v458h-122v92h121v160h127v-160h164v-92h-163v-123h99q91 0 141 -43.5t50 -125.5q0 -77 -47.5 -121.5t-144.5 -44.5h-225zM246 87h77q43 0 64.5 22t21.5 58q0 37 -22 59.5t-65 22.5h-76v-162z" />
    <glyph glyph-name="uni0472" unicode="&#x472;" horiz-adv-x="822" 
d="M44 360q0 153 105 257.5t262 104.5t262 -104.5t105 -257.5q0 -158 -105 -265t-262 -107t-262 107t-105 265zM412 101q87 0 151.5 58t80.5 148h-466q17 -91 81.5 -148.5t152.5 -57.5zM412 607q-89 0 -154 -56t-80 -144h467q-16 88 -81 144t-152 56z" />
    <glyph glyph-name="uni0473" unicode="&#x473;" horiz-adv-x="634" 
d="M37 255q0 116 81 191.5t198 75.5q118 0 199.5 -75.5t81.5 -191.5t-81 -191.5t-199 -75.5t-199 75.5t-81 191.5zM318 82q59 0 104.5 38t56.5 100h-323q10 -62 55.5 -100t106.5 -38zM318 427q-60 0 -104.5 -36t-56.5 -96h321q-13 59 -57.5 95.5t-102.5 36.5z" />
    <glyph glyph-name="uni0474" unicode="&#x474;" horiz-adv-x="692" 
d="M261 0l-256 710h139l156 -463l27 -104h2q14 63 27 104l129 392q15 44 36 57.5t69 13.5h89v-112h-24q-30 0 -43 -8t-24 -40l-193 -550h-134z" />
    <glyph glyph-name="uni0475" unicode="&#x475;" horiz-adv-x="578" 
d="M197 0l-185 510h134l106 -316l18 -77h2q9 47 19 77l71 222q16 52 42.5 73t78.5 21h77v-109h-23q-30 0 -43.5 -10t-24.5 -42l-121 -349h-151z" />
    <glyph glyph-name="uni048A" unicode="&#x48a;" horiz-adv-x="803" 
d="M86 0v710h129v-410l-7 -110h2q34 69 60 111l268 409h128v-599h120v-70l-79 -181h-90l39 140h-118v409l7 110h-2q-33 -68 -59 -110l-270 -409h-128zM384 742q-68 0 -116 37.5t-48 100.5v13h97v-13q0 -30 20 -46.5t47 -16.5t47.5 16.5t20.5 47.5v12h96v-13
q0 -63 -48 -100.5t-116 -37.5z" />
    <glyph glyph-name="uni048B" unicode="&#x48b;" horiz-adv-x="662" 
d="M68 0v510h121v-273q0 -37 -3 -61h2q4 9 38 61l189 273h123v-403h105v-67l-69 -160h-85l33 120h-105v272q0 22 3 61h-2q-3 -7 -38 -61l-189 -272h-123zM308 559q-68 0 -116 37.5t-48 100.5v13h97v-13q0 -30 20 -46.5t47 -16.5t47.5 16.5t20.5 47.5v12h96v-13
q0 -63 -48 -100.5t-116 -37.5z" />
    <glyph glyph-name="uni048C" unicode="&#x48c;" horiz-adv-x="692" 
d="M170 0v561h-161v98h164v91h126v-91h192v-98h-192v-123h143q99 0 161.5 -60.5t62.5 -158.5q0 -97 -62.5 -158t-160.5 -61h-273zM299 111h121q53 0 84 29t31 79t-31.5 79t-85.5 29h-119v-216z" />
    <glyph glyph-name="uni048D" unicode="&#x48d;" horiz-adv-x="563" 
d="M122 0v458h-122v92h121v160h127v-160h164v-92h-163v-123h99q91 0 141 -43.5t50 -125.5q0 -77 -47.5 -121.5t-144.5 -44.5h-225zM249 87h77q43 0 64.5 22t21.5 58q0 37 -22 59.5t-65 22.5h-76v-162z" />
    <glyph glyph-name="uni048E" unicode="&#x48e;" horiz-adv-x="629" 
d="M86 0v710h274q100 0 163 -64t63 -167q0 -104 -63 -169l57 -72l-67 -56l-63 79q-39 -16 -90 -16h-145v-245h-129zM316 430l68 56l66 -84q16 32 16 70q0 60 -32.5 93.5t-90.5 33.5h-128v-255h126q19 0 39 5z" />
    <glyph glyph-name="uni048F" unicode="&#x48f;" horiz-adv-x="620" 
d="M68 -200v710h116v-38l-2 -36h2q2 3 5.5 9t18 21t31.5 26t46.5 20.5t62.5 9.5q103 0 164.5 -74t61.5 -193q0 -110 -57 -183l54 -65l-67 -58l-55 65q-49 -26 -108 -26q-44 0 -81 18t-52 36l-14 18h-2q3 -18 3 -44v-216h-127zM310 181l67 58l62 -75q18 38 18 85
q0 74 -36.5 119t-95.5 45q-58 0 -96 -41t-38 -124q0 -65 35 -111.5t97 -46.5q28 0 53 11z" />
    <glyph glyph-name="uni0490" unicode="&#x490;" horiz-adv-x="517" 
d="M86 0v710h314v106h105v-217h-290v-599h-129z" />
    <glyph glyph-name="uni0491" unicode="&#x491;" horiz-adv-x="428" 
d="M68 0v510h243v102h99v-210h-215v-402h-127z" />
    <glyph glyph-name="uni0492" unicode="&#x492;" horiz-adv-x="516" 
d="M91 0v298h-59v91h59v321h408v-111h-280v-210h158v-91h-158v-298h-128z" />
    <glyph glyph-name="uni0493" unicode="&#x493;" horiz-adv-x="431" 
d="M73 0v196h-61v81h61v233h336v-108h-209v-125h126v-81h-126v-196h-127z" />
    <glyph glyph-name="uni0494" unicode="&#x494;" horiz-adv-x="626" 
d="M86 0v710h409v-111h-280v-200q58 24 128 24q119 0 184 -73t65 -214q0 -162 -70.5 -240.5t-200.5 -78.5v104q63 0 99.5 47.5t36.5 167.5q0 90 -34 133t-110 43q-45 0 -98 -21v-291h-129z" />
    <glyph glyph-name="uni0495" unicode="&#x495;" horiz-adv-x="519" 
d="M68 0v510h347v-102h-220v-137q47 21 104 21q97 0 145 -61.5t48 -156.5q0 -182 -158 -282l-60 87q97 63 97 186q0 124 -101 124q-42 0 -75 -21v-168h-127z" />
    <glyph glyph-name="uni0496" unicode="&#x496;" horiz-adv-x="979" 
d="M13 0l200 370v2l-185 338h139l152 -289h83v289h128v-289h83l152 289h139l-186 -338v-2l140 -259h105v-251h-115v140h-74l-161 310h-83v-310h-128v310h-83l-161 -310h-145z" />
    <glyph glyph-name="uni0497" unicode="&#x497;" horiz-adv-x="829" 
d="M13 0l156 262v2l-143 246h132l113 -198h62v198h119v-198h62l113 198h132l-142 -246v-2l91 -154h102v-228h-114v120h-63l-117 205h-64v-205h-119v205h-64l-117 -205h-139z" />
    <glyph glyph-name="uni0498" unicode="&#x498;" horiz-adv-x="557" 
d="M22 89l70 86q29 -31 72 -52t88 -21q58 0 92 29t34 80q0 46 -30.5 72.5t-82.5 26.5h-87v104h70q48 0 79 28t31 70q0 43 -28 70.5t-81 27.5q-81 0 -154 -60l-52 94q94 78 228 78q91 0 154.5 -52t63.5 -142q0 -105 -98 -158v-2q55 -17 87 -60t32 -105q0 -82 -51 -137.5
t-133 -71.5v-134h-116v133q-114 17 -188 96z" />
    <glyph glyph-name="uni0499" unicode="&#x499;" horiz-adv-x="460" 
d="M22 63l54 81q60 -58 129 -58q41 0 64.5 18.5t23.5 50.5q0 63 -85 63h-62v88h52q79 0 79 59q0 61 -76 61q-60 0 -123 -42l-41 81q77 57 188 57q78 0 128.5 -37.5t50.5 -102.5q0 -82 -70 -115v-2q86 -32 86 -117q0 -61 -37.5 -100.5t-99.5 -52.5v-115h-111v112
q-89 14 -150 71z" />
    <glyph glyph-name="uni049A" unicode="&#x49a;" horiz-adv-x="683" 
d="M86 0v710h129v-289h92l167 289h140l-201 -338v-2l149 -259h104v-251h-115v140h-71l-173 310h-92v-310h-129z" />
    <glyph glyph-name="uni049B" unicode="&#x49b;" horiz-adv-x="588" 
d="M68 0v510h127v-195h62l124 195h141l-162 -243v-2l108 -157h101v-228h-114v120h-60l-134 207h-66v-207h-127z" />
    <glyph glyph-name="uni049C" unicode="&#x49c;" horiz-adv-x="742" 
d="M86 0v710h129v-289h63v114h92v-114h41l166 289h140l-200 -338v-2l213 -370h-146l-173 310h-41v-116h-92v116h-63v-310h-129z" />
    <glyph glyph-name="uni049D" unicode="&#x49d;" horiz-adv-x="635" 
d="M68 0v510h127v-195h45v98h88v-98h15l124 195h141l-162 -243v-2l182 -265h-147l-134 207h-19v-100h-88v100h-45v-207h-127z" />
    <glyph glyph-name="uni049E" unicode="&#x49e;" horiz-adv-x="642" 
d="M22 521v87h67v102h129v-102h85v-87h-85v-100h92l167 289h140l-201 -338v-2l213 -370h-146l-173 310h-92v-310h-129v521h-67z" />
    <glyph glyph-name="uni049F" unicode="&#x49f;" horiz-adv-x="549" 
d="M68 0v528h-61v85h61v97h127v-97h101v-85h-101v-205h63l123 187h141l-161 -235v-2l181 -273h-146l-135 215h-66v-215h-127z" />
    <glyph glyph-name="uni04A0" unicode="&#x4a0;" horiz-adv-x="770" 
d="M218 0v599h-202v111h330v-289h93l166 289h140l-201 -338v-2l213 -370h-145l-173 310h-93v-310h-128z" />
    <glyph glyph-name="uni04A1" unicode="&#x4a1;" horiz-adv-x="623" 
d="M143 0v402h-134v108h261v-195h62l124 195h140l-161 -243v-2l182 -265h-147l-135 207h-65v-207h-127z" />
    <glyph glyph-name="uni04A2" unicode="&#x4a2;" horiz-adv-x="796" 
d="M86 0v710h129v-301h325v301h128v-599h104v-251h-115v140h-117v298h-325v-298h-129z" />
    <glyph glyph-name="uni04A3" unicode="&#x4a3;" horiz-adv-x="651" 
d="M68 0v510h127v-197h218v197h127v-402h90v-228h-114v120h-103v206h-218v-206h-127z" />
    <glyph glyph-name="uni04A4" unicode="&#x4a4;" horiz-adv-x="942" 
d="M86 0v710h129v-301h307v301h408v-111h-280v-599h-128v298h-307v-298h-129z" />
    <glyph glyph-name="uni04A5" unicode="&#x4a5;" horiz-adv-x="741" 
d="M68 0v510h127v-197h204v197h323v-108h-196v-402h-127v206h-204v-206h-127z" />
    <glyph glyph-name="uni04A6" unicode="&#x4a6;" horiz-adv-x="1000" 
d="M86 0v710h507v-301q58 24 128 24q119 0 184 -75t65 -222q0 -319 -271 -319v104q63 0 99.5 47.5t36.5 167.5q0 99 -34 146t-109 47q-35 0 -99 -22v-307h-128v600h-250v-600h-129z" />
    <glyph glyph-name="uni04A7" unicode="&#x4a7;" horiz-adv-x="835" 
d="M68 0v510h428v-205q49 23 105 23q96 0 152 -65.5t56 -170.5q0 -99 -43 -175.5t-115 -124.5l-61 87q97 66 97 207q0 136 -110 136q-45 0 -81 -21v-201h-127v402h-174v-402h-127z" />
    <glyph glyph-name="uni04A8" unicode="&#x4a8;" horiz-adv-x="940" 
d="M45 368q0 74 22.5 137.5t59.5 105.5t75.5 69t78.5 42l53 -116q-65 -28 -112 -89.5t-47 -153.5q0 -107 63 -182t180 -75q39 0 82 10q-138 118 -138 295q0 134 76 216.5t189 82.5q117 0 188 -80.5t71 -207.5q0 -84 -40 -164.5t-110 -143.5q42 -9 91 -9h51v-105h-53
q-105 0 -199 39q-102 -51 -210 -51q-162 0 -266.5 104.5t-104.5 275.5zM495 413q0 -160 118 -245q64 45 102 112.5t38 140.5q0 79 -35 125t-92 46q-54 0 -92.5 -46t-38.5 -133z" />
    <glyph glyph-name="uni04A9" unicode="&#x4a9;" horiz-adv-x="796" 
d="M37 264q0 100 54.5 165.5t127.5 92.5l44 -102q-46 -21 -77 -62t-31 -97q0 -70 46.5 -121t138.5 -51q34 0 66 7q-103 81 -103 206q0 93 63 156.5t163 63.5q99 0 157.5 -58t58.5 -144q0 -118 -113 -220q27 -4 62 -4h60v-96h-54q-91 0 -174 31q-91 -43 -187 -43
q-139 0 -220.5 77t-81.5 199zM422 305q0 -106 95 -164q109 67 109 171q0 51 -26.5 81.5t-73.5 30.5q-48 0 -76 -33.5t-28 -85.5z" />
    <glyph glyph-name="uni04AA" unicode="&#x4aa;" horiz-adv-x="716" 
d="M45 358q0 156 103 260t262 104q162 0 262 -97l-62 -96q-39 33 -91.5 54t-102.5 21q-112 0 -175 -70t-63 -174q0 -105 64 -179.5t175 -74.5q114 0 206 90l68 -93q-98 -100 -236 -113v-130h-116v134q-134 23 -214 123.5t-80 240.5z" />
    <glyph glyph-name="uni04AB" unicode="&#x4ab;" horiz-adv-x="548" 
d="M37 255q0 112 76.5 189.5t200.5 77.5q55 0 108 -19t88 -57l-57 -87q-55 55 -132 55q-69 0 -112 -45.5t-43 -112.5t44 -113.5t115 -46.5q83 0 150 65l49 -90q-61 -66 -165 -80v-111h-112v115q-96 19 -153 91t-57 169z" />
    <glyph glyph-name="uni04AC" unicode="&#x4ac;" horiz-adv-x="626" 
d="M245 0l1 2v597h-233v111h594v-111h-233v-488h104v-251h-115v140h-118z" />
    <glyph glyph-name="uni04AD" unicode="&#x4ad;" horiz-adv-x="507" 
d="M187 0v402h-168v108h463v-108h-169v-294h90v-228h-114v120h-102z" />
    <glyph glyph-name="uni04AE" unicode="&#x4ae;" horiz-adv-x="593" 
d="M233 0v297l-237 413h146l111 -209l43 -95h2q21 51 43 95l110 209h146l-236 -413v-297h-128z" />
    <glyph glyph-name="uni04AF" unicode="&#x4af;" horiz-adv-x="541" 
d="M208 14l-197 496h133l106 -291l19 -75h2q9 44 19 75l106 291h134l-196 -496v-214h-126v214z" />
    <glyph glyph-name="uni04B0" unicode="&#x4b0;" horiz-adv-x="593" 
d="M118 215v92h109l-231 403h146l111 -209l43 -95h2q21 51 43 95l110 209h146l-231 -403h116v-92h-121v-215h-128v215h-115z" />
    <glyph glyph-name="uni04B1" unicode="&#x4b1;" horiz-adv-x="540" 
d="M90 0v88h88l-167 422h134l105 -291l19 -75h2q9 44 19 75l105 291h134l-166 -422h89v-88h-118v-200h-126v200h-118z" />
    <glyph glyph-name="uni04B2" unicode="&#x4b2;" horiz-adv-x="666" 
d="M13 0l220 360l-212 350h147l98 -174l44 -87h2q20 45 44 87l99 174h147l-213 -350l153 -249h108v-251h-116v140h-68l-111 191l-44 84h-2q-20 -43 -43 -84l-110 -191h-143z" />
    <glyph glyph-name="uni04B3" unicode="&#x4b3;" horiz-adv-x="555" 
d="M15 0l168 258l-164 252h144l79 -139l16 -32h2l17 32l79 139h144l-164 -252l98 -150h99v-228h-114v120h-56l-88 148l-15 27h-2q-7 -16 -14 -27l-88 -148h-141z" />
    <glyph glyph-name="uni04B4" unicode="&#x4b4;" horiz-adv-x="913" 
d="M218 0v599h-202v111h531v-111h-201v-488h318v599h128v-599h94v-251h-115v140h-553z" />
    <glyph glyph-name="uni04B5" unicode="&#x4b5;" horiz-adv-x="745" 
d="M159 0v402h-139v108h406v-108h-140v-294h230v402h127v-402h78v-227h-115v119h-447z" />
    <glyph glyph-name="uni04B6" unicode="&#x4b6;" horiz-adv-x="701" 
d="M263 264q-109 0 -163 55.5t-54 157.5v233h131v-204q0 -125 119 -125q81 0 146 42v287h131v-599h104v-251h-115v140h-120v275l2 33h-2q-86 -44 -179 -44z" />
    <glyph glyph-name="uni04B7" unicode="&#x4b7;" horiz-adv-x="588" 
d="M210 169q-78 0 -125 42.5t-47 127.5v171h125v-150q0 -85 87 -85q53 0 99 32v203h126v-402h92v-228h-113v120h-105v174l1 28h-2q-60 -33 -138 -33z" />
    <glyph glyph-name="uni04B8" unicode="&#x4b8;" horiz-adv-x="684" 
d="M275 269q-116 0 -173.5 55.5t-57.5 157.5v228h131v-204q0 -114 102 -124v137h92v-131q57 11 97 35v287h131v-710h-131v280l2 33h-2q-43 -19 -97 -33v-113h-92v102h-2z" />
    <glyph glyph-name="uni04B9" unicode="&#x4b9;" horiz-adv-x="582" 
d="M223 172q-83 0 -134 41.5t-51 125.5v171h125v-150q0 -67 67 -82v118h88v-116q39 8 69 27v203h127v-510h-127v181l2 27h-2q-31 -16 -69 -24v-91h-88v79h-7z" />
    <glyph glyph-name="uni04BA" unicode="&#x4ba;" horiz-adv-x="639" 
d="M86 0v710h129v-261l-2 -33h2q84 41 175 41q102 0 152 -58.5t50 -159.5v-239h-131v219q0 124 -112 124q-74 0 -134 -38v-305h-129z" />
    <glyph glyph-name="uni04BB" unicode="&#x4bb;" horiz-adv-x="612" 
d="M68 0v710h127v-248l-3 -43h2q21 41 68.5 72t108.5 31q178 0 178 -194v-328h-127v302q0 51 -17.5 77.5t-62.5 26.5q-66 0 -106.5 -47.5t-40.5 -121.5v-237h-127z" />
    <glyph glyph-name="uni04BC" unicode="&#x4bc;" horiz-adv-x="893" 
d="M32 519q0 54 8 86l8 36h115l-8 -37q-8 -37 -8 -71q0 -103 75 -103q21 134 111 213t212 79q141 0 221 -91.5t80 -243.5l-4 -57h-491q6 -101 68.5 -162.5t155.5 -61.5q66 0 121 26.5t83 52.5l61 -98q-107 -99 -281 -99q-142 0 -239 96t-104 247q-85 0 -134.5 47.5
t-49.5 140.5zM352 430h364q0 77 -44 127.5t-127 50.5q-80 0 -132.5 -54t-60.5 -124z" />
    <glyph glyph-name="uni04BD" unicode="&#x4bd;" horiz-adv-x="695" 
d="M27 397q0 35 10 72h101q-11 -33 -11 -65q0 -78 50 -86q19 93 87 148.5t166 55.5q106 0 166 -68.5t60 -173.5l-4 -49h-351q6 -64 49 -99.5t104 -35.5q36 0 72.5 14t55.5 28l18 14l50 -91q-3 -3 -9 -8t-26.5 -17.5t-43 -22t-57 -17.5t-69.5 -8q-116 0 -190 69.5t-83 173.5
q-145 3 -145 166zM304 318h224q-1 49 -29.5 77.5t-71.5 28.5q-48 0 -81 -29t-42 -77z" />
    <glyph glyph-name="uni04BE" unicode="&#x4be;" horiz-adv-x="894" 
d="M32 519q0 54 8 86l8 36h115l-8 -37q-8 -37 -8 -71q0 -103 75 -103q21 134 111 213t212 79q141 0 221 -91.5t80 -243.5l-4 -57h-491q6 -101 68.5 -162.5t155.5 -61.5q66 0 121 26.5t83 52.5l61 -98q-93 -85 -237 -97v-130h-115v135q-115 24 -190 115t-82 221
q-85 0 -134.5 47.5t-49.5 140.5zM352 430h364q0 77 -44 127.5t-127 50.5q-80 0 -132.5 -54t-60.5 -124z" />
    <glyph glyph-name="uni04BF" unicode="&#x4bf;" horiz-adv-x="695" 
d="M27 397q0 35 10 72h101q-11 -33 -11 -65q0 -78 50 -86q19 93 87 148.5t166 55.5q106 0 166 -68.5t60 -173.5l-4 -49h-351q6 -64 49 -99.5t104 -35.5q36 0 72.5 14t55.5 28l18 14l50 -91q-7 -7 -21 -17.5t-59 -30t-93 -23.5v-110h-112v118q-83 22 -134.5 85.5t-58.5 147.5
q-145 3 -145 166zM304 318h224q-1 49 -29.5 77.5t-71.5 28.5q-48 0 -81 -29t-42 -77z" />
    <glyph glyph-name="uni04C0" unicode="&#x4c0;" horiz-adv-x="300" 
d="M86 0v710h127v-710h-127z" />
    <glyph glyph-name="uni04C1" unicode="&#x4c1;" horiz-adv-x="932" 
d="M13 0l200 370v2l-185 338h139l152 -289h83v289h128v-289h83l152 289h139l-186 -338v-2l201 -370h-145l-161 310h-83v-310h-128v310h-83l-161 -310h-145zM470 742q-68 0 -116 37.5t-48 100.5v13h97v-13q0 -30 20 -46.5t47 -16.5t47.5 16.5t20.5 47.5v12h96v-13
q0 -63 -48 -100.5t-116 -37.5z" />
    <glyph glyph-name="uni04C2" unicode="&#x4c2;" horiz-adv-x="785" 
d="M13 0l156 262v2l-143 246h132l113 -198h62v198h119v-198h62l113 198h132l-142 -246v-2l156 -262h-140l-117 205h-64v-205h-119v205h-64l-117 -205h-139zM392 559q-68 0 -116 37.5t-48 100.5v13h97v-13q0 -30 20 -46.5t47 -16.5t47.5 16.5t20.5 47.5v12h96v-13
q0 -63 -48 -100.5t-116 -37.5z" />
    <glyph glyph-name="uni04C3" unicode="&#x4c3;" horiz-adv-x="657" 
d="M86 0v710h129v-289h92l167 289h140l-185 -312q83 -22 132.5 -94.5t49.5 -176.5q0 -139 -67.5 -224.5t-189.5 -85.5v108q52 0 87 45t35 147q0 95 -49 145.5t-146 50.5h-66v-313h-129z" />
    <glyph glyph-name="uni04C4" unicode="&#x4c4;" horiz-adv-x="553" 
d="M68 0v510h127v-196h62l124 196h141l-151 -227v-2q77 -26 110.5 -87t33.5 -135q0 -94 -47 -162t-113 -105l-59 88q98 50 98 179q0 68 -39 107.5t-114 39.5h-46v-206h-127z" />
    <glyph glyph-name="uni04C5" unicode="&#x4c5;" horiz-adv-x="743" 
d="M14 110q80 11 116.5 106.5t36.5 299.5v194h439v-599h120v-70l-79 -181h-90l39 140h-119v599h-187v-85q0 -262 -65 -389.5t-211 -132.5v118z" />
    <glyph glyph-name="uni04C6" unicode="&#x4c6;" horiz-adv-x="618" 
d="M20 -5v112q52 7 79.5 61.5t27.5 181.5v160h372v-403h99v-67l-69 -160h-85l33 120h-105v407h-124v-57q0 -174 -53 -262.5t-175 -92.5z" />
    <glyph glyph-name="uni04C7" unicode="&#x4c7;" horiz-adv-x="754" 
d="M86 0v710h129v-301h325v301h128l1 -640q0 -79 -20.5 -133.5t-56.5 -79.5t-73 -34.5t-81 -6.5v109q102 0 102 142v231h-325v-298h-129z" />
    <glyph glyph-name="uni04C8" unicode="&#x4c8;" horiz-adv-x="609" 
d="M68 0v510h127v-197h218v197h127v-454q0 -99 -38.5 -157.5t-117.5 -106.5l-66 90q48 28 71.5 66t23.5 107v151h-218v-206h-127z" />
    <glyph glyph-name="uni04C9" unicode="&#x4c9;" horiz-adv-x="805" 
d="M86 0v710h129v-301h325v301h128v-599h120v-70l-79 -181h-90l39 140h-118v298h-325v-298h-129z" />
    <glyph glyph-name="uni04CA" unicode="&#x4ca;" horiz-adv-x="659" 
d="M68 0v510h127v-197h218v197h127v-403h99v-67l-69 -160h-85l33 120h-105v206h-218v-206h-127z" />
    <glyph glyph-name="uni04CB" unicode="&#x4cb;" horiz-adv-x="659" 
d="M263 264q-109 0 -163 55.5t-54 157.5v233h131v-204q0 -125 119 -125q81 0 146 42v287h131v-710h-120v-140h-116v251h105v164l2 33h-2q-86 -44 -179 -44z" />
    <glyph glyph-name="uni04CC" unicode="&#x4cc;" horiz-adv-x="545" 
d="M260 82h90v109l1 27h-1q-66 -36 -150 -36q-74 0 -118.5 42t-44.5 125v161h125v-140q0 -85 84 -85q55 0 104 32v193h127v-510h-103v-120h-114v202z" />
    <glyph glyph-name="uni04CD" unicode="&#x4cd;" horiz-adv-x="918" 
d="M59 0l58 710h137l140 -351l35 -104h2q19 62 35 104l140 351h137l49 -599h120v-70l-79 -181h-89l38 140h-110l-29 397q-2 21 -2 48.5t1 44.5v17h-2q-23 -69 -39 -110l-115 -275h-112l-115 275l-39 111h-2q3 -64 -1 -111l-29 -397h-129z" />
    <glyph glyph-name="uni04CE" unicode="&#x4ce;" horiz-adv-x="802" 
d="M47 0l46 510h144l108 -263l25 -65h2l25 65l110 263h142l36 -403h106v-67l-69 -160h-86l33 120h-96l-18 276l1 87h-2q-14 -38 -30 -74l-100 -225h-105l-100 224l-31 75h-2l1 -87l-18 -276h-122z" />
    <glyph glyph-name="uni04CF" unicode="&#x4cf;" horiz-adv-x="263" 
d="M68 0v710h127v-710h-127z" />
    <glyph glyph-name="uni04D0" unicode="&#x4d0;" horiz-adv-x="650" 
d="M8 0l249 710h136l249 -710h-132l-61 182h-249l-60 -182h-132zM232 287h185l-63 190l-28 110h-2q-16 -70 -28 -110zM323 742q-68 0 -116 37.5t-48 100.5v13h97v-13q0 -30 20 -46.5t47 -16.5t47.5 16.5t20.5 47.5v12h96v-13q0 -63 -48 -100.5t-116 -37.5z" />
    <glyph glyph-name="uni04D1" unicode="&#x4d1;" horiz-adv-x="537" 
d="M29 141q0 54 29.5 92t78 55.5t94 24.5t95.5 7h22v7q0 90 -96 90q-70 0 -142 -49l-47 91q33 26 89 44.5t111 18.5q100 0 156 -53.5t56 -149.5v-319h-118v43l3 37h-2q-24 -41 -67 -66.5t-94 -25.5q-71 0 -119.5 42.5t-48.5 110.5zM155 152q0 -27 20.5 -47t56.5 -20
q51 0 84 42t33 92v14h-22q-172 0 -172 -81zM278 559q-68 0 -116 37.5t-48 100.5v13h97v-13q0 -30 20 -46.5t47 -16.5t47.5 16.5t20.5 47.5v12h96v-13q0 -63 -48 -100.5t-116 -37.5z" />
    <glyph glyph-name="uni04D2" unicode="&#x4d2;" horiz-adv-x="650" 
d="M8 0l249 710h136l249 -710h-132l-61 182h-249l-60 -182h-132zM232 287h185l-63 190l-28 110h-2q-16 -70 -28 -110zM368 777v116h97v-116h-97zM184 777v116h98v-116h-98z" />
    <glyph glyph-name="uni04D3" unicode="&#x4d3;" horiz-adv-x="537" 
d="M29 141q0 54 29.5 92t78 55.5t94 24.5t95.5 7h22v7q0 90 -96 90q-70 0 -142 -49l-47 91q33 26 89 44.5t111 18.5q100 0 156 -53.5t56 -149.5v-319h-118v43l3 37h-2q-24 -41 -67 -66.5t-94 -25.5q-71 0 -119.5 42.5t-48.5 110.5zM155 152q0 -27 20.5 -47t56.5 -20
q51 0 84 42t33 92v14h-22q-172 0 -172 -81zM310 594v116h97v-116h-97zM126 594v116h98v-116h-98z" />
    <glyph glyph-name="uni04D4" unicode="&#x4d4;" horiz-adv-x="905" 
d="M1 0l294 710h554v-111h-297v-186h239v-111h-239v-191h312v-111h-440v304h-170l-119 -304h-134zM295 409h129v190h-53z" />
    <glyph glyph-name="uni04D5" unicode="&#x4d5;" horiz-adv-x="859" 
d="M29 147q0 173 302 173h17v7q0 90 -99 90q-70 0 -140 -49l-47 90q33 28 87.5 46t108.5 18q119 0 166 -75h2q61 75 170 75q104 0 164.5 -69t60.5 -174q0 -9 -1.5 -26t-1.5 -21h-349q6 -66 47.5 -101t102.5 -35q80 0 147 55l49 -90q-36 -33 -93 -53t-112 -20
q-146 0 -213 112h-2q-6 -13 -17.5 -28t-34 -35.5t-59.5 -34t-81 -13.5q-73 0 -123.5 43t-50.5 115zM473 320h220q-1 47 -29.5 75t-68.5 28q-49 0 -80.5 -27t-41.5 -76zM157 153q0 -28 20 -47t58 -19q49 0 82 42.5t33 92.5v10h-36q-40 0 -72 -5.5t-58.5 -24.5t-26.5 -49z" />
    <glyph glyph-name="uni04D6" unicode="&#x4d6;" horiz-adv-x="569" 
d="M86 0v710h425v-111h-296v-186h239v-111h-239v-191h312v-111h-441zM304 742q-68 0 -116 37.5t-48 100.5v13h97v-13q0 -30 20 -46.5t47 -16.5t47.5 16.5t20.5 47.5v12h96v-13q0 -63 -48 -100.5t-116 -37.5z" />
    <glyph glyph-name="uni04D7" unicode="&#x4d7;" horiz-adv-x="561" 
d="M37 255q0 118 72.5 192.5t187.5 74.5q106 0 166 -68.5t60 -173.5q0 -17 -4 -49h-351q6 -64 49 -99.5t104 -35.5q76 0 146 56l50 -91q-38 -34 -93.5 -53.5t-111.5 -19.5q-123 0 -199 77.5t-76 189.5zM171 318h225q-1 50 -29.5 79t-72.5 29q-48 0 -81 -29.5t-42 -78.5z
M292 559q-68 0 -116 37.5t-48 100.5v13h97v-13q0 -30 20 -46.5t47 -16.5t47.5 16.5t20.5 47.5v12h96v-13q0 -63 -48 -100.5t-116 -37.5z" />
    <glyph glyph-name="uni04D8" unicode="&#x4d8;" horiz-adv-x="724" 
d="M46 337l4 62h493q-8 92 -66 148.5t-149 56.5q-68 0 -124 -25t-84 -50l-62 96q113 97 286 97q149 0 242 -106.5t93 -259.5q0 -161 -90.5 -264.5t-236.5 -103.5q-144 0 -225 93t-81 256zM176 299q0 -93 45 -145t134 -52q84 0 134.5 54t52.5 143h-366z" />
    <glyph glyph-name="uni04D9" unicode="&#x4d9;" horiz-adv-x="561" 
d="M37 236l4 55h353q-7 60 -48 94.5t-98 34.5q-38 0 -76.5 -13.5t-57.5 -26.5l-20 -14l-47 88q102 68 217 68q119 0 189.5 -76t70.5 -191q0 -120 -71 -193.5t-185 -73.5q-110 0 -170.5 68.5t-60.5 179.5zM169 205q1 -60 29.5 -89.5t72.5 -29.5q50 0 84 31t35 88h-221z" />
    <glyph glyph-name="uni04DA" unicode="&#x4da;" horiz-adv-x="724" 
d="M395 777v116h97v-116h-97zM211 777v116h98v-116h-98zM46 337l4 62h493q-8 92 -66 148.5t-149 56.5q-68 0 -124 -25t-84 -50l-62 96q113 97 286 97q149 0 242 -106.5t93 -259.5q0 -161 -90.5 -264.5t-236.5 -103.5q-144 0 -225 93t-81 256zM176 299q0 -93 45 -145t134 -52
q84 0 134.5 54t52.5 143h-366z" />
    <glyph glyph-name="uni04DB" unicode="&#x4db;" horiz-adv-x="561" 
d="M307 594v116h97v-116h-97zM123 594v116h98v-116h-98zM37 236l4 55h353q-7 60 -48 94.5t-98 34.5q-38 0 -76.5 -13.5t-57.5 -26.5l-20 -14l-47 88q102 68 217 68q119 0 189.5 -76t70.5 -191q0 -120 -71 -193.5t-185 -73.5q-110 0 -170.5 68.5t-60.5 179.5zM169 205
q1 -60 29.5 -89.5t72.5 -29.5q50 0 84 31t35 88h-221z" />
    <glyph glyph-name="uni04DC" unicode="&#x4dc;" horiz-adv-x="932" 
d="M13 0l200 370v2l-185 338h139l152 -289h83v289h128v-289h83l152 289h139l-186 -338v-2l201 -370h-145l-161 310h-83v-310h-128v310h-83l-161 -310h-145zM513 777v116h97v-116h-97zM329 777v116h98v-116h-98z" />
    <glyph glyph-name="uni04DD" unicode="&#x4dd;" horiz-adv-x="785" 
d="M436 594v116h97v-116h-97zM252 594v116h98v-116h-98zM13 0l156 262v2l-143 246h132l113 -198h62v198h119v-198h62l113 198h132l-142 -246v-2l156 -262h-140l-117 205h-64v-205h-119v205h-64l-117 -205h-139z" />
    <glyph glyph-name="uni04DE" unicode="&#x4de;" horiz-adv-x="555" 
d="M314 777v116h97v-116h-97zM130 777v116h98v-116h-98zM22 89l70 86q29 -31 72 -52t88 -21q58 0 92 29t34 80q0 46 -30.5 72.5t-82.5 26.5h-87v104h70q48 0 79 28t31 70q0 43 -28 70.5t-81 27.5q-81 0 -154 -60l-52 94q94 78 228 78q91 0 154.5 -52t63.5 -142
q0 -105 -98 -158v-2q55 -17 87 -60t32 -105q0 -98 -70.5 -156.5t-175.5 -58.5q-68 0 -132.5 26.5t-109.5 74.5z" />
    <glyph glyph-name="uni04DF" unicode="&#x4df;" horiz-adv-x="458" 
d="M262 594v116h97v-116h-97zM78 594v116h98v-116h-98zM22 63l54 81q60 -58 129 -58q41 0 64.5 18.5t23.5 50.5q0 63 -85 63h-62v88h52q79 0 79 59q0 61 -76 61q-60 0 -123 -42l-41 81q77 57 188 57q78 0 128.5 -37.5t50.5 -102.5q0 -82 -70 -115v-2q86 -32 86 -117
q0 -76 -57 -118t-144 -42q-117 0 -197 75z" />
    <glyph glyph-name="uni04E0" unicode="&#x4e0;" horiz-adv-x="533" 
d="M72 142q29 -20 72.5 -33.5t83.5 -13.5q62 0 99 31t37 81q0 42 -23 65t-73 30q-18 2 -156 2v83l168 180q9 9 19.5 18t16.5 13l7 5v2q-27 -3 -61 -3h-215v108h419v-100l-178 -183l-29 -24v-2q56 -3 86 -10q144 -31 144 -181q0 -103 -72.5 -161.5t-181.5 -58.5
q-115 0 -204 59z" />
    <glyph glyph-name="uni04E1" unicode="&#x4e1;" horiz-adv-x="494" 
d="M48 -58q29 -20 72.5 -33.5t83.5 -13.5q62 0 99 31t37 81q0 42 -23 65t-73 30q-18 2 -156 2v83l168 180q9 9 19.5 18t16.5 13l7 5v2q-27 -3 -61 -3h-215v108h419v-100l-178 -183l-29 -24v-2q56 -3 86 -10q144 -31 144 -181q0 -103 -72.5 -161.5t-181.5 -58.5
q-115 0 -204 59z" />
    <glyph glyph-name="uni04E2" unicode="&#x4e2;" horiz-adv-x="753" 
d="M258 783v87h262v-87h-262zM86 0v710h129v-410l-7 -110h2q34 69 60 111l268 409h128v-710h-128v409l7 110h-2q-33 -68 -59 -110l-270 -409h-128z" />
    <glyph glyph-name="uni04E3" unicode="&#x4e3;" horiz-adv-x="606" 
d="M68 0v510h121v-273q0 -37 -3 -61h2q4 9 38 61l189 273h123v-510h-121v272q0 22 3 61h-2q-3 -7 -38 -61l-189 -272h-123zM177 600v87h262v-87h-262z" />
    <glyph glyph-name="uni04E4" unicode="&#x4e4;" horiz-adv-x="753" 
d="M421 777v116h97v-116h-97zM237 777v116h98v-116h-98zM86 0v710h129v-410l-7 -110h2q34 69 60 111l268 409h128v-710h-128v409l7 110h-2q-33 -68 -59 -110l-270 -409h-128z" />
    <glyph glyph-name="uni04E5" unicode="&#x4e5;" horiz-adv-x="606" 
d="M349 594v116h97v-116h-97zM165 594v116h98v-116h-98zM68 0v510h121v-273q0 -37 -3 -61h2q4 9 38 61l189 273h123v-510h-121v272q0 22 3 61h-2q-3 -7 -38 -61l-189 -272h-123z" />
    <glyph glyph-name="uni04E6" unicode="&#x4e6;" horiz-adv-x="822" 
d="M453 777v116h97v-116h-97zM269 777v116h98v-116h-98zM44 360q0 154 103.5 258t263.5 104t263.5 -104t103.5 -258q0 -158 -103.5 -265t-263.5 -107t-263.5 107t-103.5 265zM177 360q0 -109 66.5 -181.5t167.5 -72.5t167.5 72.5t66.5 181.5q0 104 -66.5 174t-167.5 70
t-167.5 -70t-66.5 -174z" />
    <glyph glyph-name="uni04E7" unicode="&#x4e7;" horiz-adv-x="634" 
d="M361 594v116h97v-116h-97zM177 594v116h98v-116h-98zM37 255q0 116 81 191.5t198 75.5q118 0 199.5 -75.5t81.5 -191.5t-81 -191.5t-199 -75.5t-199 75.5t-81 191.5zM166 255q0 -70 43.5 -114.5t107.5 -44.5t108 44.5t44 114.5q0 69 -44.5 114t-107.5 45t-107 -45
t-44 -114z" />
    <glyph glyph-name="uni04E8" unicode="&#x4e8;" horiz-adv-x="822" 
d="M44 360q0 153 105 257.5t262 104.5t262 -104.5t105 -257.5q0 -158 -105 -265t-262 -107t-262 107t-105 265zM412 101q87 0 151.5 58t80.5 148h-466q17 -91 81.5 -148.5t152.5 -57.5zM412 607q-89 0 -154 -56t-80 -144h467q-16 88 -81 144t-152 56z" />
    <glyph glyph-name="uni04E9" unicode="&#x4e9;" horiz-adv-x="634" 
d="M37 255q0 116 81 191.5t198 75.5q118 0 199.5 -75.5t81.5 -191.5t-81 -191.5t-199 -75.5t-199 75.5t-81 191.5zM318 82q59 0 104.5 38t56.5 100h-323q10 -62 55.5 -100t106.5 -38zM318 427q-60 0 -104.5 -36t-56.5 -96h321q-13 59 -57.5 95.5t-102.5 36.5z" />
    <glyph glyph-name="uni04EA" unicode="&#x4ea;" horiz-adv-x="822" 
d="M44 360q0 153 105 257.5t262 104.5t262 -104.5t105 -257.5q0 -158 -105 -265t-262 -107t-262 107t-105 265zM412 101q87 0 151.5 58t80.5 148h-466q17 -91 81.5 -148.5t152.5 -57.5zM412 607q-89 0 -154 -56t-80 -144h467q-16 88 -81 144t-152 56zM270 777v116h98v-116
h-98zM454 777v116h97v-116h-97z" />
    <glyph glyph-name="uni04EB" unicode="&#x4eb;" horiz-adv-x="634" 
d="M37 255q0 116 81 191.5t198 75.5q118 0 199.5 -75.5t81.5 -191.5t-81 -191.5t-199 -75.5t-199 75.5t-81 191.5zM318 82q59 0 104.5 38t56.5 100h-323q10 -62 55.5 -100t106.5 -38zM318 427q-60 0 -104.5 -36t-56.5 -96h321q-13 59 -57.5 95.5t-102.5 36.5zM175 594v116
h98v-116h-98zM359 594v116h97v-116h-97z" />
    <glyph glyph-name="uni04EC" unicode="&#x4ec;" horiz-adv-x="716" 
d="M369 777v116h97v-116h-97zM185 777v116h98v-116h-98zM28 97l65 91q39 -37 95 -60t116 -23q94 0 156 56t75 142h-340v105h341q-11 86 -74 141.5t-157 55.5q-110 0 -202 -80l-62 97q48 49 119 74.5t149 25.5q163 0 263 -104t100 -259q0 -159 -104 -265t-264 -106
q-162 0 -276 109z" />
    <glyph glyph-name="uni04ED" unicode="&#x4ed;" horiz-adv-x="546" 
d="M298 594v116h97v-116h-97zM114 594v116h98v-116h-98zM24 63l47 88q65 -62 154 -62q63 0 106.5 34t54.5 89h-223v87h223q-10 55 -53 88.5t-103 33.5q-81 0 -142 -55l-54 85q35 35 89 53t112 18q123 0 198.5 -77.5t75.5 -189.5q0 -114 -76.5 -190.5t-200.5 -76.5t-208 75z
" />
    <glyph glyph-name="uni04EE" unicode="&#x4ee;" horiz-adv-x="612" 
d="M177 783v87h262v-87h-262zM67 37l57 97q45 -35 80 -35q47 0 71 62l-278 549h142l151 -317l40 -94h2q13 47 29 93l114 318h135l-219 -561q-13 -33 -27 -58t-36 -50t-52 -39t-67 -14q-72 0 -142 49z" />
    <glyph glyph-name="uni04EF" unicode="&#x4ef;" horiz-adv-x="545" 
d="M55 -82q28 -21 56 -21q61 0 89 66l19 45l-215 502h143l107 -294l19 -69h2q9 40 17 67l100 296h138l-227 -587q-25 -67 -74.5 -100t-109.5 -33q-27 0 -53.5 8t-39.5 16l-13 9zM142 600v87h262v-87h-262z" />
    <glyph glyph-name="uni04F0" unicode="&#x4f0;" horiz-adv-x="612" 
d="M357 777v116h97v-116h-97zM173 777v116h98v-116h-98zM67 37l57 97q45 -35 80 -35q47 0 71 62l-278 549h142l151 -317l40 -94h2q13 47 29 93l114 318h135l-219 -561q-13 -33 -27 -58t-36 -50t-52 -39t-67 -14q-72 0 -142 49z" />
    <glyph glyph-name="uni04F1" unicode="&#x4f1;" horiz-adv-x="545" 
d="M55 -82q28 -21 56 -21q61 0 89 66l19 45l-215 502h143l107 -294l19 -69h2q9 40 17 67l100 296h138l-227 -587q-25 -67 -74.5 -100t-109.5 -33q-27 0 -53.5 8t-39.5 16l-13 9zM316 594v116h97v-116h-97zM132 594v116h98v-116h-98z" />
    <glyph glyph-name="uni04F2" unicode="&#x4f2;" horiz-adv-x="612" 
d="M67 37l57 97q45 -35 80 -35q47 0 71 62l-278 549h142l151 -317l40 -94h2q13 47 29 93l114 318h135l-219 -561q-13 -33 -27 -58t-36 -50t-52 -39t-67 -14q-72 0 -142 49zM346 757l76 136h125l-104 -136h-97zM171 757l71 136h108l-74 -136h-105z" />
    <glyph glyph-name="uni04F3" unicode="&#x4f3;" horiz-adv-x="545" 
d="M55 -82q28 -21 56 -21q61 0 89 66l19 45l-215 502h143l107 -294l19 -69h2q9 40 17 67l100 296h138l-227 -587q-25 -67 -74.5 -100t-109.5 -33q-27 0 -53.5 8t-39.5 16l-13 9zM301 574l76 136h125l-104 -136h-97zM126 574l71 136h108l-74 -136h-105z" />
    <glyph glyph-name="uni04F4" unicode="&#x4f4;" horiz-adv-x="660" 
d="M263 264q-109 0 -163 55.5t-54 157.5v233h131v-204q0 -125 119 -125q81 0 146 42v287h131v-710h-131v275l2 33h-2q-86 -44 -179 -44zM360 777v116h97v-116h-97zM176 777v116h98v-116h-98z" />
    <glyph glyph-name="uni04F5" unicode="&#x4f5;" horiz-adv-x="544" 
d="M304 594v116h97v-116h-97zM120 594v116h98v-116h-98zM210 169q-78 0 -125 42.5t-47 127.5v171h125v-150q0 -85 87 -85q53 0 99 32v203h126v-510h-126v174l1 28h-2q-60 -33 -138 -33z" />
    <glyph glyph-name="uni04F6" unicode="&#x4f6;" horiz-adv-x="510" 
d="M86 0v710h408v-111h-279v-488h104v-251h-115v140h-118z" />
    <glyph glyph-name="uni04F7" unicode="&#x4f7;" horiz-adv-x="426" 
d="M68 0v510h335v-108h-208v-294h90v-228h-114v120h-103z" />
    <glyph glyph-name="uni04F8" unicode="&#x4f8;" horiz-adv-x="876" 
d="M481 777v116h97v-116h-97zM297 777v116h98v-116h-98zM661 0v710h128v-710h-128zM86 0v710h129v-249h132q99 0 160.5 -63.5t61.5 -168.5q0 -102 -61 -165.5t-158 -63.5h-264zM215 111h112q53 0 82 31.5t29 86.5t-30 88t-83 33h-110v-239z" />
    <glyph glyph-name="uni04F9" unicode="&#x4f9;" horiz-adv-x="743" 
d="M414 594v116h97v-116h-97zM230 594v116h98v-116h-98zM548 0v510h127v-510h-127zM68 0v510h127v-175h91q91 0 141.5 -43.5t50.5 -125.5q0 -77 -48 -121.5t-145 -44.5h-217zM195 87h70q42 0 63.5 22t21.5 58q0 37 -22 59.5t-65 22.5h-68v-162z" />
    <glyph glyph-name="uni0524" unicode="&#x524;" horiz-adv-x="789" 
d="M86 0v710h575v-599h104v-251h-115v140h-118v599h-317v-599h-129z" />
    <glyph glyph-name="uni0525" unicode="&#x525;" horiz-adv-x="644" 
d="M68 0v510h465v-402h90v-228h-115v120h-102v402h-211v-402h-127z" />
    <glyph glyph-name="uni1E9E" unicode="&#x1e9e;" horiz-adv-x="687" 
d="M80 0v496q0 94 61 154t157 60h316v-89l-120 -181l-23 -31v-2l19 -1q69 -9 111.5 -67t42.5 -129q0 -88 -63.5 -149t-153.5 -61h-137v111h127q43 0 69 29t26 70t-25.5 69t-68.5 28h-84v89l89 141q12 20 23.5 35.5t16.5 21.5l5 5v2q-8 -2 -44 -2h-123q-39 0 -64.5 -29
t-25.5 -72v-498h-131z" />
    <glyph glyph-name="thinspace" unicode="&#x2009;" horiz-adv-x="16" 
 />
    <glyph glyph-name="endash" unicode="&#x2013;" horiz-adv-x="689" 
d="M68 236v99h553v-99h-553z" />
    <glyph glyph-name="emdash" unicode="&#x2014;" horiz-adv-x="889" 
d="M68 236v99h753v-99h-753z" />
    <glyph glyph-name="quoteleft" unicode="&#x2018;" horiz-adv-x="262" 
d="M52 504l75 218h89l-47 -218h-117z" />
    <glyph glyph-name="quoteright" unicode="&#x2019;" horiz-adv-x="255" 
d="M57 504l47 218h117l-75 -218h-89z" />
    <glyph glyph-name="quotesinglbase" unicode="&#x201a;" horiz-adv-x="265" 
d="M40 -89l48 218h113l-74 -218h-87z" />
    <glyph glyph-name="quotedblleft" unicode="&#x201c;" horiz-adv-x="426" 
d="M215 504l75 218h90l-47 -218h-118zM52 504l75 218h90l-48 -218h-117z" />
    <glyph glyph-name="quotedblright" unicode="&#x201d;" horiz-adv-x="419" 
d="M220 504l47 218h118l-75 -218h-90zM57 504l47 218h117l-74 -218h-90z" />
    <glyph glyph-name="quotedblbase" unicode="&#x201e;" horiz-adv-x="424" 
d="M200 -89l47 218h114l-75 -218h-86zM40 -89l48 218h113l-74 -218h-87z" />
    <glyph glyph-name="dagger" unicode="&#x2020;" horiz-adv-x="452" 
d="M164 -50v461h-124v99h124v200h122v-200h126v-99h-126v-461h-122z" />
    <glyph glyph-name="daggerdbl" unicode="&#x2021;" horiz-adv-x="480" 
d="M54 163v98h124v150h-124v99h124v200h122v-200h126v-99h-126v-150h126v-98h-126v-213h-122v213h-124z" />
    <glyph glyph-name="bullet" unicode="&#x2022;" horiz-adv-x="494" 
d="M247 124q-69 0 -118 49t-49 118t49 118t118 49q70 0 118.5 -49t48.5 -118t-48.5 -118t-118.5 -49z" />
    <glyph glyph-name="ellipsis" unicode="&#x2026;" horiz-adv-x="825" 
d="M635 0v128h124v-128h-124zM351 0v128h123v-128h-123zM66 0v128h123v-128h-123z" />
    <glyph glyph-name="perthousand" unicode="&#x2030;" horiz-adv-x="1167" 
d="M209 406q-68 0 -115.5 46t-47.5 112q0 65 48 111.5t115 46.5q68 0 116 -46.5t48 -111.5q0 -66 -48 -112t-116 -46zM72 0l544 710h117l-545 -710h-116zM209 498q28 0 47.5 19t19.5 47q0 27 -19.5 46.5t-47.5 19.5t-47 -19.5t-19 -46.5q0 -28 19 -47t47 -19zM807 145
q0 65 48 111.5t115 46.5t115.5 -46.5t48.5 -111.5t-48 -111t-116 -46t-115.5 46t-47.5 111zM434 145q0 65 47.5 111.5t115.5 46.5q67 0 115.5 -46.5t48.5 -111.5t-48 -111t-116 -46t-115.5 46t-47.5 111zM904 146q0 -28 19 -47t47 -19t47.5 19t19.5 47q0 27 -19.5 46.5
t-47.5 19.5t-47 -19.5t-19 -46.5zM531 146q0 -28 19 -47t47 -19t47.5 19t19.5 47q0 27 -19.5 46.5t-47.5 19.5t-47 -19.5t-19 -46.5z" />
    <glyph glyph-name="guilsinglleft" unicode="&#x2039;" horiz-adv-x="373" 
d="M204 77l-164 205l164 206h121l-164 -206l164 -205h-121z" />
    <glyph glyph-name="guilsinglright" unicode="&#x203a;" horiz-adv-x="373" 
d="M48 77l164 205l-164 206h121l164 -206l-164 -205h-121z" />
    <glyph glyph-name="fraction" unicode="&#x2044;" horiz-adv-x="180" 
d="M-31 0h-93l336 710h92z" />
    <glyph glyph-name="zerosuperior" unicode="&#x2070;" 
d="M196 413q-162 0 -162 230q0 229 162 229t162 -229q0 -230 -162 -230zM196 500q66 0 66 143q0 141 -66 141q-67 0 -67 -141q0 -143 67 -143z" />
    <glyph glyph-name="foursuperior" unicode="&#x2074;" 
d="M218 423v99h-203v64l189 276h108v-258h58v-82h-58v-99h-94zM111 604h107v110l4 55h-2q-12 -27 -26 -47l-83 -116v-2z" />
    <glyph glyph-name="fivesuperior" unicode="&#x2075;" 
d="M187 413q-92 0 -151 67l52 67q14 -20 40 -33.5t52 -13.5q31 0 54 19t23 49t-23 49.5t-56 19.5q-38 0 -71 -18l-51 19l22 224h245v-84h-168l-5 -47l-4 -25l2 -1q22 8 51 8q67 0 110.5 -42.5t43.5 -103.5q0 -62 -46 -108t-120 -46z" />
    <glyph glyph-name="sixsuperior" unicode="&#x2076;" 
d="M208 413q-73 0 -122.5 55t-49.5 150q0 99 54 176.5t150 77.5q54 0 98 -23l-28 -81q-30 16 -65 16q-38 0 -64.5 -26.5t-36.5 -70.5h2q26 21 63 21q69 0 109.5 -41t40.5 -103q0 -64 -41.5 -107.5t-109.5 -43.5zM208 500q27 0 42 18.5t15 46.5q0 31 -19 52.5t-52 21.5
q-24 0 -42 -12t-18 -28q0 -39 21.5 -69t52.5 -30z" />
    <glyph glyph-name="sevensuperior" unicode="&#x2077;" 
d="M52 423l175 317l24 38v2q-18 -2 -39 -2h-167v84h315v-65l-204 -374h-104z" />
    <glyph glyph-name="eightsuperior" unicode="&#x2078;" 
d="M196 413q-67 0 -116 36.5t-49 100.5q0 61 69 110q-47 35 -47 90q0 58 43 90t103 32q59 0 104 -33t45 -90q0 -49 -53 -108q62 -38 62 -99q0 -58 -47.5 -93.5t-113.5 -35.5zM230 672q29 36 29 71q0 22 -18.5 34.5t-42.5 12.5q-23 0 -38.5 -11t-15.5 -33q0 -13 6 -23.5
t21.5 -20.5t25 -14.5zM196 494q26 0 46 14.5t20 38.5q0 11 -4.5 20t-17.5 18t-20.5 13.5t-29 14.5t-28.5 13q-39 -34 -39 -71q0 -28 21.5 -44.5t51.5 -16.5z" />
    <glyph glyph-name="ninesuperior" unicode="&#x2079;" 
d="M53 436l28 81q34 -16 65 -16q38 0 64.5 26.5t36.5 69.5h-2q-28 -21 -63 -21q-69 0 -109.5 41t-40.5 104q0 64 41.5 107.5t109.5 43.5q73 0 122.5 -55.5t49.5 -150.5q0 -98 -54 -175.5t-150 -77.5q-57 0 -98 23zM196 645q25 0 43 12.5t18 27.5q0 39 -21.5 69t-52.5 30
q-27 0 -42 -18.5t-15 -45.5q0 -31 19 -53t51 -22z" />
    <glyph glyph-name="zeroinferior" unicode="&#x2080;" 
d="M196 -167q-162 0 -162 230q0 229 162 229t162 -229q0 -230 -162 -230zM196 -80q66 0 66 143q0 141 -66 141q-67 0 -67 -141q0 -143 67 -143z" />
    <glyph glyph-name="oneinferior" unicode="&#x2081;" 
d="M66 -157v83h92v207l2 28h-2q-4 -9 -15 -19l-31 -29l-56 60l113 109h84v-356h91v-83h-278z" />
    <glyph glyph-name="twoinferior" unicode="&#x2082;" 
d="M43 -157q-4 28 -4 41q0 41 15.5 74t38.5 53t49.5 39t49.5 32.5t38.5 31.5t15.5 38q0 23 -17.5 37.5t-43.5 14.5q-40 0 -80 -46l-62 55q22 35 62 57t85 22q63 0 107.5 -36.5t44.5 -99.5q0 -40 -19.5 -71.5t-48 -51t-57 -35.5t-50 -34t-23.5 -38h204v-83h-305z" />
    <glyph glyph-name="threeinferior" unicode="&#x2083;" 
d="M184 -167q-43 0 -84.5 17.5t-67.5 49.5l49 67q16 -20 42.5 -33.5t55.5 -13.5q30 0 51 18t21 45t-23 42t-55 15h-35l-20 45l78 90l25 24v2q-20 -3 -36 -3h-129v84h280v-61l-98 -112q49 -9 79 -42t30 -85q0 -61 -45 -105t-118 -44z" />
    <glyph glyph-name="fourinferior" unicode="&#x2084;" 
d="M218 -157v99h-203v64l189 276h108v-258h58v-82h-58v-99h-94zM111 24h107v110l4 55h-2q-12 -27 -26 -47l-83 -116v-2z" />
    <glyph glyph-name="fiveinferior" unicode="&#x2085;" 
d="M187 -167q-92 0 -151 67l52 67q14 -20 40 -33.5t52 -13.5q31 0 54 19t23 49t-23 49.5t-56 19.5q-38 0 -71 -18l-51 19l22 224h245v-84h-168l-5 -47l-4 -25l2 -1q22 8 51 8q67 0 110.5 -42.5t43.5 -103.5q0 -62 -46 -108t-120 -46z" />
    <glyph glyph-name="sixinferior" unicode="&#x2086;" 
d="M208 -167q-73 0 -122.5 55t-49.5 150q0 99 54 176.5t150 77.5q54 0 98 -23l-28 -81q-30 16 -65 16q-38 0 -64.5 -26.5t-36.5 -70.5h2q26 21 63 21q69 0 109.5 -41t40.5 -103q0 -64 -41.5 -107.5t-109.5 -43.5zM208 -80q27 0 42 18.5t15 46.5q0 31 -19 52.5t-52 21.5
q-24 0 -42 -12t-18 -28q0 -39 21.5 -69t52.5 -30z" />
    <glyph glyph-name="seveninferior" unicode="&#x2087;" 
d="M52 -157l175 317l24 38v2q-18 -2 -39 -2h-167v84h315v-65l-204 -374h-104z" />
    <glyph glyph-name="eightinferior" unicode="&#x2088;" 
d="M196 -166q-67 0 -116 36.5t-49 100.5q0 61 69 110q-47 35 -47 90q0 58 43 90t103 32q59 0 104 -33t45 -90q0 -49 -53 -108q62 -38 62 -99q0 -58 -47.5 -93.5t-113.5 -35.5zM230 93q29 36 29 71q0 22 -18.5 34.5t-42.5 12.5q-23 0 -38.5 -11t-15.5 -33q0 -13 6 -23.5
t21.5 -20.5t25 -14.5zM196 -85q26 0 46 14.5t20 38.5q0 11 -4.5 20t-17.5 18t-20.5 13.5t-29 14.5t-28.5 13q-39 -34 -39 -71q0 -28 21.5 -44.5t51.5 -16.5z" />
    <glyph glyph-name="nineinferior" unicode="&#x2089;" 
d="M53 -144l28 81q34 -16 65 -16q38 0 64.5 26.5t36.5 69.5h-2q-28 -21 -63 -21q-69 0 -109.5 41t-40.5 104q0 64 41.5 107.5t109.5 43.5q73 0 122.5 -55.5t49.5 -150.5q0 -98 -54 -175.5t-150 -77.5q-57 0 -98 23zM196 65q25 0 43 12.5t18 27.5q0 39 -21.5 69t-52.5 30
q-27 0 -42 -18.5t-15 -45.5q0 -31 19 -53t51 -22z" />
    <glyph glyph-name="Euro" unicode="&#x20ac;" horiz-adv-x="586" 
d="M26 250v76h56q-5 25 -1 62h-55v77h69q33 114 126.5 185.5t215.5 71.5q50 0 107 -13l-31 -117q-31 10 -79 10q-71 0 -124.5 -37t-76.5 -100h255l-16 -77h-257q-4 -27 1 -62h244l-15 -76h-207q24 -64 78 -102t123 -38q47 0 92 14l24 -118q-52 -18 -118 -18q-127 0 -219 72
t-123 190h-69z" />
    <glyph glyph-name="numero" unicode="&#x2116;" horiz-adv-x="1085" 
d="M82 0v710h129l268 -410q12 -19 26.5 -46.5l23.5 -45.5l9 -18h2q-7 68 -7 110v410h129v-710h-128l-270 409q-12 19 -26.5 46.5l-23.5 45.5l-9 18h-2q7 -68 7 -110v-409h-128zM732 464q0 64 44 108t110 44q64 0 108.5 -44.5t44.5 -107.5q0 -64 -44 -107.5t-109 -43.5
q-66 0 -110 43.5t-44 107.5zM825 465q0 -27 17.5 -45.5t43.5 -18.5t43.5 18.5t17.5 45.5q0 26 -17.5 44t-43.5 18t-43.5 -18t-17.5 -44zM741 171v88h286v-88h-286z" />
    <glyph glyph-name="trademark" unicode="&#x2122;" horiz-adv-x="1004" 
d="M476 267l35 443h89l91 -209l14 -42h2q6 25 13 42l92 209h89l33 -443h-95l-17 228l1 31h-2l-77 -178h-76l-78 178h-2l1 -31l-17 -228h-96zM207 267v359h-149v84h391v-84h-147v-359h-95z" />
    <glyph glyph-name="minus" unicode="&#x2212;" horiz-adv-x="586" 
d="M29 236v99h528v-99h-528z" />
    <glyph glyph-name="infinity" unicode="&#x221e;" horiz-adv-x="494" 
d="M247 157q-79 0 -135 56.5t-56 135.5t56 135t135 56t135 -56t56 -135t-56 -135.5t-135 -56.5z" />
    <glyph glyph-name="approxequal" unicode="&#x2248;" horiz-adv-x="586" 
d="M87 322l-50 74q76 76 157 76q50 0 107.5 -35t90.5 -35q58 0 107 55l49 -75q-74 -76 -156 -76q-50 0 -107.5 35t-90.5 35q-55 0 -107 -54zM87 117l-50 75q77 75 157 75q50 0 107.5 -35t90.5 -35q58 0 107 55l49 -75q-75 -75 -156 -75q-50 0 -107.5 35t-90.5 35
q-54 0 -107 -55z" />
    <glyph glyph-name="notequal" unicode="&#x2260;" horiz-adv-x="586" 
d="M101 63l49 71h-102v98h166l74 107h-240v98h305l76 112l61 -40l-50 -72h97v-98h-161l-74 -107h235v-98h-299l-75 -110z" />
    <glyph glyph-name="lessequal" unicode="&#x2264;" horiz-adv-x="586" 
d="M45 245v82l481 214v-111l-347 -143v-2l347 -143v-111zM47 -85h479v-98h-479v98z" />
    <glyph glyph-name="greaterequal" unicode="&#x2265;" horiz-adv-x="586" 
d="M60 31v111l346 143v2l-346 143v111l481 -214v-82zM60 -85h479v-98h-479v98z" />
    <glyph glyph-name="commaaccent" unicode="&#xf6c3;" horiz-adv-x="335" 
d="M118 -55h105q7 -28 7 -54q0 -43 -26 -97h-94q20 53 20 87q0 32 -12 64z" />
    <glyph glyph-name="cyrbreve" unicode="&#xf6d4;" horiz-adv-x="369" 
d="M183 742q-68 0 -116 37.5t-48 100.5v13h97v-13q0 -30 20 -46.5t47 -16.5t47.5 16.5t20.5 47.5v12h96v-13q0 -63 -48 -100.5t-116 -37.5z" />
    <glyph glyph-name="apple" unicode="&#xf8ff;" horiz-adv-x="1130" 
d="M168 -5v152l-126 72v278l126 71v151l265 142l134 -71l132 71l265 -142v-151l124 -71v-278l-124 -72v-152l-265 -141l-132 71l-134 -71zM208 30l238 -126l121 66l118 -66l238 126v139l114 64v249l-114 66v136l-238 126l-118 -64l-121 64l-238 -126v-136l-114 -66v-249
l114 -64v-139zM242 64v121l-99 60v225l99 58v123l215 114l110 -59l107 59l214 -114v-123l100 -58v-225l-100 -60v-121l-214 -114l-107 58l-110 -58zM447 91h43v228h228v40h-228v192h199q17 0 23 -6.5t6 -22.5v-42h42v54q0 30 -13 43.5t-45 13.5h-320v-40h65v-460z" />
    <glyph glyph-name="zero.tnum" horiz-adv-x="586" 
d="M294 -12q-70 0 -121.5 28t-80.5 80t-42.5 116t-13.5 144t13.5 144t42.5 115t80 79t122 28q257 0 257 -366q0 -80 -13.5 -144t-42 -116t-80 -80t-121.5 -28zM294 106q125 0 125 250q0 247 -125 247t-125 -247q0 -250 125 -250z" />
    <glyph glyph-name="one.tnum" horiz-adv-x="586" 
d="M90 0v111h155v394l1 48h-2q-9 -17 -32 -40l-57 -54l-76 80l178 171h113v-599h154v-111h-434z" />
    <glyph glyph-name="two.tnum" horiz-adv-x="586" 
d="M59 0q-6 34 -6 63q0 52 18.5 97t47.5 77.5t64.5 60.5t71 52t64.5 47t47.5 49.5t18.5 54.5q0 45 -31 72t-77 27q-39 0 -73 -24t-55 -60l-96 64q34 62 94 102t141 40q97 0 164 -56.5t67 -153.5q0 -46 -17.5 -86.5t-45.5 -69.5t-62.5 -55t-68.5 -48t-63 -43.5t-47.5 -46.5
t-19.5 -52h335v-111h-471z" />
    <glyph glyph-name="three.tnum" horiz-adv-x="586" 
d="M44 83l66 99q30 -31 73.5 -51.5t88.5 -20.5q55 0 91 30t36 76q0 54 -42.5 82t-109.5 28h-49l-28 66l130 154q12 15 25 28.5l19 19.5l7 6v2q-22 -3 -63 -3h-212v111h433v-81l-173 -201q80 -11 136.5 -65.5t56.5 -141.5q0 -96 -68 -164.5t-182 -68.5q-65 0 -127.5 24.5
t-107.5 70.5z" />
    <glyph glyph-name="four.tnum" horiz-adv-x="586" 
d="M13 183v79l307 448h152v-420h92v-107h-92v-183h-127v183h-332zM149 290h196v220l5 74h-2q-16 -38 -35 -65l-164 -227v-2z" />
    <glyph glyph-name="five.tnum" horiz-adv-x="586" 
d="M51 84l67 97q65 -71 151 -71q54 0 93.5 33.5t39.5 87.5q0 55 -40 89t-102 34q-59 0 -110 -30l-72 26l33 360h374v-111h-262l-11 -117l-5 -33h2q30 16 76 16q114 0 182 -67t68 -166q0 -105 -73 -174.5t-183 -69.5q-65 0 -125 25t-103 71z" />
    <glyph glyph-name="six.tnum" horiz-adv-x="586" 
d="M43 324q0 57 12.5 113t39.5 107.5t64.5 91t92 63t118.5 23.5q83 0 146 -30l-38 -111q-40 22 -101 22q-78 0 -126 -55t-62 -135h2q18 22 56 36t77 14q102 0 164.5 -69t62.5 -169t-65 -168.5t-168 -68.5q-116 0 -195.5 91t-79.5 245zM319 106q47 0 76 34t29 85
q0 57 -34.5 94.5t-95.5 37.5q-49 0 -83 -21.5t-34 -58.5q0 -62 42 -116.5t100 -54.5z" />
    <glyph glyph-name="seven.tnum" horiz-adv-x="586" 
d="M100 0l266 534q10 20 20.5 36t15.5 22l5 7v2q-11 -2 -47 -2h-303v111h488v-90l-311 -620h-134z" />
    <glyph glyph-name="eight.tnum" horiz-adv-x="586" 
d="M38 205q0 35 12 67t32 55.5t34.5 37t29.5 24.5q-74 57 -74 138t59 138t169 57q101 0 165.5 -53t64.5 -143t-79 -177q91 -58 91 -150q0 -86 -68.5 -148.5t-182.5 -62.5q-112 0 -182.5 62.5t-70.5 154.5zM355 397q49 60 49 119q0 42 -29.5 66.5t-77.5 24.5q-46 0 -72 -23
t-26 -59q0 -11 2.5 -20.5t9 -19l11 -16t17 -14.5t19 -12.5t23 -12.5t23 -10.5t26.5 -11.5t25 -11zM170 215q0 -48 36 -80.5t85 -32.5q51 0 85.5 28.5t34.5 73.5q0 19 -8.5 34t-30 29.5t-36.5 22.5t-50 23t-49 22q-67 -57 -67 -120z" />
    <glyph glyph-name="nine.tnum" horiz-adv-x="586" 
d="M70 18l38 111q48 -23 100 -23q78 0 126 54.5t63 135.5h-2q-18 -22 -56 -36t-77 -14q-102 0 -165 69.5t-63 168.5q0 100 65 169t169 69q116 0 195 -91t79 -246q0 -57 -12.5 -113t-39.5 -107.5t-64.5 -90.5t-92 -62.5t-118.5 -23.5q-84 0 -145 30zM292 352q48 0 82.5 22.5
t34.5 54.5q0 67 -42.5 120.5t-97.5 53.5q-49 0 -78 -33.5t-29 -85.5q0 -57 34.5 -94.5t95.5 -37.5z" />
    <glyph glyph-name="hyphen.case" horiz-adv-x="432" 
d="M66 292v111h300v-111h-300z" />
    <glyph glyph-name="parenleft.case" horiz-adv-x="308" 
d="M167 -65q-119 195 -119 438q0 210 119 398h107q-113 -190 -113 -399q0 -226 113 -437h-107z" />
    <glyph glyph-name="parenright.case" horiz-adv-x="308" 
d="M34 -65q113 211 113 437q0 209 -113 399h107q119 -188 119 -398q0 -243 -119 -438h-107z" />
    <glyph glyph-name="bracketleft.case" horiz-adv-x="321" 
d="M80 -65v836h197v-92h-89v-652h89v-92h-197z" />
    <glyph glyph-name="bracketright.case" horiz-adv-x="321" 
d="M44 27h89v652h-89v92h197v-836h-197v92z" />
    <glyph glyph-name="braceleft.case" horiz-adv-x="371" 
d="M122 101v97q0 43 -21.5 70.5t-63.5 33.5v111q40 6 62.5 33.5t22.5 72.5v86q0 43 13.5 75.5t32 50t45 27.5t46 13t40.5 3l31 -1v-94q-8 1 -18 1q-13 0 -24.5 -3t-25.5 -11t-22.5 -26t-8.5 -45v-109q0 -45 -22.5 -79t-60.5 -48v-2q83 -31 83 -126v-120q0 -85 81 -85l18 1
v-94q-13 -2 -31 -2q-21 0 -40.5 3t-46 13t-45 27.5t-32 50t-13.5 76.5z" />
    <glyph glyph-name="braceright.case" horiz-adv-x="371" 
d="M41 27q7 -1 18 -1q81 0 81 85v120q0 44 21.5 79t60.5 47v2q-34 12 -58 46.5t-24 80.5v109q0 27 -8.5 45t-22.5 26t-25.5 11t-24.5 3l-18 -1v94q12 1 31 1q27 0 52 -5.5t56 -21.5t49.5 -52.5t18.5 -89.5v-86q0 -42 22 -71.5t63 -34.5v-111q-39 -4 -62 -33t-23 -71v-97
q0 -44 -13.5 -76.5t-32 -49.5t-44.5 -27.5t-45.5 -13.5t-40.5 -3l-31 2v94z" />
    <glyph glyph-name="at.case" horiz-adv-x="815" 
d="M52 352q0 156 108.5 264.5t267.5 108.5q143 0 209 -61t66 -157v-250h73v-91h-277q-97 0 -156 55t-59 131q0 75 58.5 129t156.5 54h85q-1 39 -43.5 63.5t-108.5 24.5q-107 0 -181 -81t-74 -190q0 -113 74.5 -190.5t197.5 -77.5v-99q-176 0 -286.5 105t-110.5 262zM411 355
q0 -41 26.5 -69.5t69.5 -28.5h77v196h-75q-44 0 -71 -28.5t-27 -69.5z" />
    <glyph glyph-name="guillemotleft.case" horiz-adv-x="597" 
d="M429 137l-164 205l164 206h121l-164 -206l164 -205h-121zM204 137l-164 205l164 206h121l-164 -206l164 -205h-121z" />
    <glyph glyph-name="guillemotright.case" horiz-adv-x="597" 
d="M272 137l164 205l-164 206h121l164 -206l-164 -205h-121zM47 137l164 205l-164 206h121l164 -206l-164 -205h-121z" />
    <glyph glyph-name="guilsinglleft.case" horiz-adv-x="373" 
d="M204 137l-164 205l164 206h121l-164 -206l164 -205h-121z" />
    <glyph glyph-name="guilsinglright.case" horiz-adv-x="373" 
d="M47 137l164 205l-164 206h121l164 -206l-164 -205h-121z" />
    <glyph glyph-name="endash.case" horiz-adv-x="685" 
d="M66 296v99h553v-99h-553z" />
    <glyph glyph-name="emdash.case" horiz-adv-x="885" 
d="M66 296v99h753v-99h-753z" />
    <glyph glyph-name="periodcentered.case" horiz-adv-x="254" 
d="M66 282v127h122v-127h-122z" />
    <glyph glyph-name="questiondown.case" horiz-adv-x="484" 
d="M337 504v-48q0 -40 -17 -73t-41 -55l-48 -42.5t-41 -46t-17 -54.5q0 -35 28 -59t69 -24q55 0 106 42l71 -87q-76 -72 -188 -72q-89 0 -154 51.5t-65 136.5q0 46 18 83t43.5 61t51.5 45.5t44 47.5t18 55v39h122zM338 709v-119h-123v119h123z" />
    <glyph glyph-name="exclamdown.case" horiz-adv-x="287" 
d="M199 504l10 -505h-131l10 505h111zM205 709v-119h-123v119h123z" />
    <glyph glyph-name="bullet.case" horiz-adv-x="492" 
d="M246 187q-69 0 -118 49t-49 118t49 118t118 49q70 0 118.5 -49t48.5 -118t-48.5 -118t-118.5 -49z" />
    <glyph glyph-name="zero.p_osf" horiz-adv-x="585" 
d="M46 274q0 119 63 203.5t184 84.5q62 0 110.5 -24.5t77.5 -66t43.5 -92t14.5 -106.5t-14.5 -105.5t-43.5 -90.5t-77.5 -65t-110.5 -24q-121 0 -184 84t-63 202zM174 275q0 -75 29.5 -127t89.5 -52q59 0 88.5 52t29.5 126q0 75 -29.5 127.5t-88.5 52.5q-60 0 -89.5 -52
t-29.5 -127z" />
    <glyph glyph-name="one.p_osf" horiz-adv-x="498" 
d="M63 0v108h148v249l1 65h-2q-15 -16 -38 -30l-77 -45l-58 87l187 116h110v-442h136v-108h-407z" />
    <glyph glyph-name="two.p_osf" horiz-adv-x="547" 
d="M55 0v86q61 39 105 70t91 70.5t71.5 76t24.5 67.5q0 41 -27.5 61t-68.5 20q-73 0 -144 -73l-66 83q37 43 98.5 72t128.5 29q88 0 148 -48t60 -127q0 -83 -60.5 -148t-174.5 -133v-2q22 4 63 4h198v-108h-447z" />
    <glyph glyph-name="three.p_osf" horiz-adv-x="540" 
d="M28 -40l60 89q69 -69 155 -69q56 0 92 28t36 75q0 53 -45 81t-104 28h-55l-28 62l126 147q10 12 21 22.5t17 14.5l6 5v2q-22 -4 -63 -4h-180v109h411v-74l-175 -193q81 -10 139 -59.5t58 -132.5q0 -93 -68.5 -156t-183.5 -63q-134 0 -219 88z" />
    <glyph glyph-name="four.p_osf" horiz-adv-x="600" 
d="M24 29v79l290 442h157v-413h95v-108h-95v-145h-127v145h-320zM160 137h184v217l5 74h-2q-16 -39 -35 -67z" />
    <glyph glyph-name="five.p_osf" horiz-adv-x="544" 
d="M36 -36l59 88q27 -30 67.5 -49t82.5 -19q54 0 95 30t41 84q0 55 -40 86.5t-98 31.5q-29 0 -57 -7t-42 -13l-14 -7l-68 25l33 336h360v-109h-252l-11 -108l-5 -31h2q34 14 77 14q110 0 176.5 -59.5t66.5 -152.5q0 -103 -71.5 -165.5t-183.5 -62.5q-134 0 -218 88z" />
    <glyph glyph-name="six.p_osf" horiz-adv-x="595" 
d="M50 298q0 69 20 134.5t58 121.5t101 90t141 34q81 0 145 -28l-38 -101q-45 21 -100 21q-76 0 -124.5 -54.5t-62.5 -130.5h2q18 22 57 35.5t78 13.5q100 0 162 -64t62 -157q0 -94 -64.5 -159.5t-166.5 -65.5q-115 0 -192.5 82.5t-77.5 227.5zM181 261q0 -63 40 -114
t99 -51q48 0 76 32t28 84t-34 87t-94 35q-48 0 -81.5 -21t-33.5 -52z" />
    <glyph glyph-name="seven.p_osf" horiz-adv-x="523" 
d="M76 -116l253 498q9 19 18 34t13 21l5 6v2q-10 -3 -46 -3h-289v108h477v-85l-298 -581h-133z" />
    <glyph glyph-name="eight.p_osf" horiz-adv-x="592" 
d="M48 193q0 93 105 172q-73 53 -73 130q0 76 57.5 129t163.5 53q98 0 161 -50t63 -134q0 -35 -16 -73.5t-30 -58t-27 -34.5q89 -57 89 -140q0 -81 -67 -140t-179 -59q-110 0 -178.5 59t-68.5 146zM355 373q48 57 48 112q0 39 -28.5 62t-75.5 23q-46 0 -71.5 -21.5
t-25.5 -55.5q0 -27 21 -48.5t46.5 -34.5t67.5 -30q12 -5 18 -7zM174 203q0 -47 35.5 -77.5t85.5 -30.5t84 26.5t34 69.5q0 14 -7.5 27.5t-17.5 22.5t-29.5 20t-33.5 17l-41 17.5t-40 17.5q-70 -52 -70 -110z" />
    <glyph glyph-name="nine.p_osf" horiz-adv-x="578" 
d="M110 1q44 -21 100 -21q76 0 124.5 54t62.5 130h-2q-18 -21 -56.5 -34.5t-77.5 -13.5q-101 0 -163 63.5t-62 156.5q0 95 64.5 160.5t166.5 65.5q116 0 193 -82.5t77 -228.5q0 -69 -20 -134.5t-58 -121t-101 -89.5t-141 -34q-82 0 -145 28zM291 216q48 0 81.5 21t33.5 51
q0 64 -40 115t-99 51q-48 0 -76 -32t-28 -84t34 -87t94 -35z" />
    <glyph glyph-name="zero.t_osf" horiz-adv-x="586" 
d="M46 274q0 119 63 203.5t184 84.5q62 0 110.5 -24.5t77.5 -66t43.5 -92t14.5 -106.5t-14.5 -105.5t-43.5 -90.5t-77.5 -65t-110.5 -24q-121 0 -184 84t-63 202zM174 275q0 -75 29.5 -127t89.5 -52q59 0 88.5 52t29.5 126q0 75 -29.5 127.5t-88.5 52.5q-60 0 -89.5 -52
t-29.5 -127z" />
    <glyph glyph-name="one.t_osf" horiz-adv-x="586" 
d="M107 0v108h148v249l1 65h-2q-15 -16 -38 -30l-77 -45l-58 87l187 116h110v-442h136v-108h-407z" />
    <glyph glyph-name="two.t_osf" horiz-adv-x="586" 
d="M75 0v86q61 39 105 70t91 70.5t71.5 76t24.5 67.5q0 41 -27.5 61t-68.5 20q-73 0 -144 -73l-66 83q37 43 98.5 72t128.5 29q88 0 148 -48t60 -127q0 -83 -60.5 -148t-174.5 -133v-2q22 4 63 4h198v-108h-447z" />
    <glyph glyph-name="three.t_osf" horiz-adv-x="586" 
d="M52 -39l60 89q69 -69 154 -69q56 0 92 28t36 75q0 53 -45 80.5t-104 27.5h-54l-28 62l125 147q10 12 21 22.5t17 14.5l6 5v2q-22 -4 -63 -4h-179v109h410v-74l-175 -193q80 -10 138.5 -59.5t58.5 -131.5q0 -93 -68.5 -156t-183.5 -63q-61 0 -119 22.5t-99 65.5z" />
    <glyph glyph-name="four.t_osf" horiz-adv-x="586" 
d="M18 29v79l290 442h157v-413h95v-108h-95v-145h-127v145h-320zM154 137h184v217l5 74h-2q-16 -39 -35 -67z" />
    <glyph glyph-name="five.t_osf" horiz-adv-x="586" 
d="M57 -36l59 88q27 -30 67.5 -49t82.5 -19q54 0 95 30t41 84q0 55 -40 86.5t-98 31.5q-29 0 -57 -7t-42 -13l-14 -7l-68 25l33 336h360v-109h-252l-11 -108l-5 -31h2q34 14 77 14q110 0 176.5 -59.5t66.5 -152.5q0 -103 -71.5 -165.5t-183.5 -62.5q-134 0 -218 88z" />
    <glyph glyph-name="six.t_osf" horiz-adv-x="586" 
d="M47 298q0 69 20 134.5t58 121.5t101 90t141 34q81 0 145 -28l-38 -101q-46 21 -100 21q-76 0 -124.5 -54.5t-62.5 -130.5h2q18 22 57 35.5t78 13.5q100 0 162 -64t62 -157q0 -94 -64.5 -159.5t-166.5 -65.5q-115 0 -192.5 82.5t-77.5 227.5zM178 261q0 -63 40 -114
t99 -51q48 0 76 32t28 84t-34 87t-94 35q-48 0 -81.5 -21t-33.5 -52z" />
    <glyph glyph-name="seven.t_osf" horiz-adv-x="586" 
d="M107 -116l253 498q9 19 18 34t14 21l4 6v2q-10 -3 -46 -3h-289v108h477v-85l-298 -581h-133z" />
    <glyph glyph-name="eight.t_osf" horiz-adv-x="586" 
d="M45 193q0 93 105 172q-73 53 -73 130q0 76 57.5 129t163.5 53q98 0 161 -50t63 -134q0 -35 -16 -73.5t-30 -58t-27 -34.5q89 -57 89 -140q0 -81 -67 -140t-179 -59q-110 0 -178.5 59t-68.5 146zM352 373q48 57 48 112q0 39 -28.5 62t-75.5 23q-46 0 -71.5 -21.5
t-25.5 -55.5q0 -27 21 -48.5t46.5 -34.5t67.5 -30q12 -5 18 -7zM171 203q0 -47 35.5 -77.5t85.5 -30.5t84 26.5t34 69.5q0 14 -7.5 27.5t-17.5 22.5t-29.5 20t-33.5 17l-41 17.5t-40 17.5q-70 -52 -70 -110z" />
    <glyph glyph-name="nine.t_osf" horiz-adv-x="586" 
d="M113 1q44 -21 100 -21q76 0 124.5 54t62.5 130h-2q-18 -21 -56.5 -34.5t-77.5 -13.5q-101 0 -163 63.5t-62 156.5q0 95 64.5 160.5t166.5 65.5q116 0 193 -82.5t77 -228.5q0 -69 -20 -134.5t-58 -121t-101 -89.5t-141 -34q-82 0 -145 28zM294 216q48 0 81.5 21t33.5 51
q0 64 -40 115t-99 51q-48 0 -76 -32t-28 -84t34 -87t94 -35z" />
    <glyph glyph-name="dollar.osf" horiz-adv-x="526" 
d="M39 84l62 94q29 -32 72 -54.5t86 -22.5q41 0 66 16.5t25 45.5q0 20 -21.5 37t-53.5 29t-70 29t-70 36.5t-53.5 53t-21.5 76.5q0 67 46.5 110t121.5 55v89h86v-88q95 -10 154 -62l-49 -101q-25 24 -62.5 38.5t-73.5 14.5q-91 0 -91 -62q0 -23 30 -40.5t72.5 -33t85 -36
t72.5 -58t30 -89.5q0 -65 -46.5 -111.5t-125.5 -57.5v-93h-86v92q-113 15 -185 93z" />
    <glyph glyph-name="cent.osf" horiz-adv-x="555" 
d="M248 -28v83q-94 18 -149.5 85t-55.5 159q0 91 55.5 158.5t149.5 85.5v84h89v-79q96 -9 168 -78l-59 -93q-22 27 -57 43.5t-70 16.5q-68 0 -109 -39.5t-41 -96.5q0 -59 41 -99t109 -40q71 0 127 59l58 -92q-60 -66 -167 -78v-79h-89z" />
    <glyph glyph-name="sterling.osf" horiz-adv-x="606" 
d="M52 0v108h59v129h-44v84h44v70q0 87 68 144.5t168 57.5q104 0 182 -57l-58 -94q-53 38 -122 38q-47 0 -78.5 -26.5t-31.5 -64.5v-68h203v-84h-203v-129h311v-108h-498z" />
    <glyph glyph-name="yen.osf" horiz-adv-x="642" 
d="M92 132v76h164v16l-37 63h-127v76h83l-129 218h146l84 -158l43 -98h2q22 55 43 98l84 158h146l-129 -218h87v-76h-131l-37 -63v-16h168v-76h-168v-132h-128v132h-164z" />
    <glyph glyph-name="florin.osf" horiz-adv-x="555" 
d="M18 -12q45 -6 67 -6q99 0 107 92l19 215h-76v101h84l9 99q4 48 22.5 83.5t42 55t54.5 31.5t55 15.5t50 3.5l86 -8v-108q-54 7 -78 7q-99 0 -107 -92l-9 -87h109v-101h-118l-19 -227q-5 -59 -30 -99.5t-61.5 -58.5t-67.5 -24.5t-64 -6.5l-75 7v108z" />
    <glyph glyph-name="Euro.osf" horiz-adv-x="597" 
d="M47 192v70h65q-3 20 -1 55h-64v70h76q28 90 107 148t201 58q51 0 99 -12l-28 -102q-33 10 -74 10q-123 0 -170 -102h225l-15 -70h-230q-3 -29 2 -55h219l-13 -70h-181q22 -44 64.5 -71t103.5 -27q48 0 87 14l21 -103q-49 -17 -110 -17q-118 0 -196.5 57t-109.5 147h-78z
" />
    <glyph glyph-name="zero.numerator" 
d="M196 262q-162 0 -162 230q0 229 162 229t162 -229q0 -230 -162 -230zM196 349q66 0 66 143q0 141 -66 141q-67 0 -67 -141q0 -143 67 -143z" />
    <glyph glyph-name="one.numerator" 
d="M66 272v83h92v207l2 28h-2q-4 -9 -15 -19l-31 -29l-56 60l113 109h84v-356h91v-83h-278z" />
    <glyph glyph-name="two.numerator" 
d="M43 272q-4 28 -4 41q0 41 15.5 74t38.5 53t49.5 39t49.5 32.5t38.5 31.5t15.5 38q0 23 -17.5 37.5t-43.5 14.5q-40 0 -80 -46l-62 55q22 35 62 57t85 22q63 0 107.5 -36.5t44.5 -99.5q0 -40 -19.5 -71.5t-48 -51t-57 -35.5t-50 -34t-23.5 -38h204v-83h-305z" />
    <glyph glyph-name="three.numerator" 
d="M184 262q-43 0 -84.5 17.5t-67.5 49.5l49 67q16 -20 42.5 -33.5t55.5 -13.5q30 0 51 18t21 45t-23 42t-55 15h-35l-20 45l78 90l25 24v2q-20 -3 -36 -3h-129v84h280v-61l-98 -112q49 -9 79 -42t30 -85q0 -61 -45 -105t-118 -44z" />
    <glyph glyph-name="four.numerator" 
d="M218 272v99h-203v64l189 276h108v-258h58v-82h-58v-99h-94zM111 453h107v110l4 55h-2q-12 -27 -26 -47l-83 -116v-2z" />
    <glyph glyph-name="five.numerator" 
d="M187 262q-92 0 -151 67l52 67q14 -20 40 -33.5t52 -13.5q31 0 54 19t23 49t-23 49.5t-56 19.5q-38 0 -71 -18l-51 19l22 224h245v-84h-168l-5 -47l-4 -25l2 -1q22 8 51 8q67 0 110.5 -42.5t43.5 -103.5q0 -62 -46 -108t-120 -46z" />
    <glyph glyph-name="six.numerator" 
d="M208 262q-73 0 -122.5 55t-49.5 150q0 99 54 176.5t150 77.5q54 0 98 -23l-28 -81q-30 16 -65 16q-38 0 -64.5 -26.5t-36.5 -70.5h2q26 21 63 21q69 0 109.5 -41t40.5 -103q0 -64 -41.5 -107.5t-109.5 -43.5zM208 349q27 0 42 18.5t15 46.5q0 31 -19 52.5t-52 21.5
q-24 0 -42 -12t-18 -28q0 -39 21.5 -69t52.5 -30z" />
    <glyph glyph-name="seven.numerator" 
d="M52 272l175 317l24 38v2q-18 -2 -39 -2h-167v84h315v-65l-204 -374h-104z" />
    <glyph glyph-name="eight.numerator" 
d="M196 261q-67 0 -116 36.5t-49 100.5q0 61 69 110q-47 35 -47 90q0 58 43 90t103 32q59 0 104 -33t45 -90q0 -49 -53 -108q62 -38 62 -99q0 -58 -47.5 -93.5t-113.5 -35.5zM230 520q29 36 29 71q0 22 -18.5 34.5t-42.5 12.5q-23 0 -38.5 -11t-15.5 -33q0 -13 6 -23.5
t21.5 -20.5t25 -14.5zM196 342q26 0 46 14.5t20 38.5q0 11 -4.5 20t-17.5 18t-20.5 13.5t-29 14.5t-28.5 13q-39 -34 -39 -71q0 -28 21.5 -44.5t51.5 -16.5z" />
    <glyph glyph-name="nine.numerator" 
d="M53 285l28 81q34 -16 65 -16q38 0 64.5 26.5t36.5 69.5h-2q-28 -21 -63 -21q-69 0 -109.5 41t-40.5 104q0 64 41.5 107.5t109.5 43.5q73 0 122.5 -55.5t49.5 -150.5q0 -98 -54 -175.5t-150 -77.5q-57 0 -98 23zM196 494q25 0 43 12.5t18 27.5q0 39 -21.5 69t-52.5 30
q-27 0 -42 -18.5t-15 -45.5q0 -31 19 -53t51 -22z" />
    <glyph glyph-name="zero.denominator" 
d="M196 -10q-162 0 -162 230q0 229 162 229t162 -229q0 -230 -162 -230zM196 77q66 0 66 143q0 141 -66 141q-67 0 -67 -141q0 -143 67 -143z" />
    <glyph glyph-name="one.denominator" 
d="M66 0v83h92v207l2 28h-2q-4 -9 -15 -19l-31 -29l-56 60l113 109h84v-356h91v-83h-278z" />
    <glyph glyph-name="two.denominator" 
d="M43 0q-4 28 -4 41q0 41 15.5 74t38.5 53t49.5 39t49.5 32.5t38.5 31.5t15.5 38q0 23 -17.5 37.5t-43.5 14.5q-40 0 -80 -46l-62 55q22 35 62 57t85 22q63 0 107.5 -36.5t44.5 -99.5q0 -40 -19.5 -71.5t-48 -51t-57 -35.5t-50 -34t-23.5 -38h204v-83h-305z" />
    <glyph glyph-name="three.denominator" 
d="M184 -10q-43 0 -84.5 17.5t-67.5 49.5l49 67q16 -20 42.5 -33.5t55.5 -13.5q30 0 51 18t21 45t-23 42t-55 15h-35l-20 45l78 90l25 24v2q-20 -3 -36 -3h-129v84h280v-61l-98 -112q49 -9 79 -42t30 -85q0 -61 -45 -105t-118 -44z" />
    <glyph glyph-name="four.denominator" 
d="M218 0v99h-203v64l189 276h108v-258h58v-82h-58v-99h-94zM111 181h107v110l4 55h-2q-12 -27 -26 -47l-83 -116v-2z" />
    <glyph glyph-name="five.denominator" 
d="M187 -10q-92 0 -151 67l52 67q14 -20 40 -33.5t52 -13.5q31 0 54 19t23 49t-23 49.5t-56 19.5q-38 0 -71 -18l-51 19l22 224h245v-84h-168l-5 -47l-4 -25l2 -1q22 8 51 8q67 0 110.5 -42.5t43.5 -103.5q0 -62 -46 -108t-120 -46z" />
    <glyph glyph-name="six.denominator" 
d="M208 -10q-73 0 -122.5 55t-49.5 150q0 99 54 176.5t150 77.5q54 0 98 -23l-28 -81q-30 16 -65 16q-38 0 -64.5 -26.5t-36.5 -70.5h2q26 21 63 21q69 0 109.5 -41t40.5 -103q0 -64 -41.5 -107.5t-109.5 -43.5zM208 77q27 0 42 18.5t15 46.5q0 31 -19 52.5t-52 21.5
q-24 0 -42 -12t-18 -28q0 -39 21.5 -69t52.5 -30z" />
    <glyph glyph-name="seven.denominator" 
d="M52 0l175 317l24 38v2q-18 -2 -39 -2h-167v84h315v-65l-204 -374h-104z" />
    <glyph glyph-name="eight.denominator" 
d="M196 -10q-67 0 -116 36.5t-49 100.5q0 61 69 110q-47 35 -47 90q0 58 43 90t103 32q59 0 104 -33t45 -90q0 -49 -53 -108q62 -38 62 -99q0 -58 -47.5 -93.5t-113.5 -35.5zM230 249q29 36 29 71q0 22 -18.5 34.5t-42.5 12.5q-23 0 -38.5 -11t-15.5 -33q0 -13 6 -23.5
t21.5 -20.5t25 -14.5zM196 71q26 0 46 14.5t20 38.5q0 11 -4.5 20t-17.5 18t-20.5 13.5t-29 14.5t-28.5 13q-39 -34 -39 -71q0 -28 21.5 -44.5t51.5 -16.5z" />
    <glyph glyph-name="nine.denominator" 
d="M53 13l28 81q34 -16 65 -16q38 0 64.5 26.5t36.5 69.5h-2q-28 -21 -63 -21q-69 0 -109.5 41t-40.5 104q0 64 41.5 107.5t109.5 43.5q73 0 122.5 -55.5t49.5 -150.5q0 -98 -54 -175.5t-150 -77.5q-57 0 -98 23zM196 222q25 0 43 12.5t18 27.5q0 39 -21.5 69t-52.5 30
q-27 0 -42 -18.5t-15 -45.5q0 -31 19 -53t51 -22z" />
    <glyph glyph-name="uni0433.BUL" horiz-adv-x="455" 
d="M35 128q0 46 26 80t63.5 54t75 36t63.5 35t26 41q0 43 -64 43q-69 0 -132 -44l-47 91q83 58 184 58q80 0 129.5 -36t49.5 -104q0 -46 -26.5 -81.5t-64 -55.5t-74.5 -36.5t-63.5 -34t-26.5 -38.5t19.5 -32t50.5 -11q44 0 83.5 18.5t59.5 37.5l58 -86q-86 -75 -204 -75
q-87 0 -136.5 38.5t-49.5 101.5z" />
    <glyph glyph-name="uni0434.BUL" horiz-adv-x="606" 
d="M126 -69q68 -33 141 -33q64 0 104 30t40 94v32l2 27h-2q-47 -71 -143 -71q-106 0 -167 74t-61 184t59.5 182t165.5 72q104 0 152 -67h3q-2 6 -2 14v41h120v-479q0 -63 -23 -111t-62 -75.5t-85.5 -41t-98.5 -13.5q-97 0 -182 44zM168 272q0 -69 33.5 -112t94.5 -43
q51 0 84.5 35t33.5 115q0 147 -126 147q-57 0 -88.5 -38.5t-31.5 -103.5z" />
    <glyph glyph-name="uni0436.BUL" horiz-adv-x="785" 
d="M13 0l156 262v2l-143 246h132l113 -198h62v398h119v-398h62l113 198h132l-142 -246v-2l156 -262h-140l-117 205h-64v-205h-119v205h-64l-117 -205h-139z" />
    <glyph glyph-name="uni0438.BUL" horiz-adv-x="607" 
d="M63 182v328h127v-302q0 -51 17.5 -77.5t61.5 -26.5q66 0 104.5 50t38.5 122v234h126v-510h-122v60l3 35h-2q-20 -43 -68 -75t-109 -32q-177 0 -177 194z" />
    <glyph glyph-name="uni0439.BUL" horiz-adv-x="607" 
d="M63 182v328h127v-302q0 -51 17.5 -77.5t61.5 -26.5q66 0 104.5 50t38.5 122v234h126v-510h-122v60l3 35h-2q-20 -43 -68 -75t-109 -32q-177 0 -177 194zM299 559q-68 0 -116 37.5t-48 100.5v13h97v-13q0 -30 20 -46.5t47 -16.5t47.5 16.5t20.5 47.5v12h96v-13
q0 -63 -48 -100.5t-116 -37.5z" />
    <glyph glyph-name="uni043A.BUL" horiz-adv-x="549" 
d="M68 0v710h127v-380h63l123 180h141l-161 -228v-2l181 -280h-146l-135 223h-66v-223h-127z" />
    <glyph glyph-name="uni043B.BUL" horiz-adv-x="542" 
d="M10 0l184 510h151l182 -510h-134l-105 316l-18 76h-2q-9 -47 -19 -76l-106 -316h-133z" />
    <glyph glyph-name="uni043F.BUL" horiz-adv-x="612" 
d="M68 0v510h122v-60l-2 -36h2q20 41 66 74.5t115 33.5q178 0 178 -194v-328h-127v302q0 51 -17.5 77.5t-62.5 26.5q-66 0 -106.5 -48t-40.5 -119v-239h-127z" />
    <glyph glyph-name="uni0442.BUL" horiz-adv-x="912" 
d="M68 0v510h122v-60l-2 -36h2q20 42 65.5 75t101.5 33q116 0 148 -105h2q23 43 70 74t104 31q167 0 167 -194v-328h-126v304q0 49 -15 75.5t-55 26.5q-62 0 -96 -52.5t-34 -124.5v-229h-127v304q0 49 -14 75.5t-55 26.5q-62 0 -96.5 -53.5t-34.5 -123.5v-229h-127z" />
    <glyph glyph-name="uni0446.BUL" horiz-adv-x="644" 
d="M63 182v328h127v-302q0 -51 17.5 -77.5t61.5 -26.5q66 0 104.5 50t38.5 122v234h126v-402h83v-228h-114v120h-91v60l3 35h-2q-20 -43 -68 -75t-109 -32q-177 0 -177 194z" />
    <glyph glyph-name="uni0448.BUL" horiz-adv-x="911" 
d="M843 509v-510h-122v60l2 36h-2q-20 -42 -65.5 -75t-101.5 -33q-116 0 -148 105h-2q-23 -43 -70 -74t-104 -31q-167 0 -167 194v328h126v-304q0 -49 15 -75.5t55 -26.5q62 0 96 52.5t34 124.5v229h127v-304q0 -49 14 -75.5t55 -26.5q62 0 96.5 53.5t34.5 123.5v229h127z
" />
    <glyph glyph-name="uni0449.BUL" horiz-adv-x="943" 
d="M843 509v-401h76v-228h-114v119h-84v60l2 36h-2q-20 -42 -65.5 -75t-101.5 -33q-116 0 -148 105h-2q-23 -43 -70 -74t-104 -31q-167 0 -167 194v328h126v-304q0 -49 15 -75.5t55 -26.5q62 0 96 52.5t34 124.5v229h127v-304q0 -49 14 -75.5t55 -26.5q62 0 96.5 53.5
t34.5 123.5v229h127z" />
    <glyph glyph-name="uni044A.BUL" horiz-adv-x="588" 
d="M125 190v212h-102v108h229v-132q0 -31 -1 -42h2q47 43 126 43t131 -52.5t52 -141.5q0 -91 -60 -144t-159 -53q-110 0 -164 54.5t-54 147.5zM251 184q0 -43 24.5 -71.5t67.5 -28.5q40 0 65.5 24.5t25.5 72.5q0 98 -89 98q-44 0 -69 -26t-25 -69z" />
    <glyph glyph-name="uni044C.BUL" horiz-adv-x="526" 
d="M63 190v320h127v-132q0 -20 -2 -42h2q49 43 126 43q80 0 131.5 -52.5t51.5 -141.5q0 -91 -60 -144t-159 -53q-110 0 -163.5 54t-53.5 148zM189 184q0 -43 24 -71.5t67 -28.5q40 0 66 24.5t26 72.5q0 98 -90 98q-44 0 -68.5 -26t-24.5 -69z" />
    <glyph glyph-name="uni044E.BUL" horiz-adv-x="851" 
d="M68 0v710h127v-402h84q17 95 90 154.5t173 59.5q115 0 193.5 -75.5t78.5 -191.5t-78 -191.5t-193 -75.5q-102 0 -175 60t-90 157h-83v-205h-127zM400 255q0 -70 41 -114.5t102 -44.5q60 0 101 44.5t41 114.5t-41 114.5t-101 44.5q-61 0 -102 -44.5t-41 -114.5z" />
    <glyph glyph-name="uni0432.BUL" horiz-adv-x="604" 
d="M59 245v190q0 128 69.5 207.5t189.5 79.5q90 0 140.5 -44t50.5 -104q0 -91 -111 -151v-2q68 -8 119 -57t51 -132q0 -110 -72.5 -177t-186.5 -67q-66 0 -116 23t-78 61t-42 82t-14 91zM185 391h2q18 29 65 54l46 23q45 22 65 44.5t20 52.5q0 28 -22.5 46.5t-57.5 18.5
q-53 0 -85.5 -40t-32.5 -110v-89zM184 225q0 -65 34.5 -99t88.5 -34q57 0 94 35t37 101q0 61 -37 89.5t-91 28.5q-49 0 -87.5 -31t-38.5 -90z" />
    <glyph glyph-name="uni0437.BUL" horiz-adv-x="454" 
d="M48 -63q51 -38 115 -38q61 0 94.5 33t33.5 84t-32.5 79.5t-95.5 28.5h-65v101h67q45 0 77.5 26t32.5 73q0 43 -27.5 67t-72.5 24q-65 0 -110 -43l-56 80q79 70 188 70q93 0 149 -50t57 -125q0 -59 -29.5 -100.5t-76.5 -62.5v-2q121 -47 121 -173q0 -93 -66 -156t-177 -63
q-47 0 -97 13.5t-81 35.5z" />
    <glyph glyph-name="uni0414.ALT" horiz-adv-x="728" 
d="M11 111h74l211 599h134l211 -599h76v-251h-115v140h-476v-140h-115v251zM219 111h288l-117 350l-26 104h-2q-14 -64 -26 -104z" />
    <glyph glyph-name="uni041B.ALT" horiz-adv-x="653" 
d="M7 0l252 710h134l252 -710h-137l-154 461l-27 104h-2q-13 -64 -26 -104l-153 -461h-139z" />
    <glyph glyph-name="uni0434.ALT" horiz-adv-x="624" 
d="M17 102h63l153 408h157l151 -408h65v-222h-114v120h-360v-120h-115v222zM206 102h208l-82 227l-21 76h-2q-10 -47 -20 -76z" />
    <glyph glyph-name="uni043B.ALT" horiz-adv-x="542" 
d="M10 0l184 510h151l182 -510h-134l-105 316l-18 76h-2q-9 -47 -19 -76l-106 -316h-133z" />
    <glyph glyph-name="uni0409.ALT" horiz-adv-x="910" 
d="M6 0l269 710h254v-279h131q101 0 163.5 -59.5t62.5 -156.5q0 -96 -62.5 -155.5t-160.5 -59.5h-262v599h-39l-224 -599h-132zM529 111h111q53 0 84 28t31 76t-31.5 76.5t-85.5 28.5h-109v-209z" />
    <glyph glyph-name="uni0459.ALT" horiz-adv-x="775" 
d="M10 0l211 510h246v-185h93q91 0 141 -42.5t50 -122.5q0 -75 -47.5 -117.5t-144.5 -42.5h-218v415h-40l-167 -415h-124zM467 87h77q42 0 63.5 19.5t21.5 53.5q0 35 -22 56t-65 21h-75v-150z" />
    <glyph glyph-name="uni04C5.ALT" horiz-adv-x="745" 
d="M7 0l252 710h134l212 -599h138v-70l-78 -181h-90l38 140h-105l-154 461l-27 104h-2q-13 -64 -26 -104l-153 -461h-139z" />
    <glyph glyph-name="uni04C6.ALT" horiz-adv-x="612" 
d="M393 0l-105 316l-18 76h-2q-9 -47 -19 -76l-106 -316h-133l184 510h151l144 -403h122v-67l-69 -160h-85l33 120h-97z" />
    </font>
</defs>
</svg>
